<svg xmlns="http://www.w3.org/2000/svg" xmlns:xlink="http://www.w3.org/1999/xlink" xmlns:lucid="lucid" width="1540" height="1540"><g transform="translate(-100 100)" lucid:page-tab-id="0_0"><path d="M0-1296h1760v3952H0z" fill="#fff"/><path d="M278.92 472.25c0 6.77-5.5 12.25-12.25 12.25-6.77 0-12.25-5.48-12.25-12.25S259.9 460 266.67 460c6.76 0 12.25 5.48 12.25 12.25z" stroke="#000" stroke-width="2" fill="#fff"/><path d="M240 460h53.33v98H240z" fill="none"/><path d="M266.67 484.5v34.3l26.66 39.2m-26.66-39.2L240 558m0-61.25h53.33M293.33 520L799 200" stroke="#000" stroke-width="2" fill="none"/><path d="M293.87 520.85l-.54.33V520zM800.04 198.73L800 200v.17l.02.37-.5.3-1.05-1.7 1.63-1.02z"/><path d="M293.33 520L799 360" stroke="#000" stroke-width="2" fill="none"/><path d="M293.64 520.95l-.3.1V520zM800.04 358.73L800 360v.17l.02.56-.72.22-.6-1.9 1.35-.43z"/><path d="M293.33 520L799 280" stroke="#000" stroke-width="2" fill="none"/><path d="M293.76 520.9l-.43.2V520zM800.04 278.73L800 280v.17l.02.45-.6.28-.85-1.8 1.5-.72z"/><path d="M293.33 520L799 440" stroke="#000" stroke-width="2" fill="none"/><path d="M293.5 521h-.17v-1zM800 440v.17l.03.68-.87.14-.32-2 1.2-.18z"/><path d="M293.33 520l512.34 80" stroke="#000" stroke-width="2" fill="none"/><path d="M293.5 519l-.17 1v-1zM806.7 599.15l-.03.85v.17l.04 1-1.2-.18.32-2z"/><path d="M293.33 520l512.34 340" stroke="#000" stroke-width="2" fill="none"/><path d="M293.9 519.17l-.57.83v-1.2zM806.68 859.47V860.17l.04 1.27.05.5-1.66-1.1 1.12-1.67z"/><path d="M293.33 520l512.34 500" stroke="#000" stroke-width="2" fill="none"/><path d="M294.03 519.28l-.7.72v-1.4zM806.68 1019.6V1020.16l.04 1.27.1 1.1-1.85-1.82 1.4-1.44z"/><path d="M293.33 520l512.34 580" stroke="#000" stroke-width="2" fill="none"/><path d="M294.08 519.34l-.75.66v-1.5zM806.68 1099.63v.54l.04 1.27.13 1.28.03.16-1.96-2.22 1.5-1.32z"/><path d="M293.33 520l530.54 694.66" stroke="#000" stroke-width="2" fill="none"/><path d="M294.13 519.4l-.8.6v-1.65zM825.34 1214.94l-.84.5-.85.58-.57-.75 1.58-1.2z"/><path d="M460-80h840v1500H460z" stroke="#000" stroke-width="2" fill="none"/><use xlink:href="#a" transform="matrix(1,0,0,1,468,-72) translate(326.075 15.6)"/><use xlink:href="#b" transform="matrix(1,0,0,1,468,-72) translate(384.025 15.6)"/><use xlink:href="#c" transform="matrix(1,0,0,1,468,-72) translate(437.975 15.6)"/><path d="M960 120c0 22.1-35.82 40-80 40s-80-17.9-80-40 35.82-40 80-40 80 17.9 80 40z" stroke="#000" stroke-width="2" fill="#fff"/><use xlink:href="#d" transform="matrix(1,0,0,1,800,80) translate(46.57999999999999 44.4)"/><path d="M960 200c0 22.1-35.82 40-80 40s-80-17.9-80-40 35.82-40 80-40 80 17.9 80 40z" stroke="#000" stroke-width="2" fill="#fff"/><use xlink:href="#e" transform="matrix(1,0,0,1,800,160) translate(54.05499999999999 31.9)"/><use xlink:href="#f" transform="matrix(1,0,0,1,800,160) translate(47.504999999999995 53.5)"/><path d="M960 280c0 22.1-35.82 40-80 40s-80-17.9-80-40 35.82-40 80-40 80 17.9 80 40z" stroke="#000" stroke-width="2" fill="#fff"/><use xlink:href="#g" transform="matrix(1,0,0,1,800,240) translate(55.005 44.4)"/><use xlink:href="#h" transform="matrix(1,0,0,1,800,240) translate(90.005 44.4)"/><path d="M960 360c0 22.1-35.82 40-80 40s-80-17.9-80-40 35.82-40 80-40 80 17.9 80 40z" stroke="#000" stroke-width="2" fill="#fff"/><use xlink:href="#g" transform="matrix(1,0,0,1,800,320) translate(48.005 44.4)"/><use xlink:href="#i" transform="matrix(1,0,0,1,800,320) translate(83.005 44.4)"/><path d="M966.67 600c0 22.1-35.82 40-80 40-44.2 0-80-17.9-80-40s35.8-40 80-40c44.18 0 80 17.9 80 40z" stroke="#000" stroke-width="2" fill="#fff"/><use xlink:href="#j" transform="matrix(1,0,0,1,806.6666666666667,560) translate(26.07999999999999 44.4)"/><use xlink:href="#k" transform="matrix(1,0,0,1,806.6666666666667,560) translate(84.98 44.4)"/><path d="M966.67 860c0 22.1-35.82 40-80 40-44.2 0-80-17.9-80-40s35.8-40 80-40c44.18 0 80 17.9 80 40z" stroke="#000" stroke-width="2" fill="#fff"/><use xlink:href="#l" transform="matrix(1,0,0,1,806.6666666666667,820) translate(41.904999999999994 44.4)"/><use xlink:href="#m" transform="matrix(1,0,0,1,806.6666666666667,820) translate(81.85499999999999 44.4)"/><path d="M966.67 1020c0 22.1-35.82 40-80 40-44.2 0-80-17.9-80-40s35.8-40 80-40c44.18 0 80 17.9 80 40z" stroke="#000" stroke-width="2" fill="#fff"/><use xlink:href="#n" transform="matrix(1,0,0,1,806.6666666666667,980) translate(34.254999999999995 44.4)"/><use xlink:href="#o" transform="matrix(1,0,0,1,806.6666666666667,980) translate(77.805 44.4)"/><path d="M966.67 1100c0 22.1-35.82 40-80 40-44.2 0-80-17.9-80-40s35.8-40 80-40c44.18 0 80 17.9 80 40z" stroke="#000" stroke-width="2" fill="#fff"/><use xlink:href="#p" transform="matrix(1,0,0,1,806.6666666666667,1060) translate(59.004999999999995 31.9)"/><use xlink:href="#q" transform="matrix(1,0,0,1,806.6666666666667,1060) translate(44.05499999999999 53.5)"/><path d="M967.65 1240c0 22.1-35.8 40-80 40-44.18 0-80-17.9-80-40s35.82-40 80-40c44.2 0 80 17.9 80 40z" stroke="#000" stroke-width="2" fill="#fff"/><use xlink:href="#r" transform="matrix(1,0,0,1,807.6530253074272,1200) translate(34.03 31.9)"/><use xlink:href="#s" transform="matrix(1,0,0,1,807.6530253074272,1200) translate(110.98 31.9)"/><use xlink:href="#t" transform="matrix(1,0,0,1,807.6530253074272,1200) translate(58.53 53.5)"/><path d="M960 440c0 22.1-35.82 40-80 40s-80-17.9-80-40 35.82-40 80-40 80 17.9 80 40z" stroke="#000" stroke-width="2" fill="#fff"/><use xlink:href="#u" transform="matrix(1,0,0,1,800,400) translate(33.754999999999995 31.9)"/><use xlink:href="#v" transform="matrix(1,0,0,1,800,400) translate(77.305 31.9)"/><use xlink:href="#w" transform="matrix(1,0,0,1,800,400) translate(52.08 53.5)"/><path d="M700 1240c0 22.1-35.82 40-80 40s-80-17.9-80-40 35.82-40 80-40 80 17.9 80 40z" stroke="#000" stroke-width="2" fill="#fff"/><use xlink:href="#n" transform="matrix(1,0,0,1,540,1200) translate(36.754999999999995 44.4)"/><use xlink:href="#t" transform="matrix(1,0,0,1,540,1200) translate(80.305 44.4)"/><path d="M806.65 1240h-87.4" fill="none"/><path d="M806.65 1240h-2.9m-3.9 0h-5.82m-3.9 0h-5.82m-3.87 0h-5.83m-3.9 0h-5.8m-3.9 0h-5.83m-3.88 0h-5.84m-3.88 0h-5.83m-3.9 0h-5.8m-3.9 0h-2.9" stroke="#000" stroke-width="2" fill="none"/><path d="M807.65 1240v.17l.04.83h-1.05v-2h1.03zM718.5 1244.64l-14.26-4.64 14.26-4.64z"/><path d="M719.5 1246l-18.5-6 18.5-6zm-12.03-6l10.03 3.26v-6.52z"/><path d="M887.65 1150h80v40h-80z" stroke="#000" stroke-opacity="0" stroke-width="2" fill="#fff" fill-opacity="0"/><use xlink:href="#x" transform="matrix(1,0,0,1,892.6530253074274,1155) translate(-3.950000000000003 18.6)"/><path d="M278.92 72.25c0 6.77-5.5 12.25-12.25 12.25-6.77 0-12.25-5.48-12.25-12.25S259.9 60 266.67 60c6.76 0 12.25 5.48 12.25 12.25z" stroke="#000" stroke-width="2" fill="#fff"/><path d="M240 60h53.33v98H240z" fill="none"/><path d="M266.67 84.5v34.3l26.66 39.2m-26.66-39.2L240 158m0-61.25h53.33" stroke="#000" stroke-width="2" fill="none"/><use xlink:href="#y" transform="matrix(1,0,0,1,160.00000000000003,158) translate(88.05 14.6)"/><path d="M293.33 120H799" stroke="#000" stroke-width="2" fill="none"/><path/><path d="M800 120v.17l.03.83H799v-2h1.03z"/><path d="M293.33 520h509" stroke="#000" stroke-width="2" fill="none"/><path/><path d="M803.33 520v.17l.04.83h-1.04v-2h1.03z"/><path d="M963.33 940c0 22.1-35.8 40-80 40-44.18 0-80-17.9-80-40s35.82-40 80-40c44.2 0 80 17.9 80 40z" stroke="#000" stroke-width="2" fill="#fff"/><use xlink:href="#n" transform="matrix(1,0,0,1,803.3333333333336,899.9999999999999) translate(35.279999999999994 44.4)"/><use xlink:href="#z" transform="matrix(1,0,0,1,803.3333333333336,899.9999999999999) translate(78.83 44.4)"/><path d="M293.33 520l509 420" stroke="#000" stroke-width="2" fill="none"/><path d="M293.97 519.23l-.64.77v-1.3zM803.35 939.54l-.02.46v.17l.05 1.27.1.8-1.78-1.47 1.27-1.54z"/><path d="M963.33 680c0 22.1-35.8 40-80 40-44.18 0-80-17.9-80-40s35.82-40 80-40c44.2 0 80 17.9 80 40z" stroke="#000" stroke-width="2" fill="#fff"/><use xlink:href="#A" transform="matrix(1,0,0,1,803.3333333333336,640) translate(28.529999999999994 44.4)"/><use xlink:href="#k" transform="matrix(1,0,0,1,803.3333333333336,640) translate(82.53 44.4)"/><path d="M293.33 520l509 160" stroke="#000" stroke-width="2" fill="none"/><path d="M293.63 519.05l-.3.95v-1.05zM803.36 679.27l-.03.73v.17l.05 1.2-1.35-.42.6-1.9z"/><path d="M963.33 520c0 22.1-35.8 40-80 40-44.18 0-80-17.9-80-40s35.82-40 80-40c44.2 0 80 17.9 80 40z" stroke="#000" stroke-width="2" fill="#fff"/><use xlink:href="#n" transform="matrix(1,0,0,1,803.3333333333336,480) translate(34.28 31.9)"/><use xlink:href="#B" transform="matrix(1,0,0,1,803.3333333333336,480) translate(77.83 31.9)"/><use xlink:href="#C" transform="matrix(1,0,0,1,803.3333333333336,480) translate(59.004999999999995 53.5)"/><path d="M293.33 520l763.7 302.28" stroke="#000" stroke-width="2" fill="none"/><path d="M293.7 519.07l-.37.93v-1.08zM1058.92 821.95l-1.67 1.5-.58-.24.74-1.85z"/><path d="M1207.65 842.43c0 22.1-35.8 40-80 40-44.18 0-80-17.9-80-40s35.82-40 80-40c44.2 0 80 17.9 80 40z" stroke="#000" stroke-width="2" fill="#fff"/><use xlink:href="#n" transform="matrix(1,0,0,1,1047.653025307427,802.426406871193) translate(33.754999999999995 44.4)"/><use xlink:href="#k" transform="matrix(1,0,0,1,1047.653025307427,802.426406871193) translate(77.305 44.4)"/><path d="M967.67 1020l118.9-125.92" fill="none"/><path d="M967.67 1020l2.1-2.22m2.8-2.96l4.2-4.45m2.8-2.96l4.18-4.44m2.8-2.96l4.2-4.44m2.8-2.97l4.2-4.45m2.8-2.96l4.2-4.46m2.78-2.96l4.2-4.44m2.8-2.97l4.2-4.44m2.8-2.96l4.2-4.45m2.8-2.96l4.18-4.45m2.8-2.95l4.2-4.44m2.8-2.96l4.2-4.44m2.8-2.96l4.2-4.45m2.8-2.97l4.2-4.44m2.8-2.98l4.2-4.44m2.78-2.96l4.2-4.45m2.8-2.96l4.2-4.44m2.8-2.96l2.1-2.22" stroke="#000" stroke-width="2" fill="none"/><path d="M968.4 1020.7l-1.92 2 .03-.15.13-1.28.04-1.27v-.39l.27-.3zM1090.44 896.73l-6.74-6.37 13.17-7.2z"/><path d="M1090.76 898.4l-8.74-8.26 17.07-9.32zm-5.37-7.82l4.73 4.48 4.52-9.53z"/><path d="M964.33 680l103.32 115.75" fill="none"/><path d="M964.33 680l1.94 2.17m2.58 2.9l3.88 4.33m2.58 2.9l3.9 4.34m2.57 2.9l3.87 4.33m2.6 2.9l3.86 4.34m2.58 2.9l3.88 4.34m2.58 2.9l3.87 4.34m2.6 2.9l3.87 4.33m2.58 2.9l3.88 4.35m2.58 2.9l3.9 4.33m2.57 2.9l3.87 4.34m2.6 2.9l3.86 4.33m2.58 2.9l3.88 4.33m2.58 2.9l3.88 4.34m2.58 2.9l3.87 4.33m2.6 2.9l3.86 4.34m2.58 2.88l1.95 2.17" stroke="#000" stroke-width="2" fill="none"/><path d="M965.08 679.33l-1.5 1.34-.26-.3v-.54l-.04-1.27-.13-1.28-.02-.13zM1077.64 806.94l-12.96-7.55 6.92-6.2z"/><path d="M1079.8 809.36l-16.8-9.8 8.96-8zm-13.43-10.14l9.1 5.3-4.23-9.64z"/><path d="M967.67 1100l149.15-201.9" fill="none"/><path d="M967.67 1100l1.8-2.42m2.37-3.23l3.58-4.85m2.4-3.23l3.57-4.85m2.37-3.23l3.58-4.85m2.4-3.23l3.57-4.85m2.4-3.23l3.57-4.84m2.37-3.23l3.58-4.85m2.4-3.23l3.57-4.86m2.4-3.23l3.56-4.83m2.4-3.23l3.57-4.85m2.4-3.24l3.57-4.85m2.38-3.22l3.58-4.84m2.4-3.23l3.57-4.84m2.4-3.23l3.56-4.84m2.4-3.24l3.58-4.85m2.4-3.22l3.57-4.85m2.38-3.23l3.58-4.84m2.4-3.23l3.58-4.85m2.4-3.23l3.57-4.84m2.38-3.23l3.58-4.84m2.4-3.23l3.58-4.85m2.38-3.23l3.58-4.84m2.4-3.23l3.57-4.85m2.4-3.23l3.58-4.85m2.38-3.23l3.58-4.85m2.4-3.23l1.78-2.43" stroke="#000" stroke-width="2" fill="none"/><path d="M968.47 1100.6l-1.78 2.4-.24-.16.05-.3.13-1.27.04-1.27v-.32l.2-.27zM1120.98 900.26l-7.45-5.5 12.2-8.73z"/><path d="M1121.5 901.88l-9.68-7.14 15.83-11.3zm-6.27-7.12l5.24 3.88 3.34-10z"/><path d="M967.67 860l84.1 9.2" fill="none"/><path d="M967.67 860l3.15.35m4.2.46l6.3.7m4.22.46l6.3.7m4.2.45l6.32.7m4.2.46l6.3.7m4.2.45l6.32.7m4.2.46l6.3.7m4.22.45l6.3.7m4.2.46l3.16.34" stroke="#000" stroke-width="2" fill="none"/><path d="M967.78 859l-.22 2-.92-.1.03-.9v-.17l-.04-.95zM1066.68 870.83l-14.7 3.06 1.02-9.23z"/><path d="M1069.9 871.2l-19.05 3.95 1.3-11.95zm-16.77 1.43l10.33-2.15-9.62-4.33z"/><path d="M1020.3 1025l46.47-65.1 32.55 23.24-46.48 65.1z" stroke="#000" stroke-opacity="0" stroke-width="2" fill="#fff" fill-opacity="0"/><use xlink:href="#x" transform="matrix(0.5809883083750519,-0.8139119028073588,0.8139119028073588,0.5809883083750519,1027.2608880850516,1023.8476073589131) translate(-3.950000000000003 18.6)"/><path d="M981.97 960.73l52.3-60.55 30.26 26.14-52.28 60.55z" stroke="#000" stroke-opacity="0" stroke-width="2" fill="#fff" fill-opacity="0"/><use xlink:href="#x" transform="matrix(0.6535772889369181,-0.7568597805312872,0.7568597805312872,0.6535772889369181,989.0257993339521,960.2106317239329) translate(-3.950000000000003 18.6)"/><path d="M1011.54 680l56.57 56.57-28.28 28.28-56.57-56.57z" stroke="#000" stroke-opacity="0" stroke-width="2" fill="#fff" fill-opacity="0"/><use xlink:href="#x" transform="matrix(0.7071067811865476,0.7071067811865475,-0.7071067811865475,0.7071067811865476,1011.5381724021756,687.0710678118655) translate(-3.950000000000003 18.6)"/><path d="M886.67 1141v39.77" fill="none"/><path d="M886.67 1141v2.98m0 3.98v5.96m0 3.98v5.97m0 3.97v5.97m0 4v2.97" stroke="#000" stroke-width="2" fill="none"/><path d="M886.67 1140h1v1h-2v-1.03zM886.67 1195.77l-4.64-14.27h9.27z"/><path d="M886.67 1199l-6.02-18.5h12.03zm-3.26-16.5l3.27 10.03 3.26-10.03z"/><path d="M727.65 1200h80v40h-80z" stroke="#000" stroke-opacity="0" stroke-width="2" fill="#fff" fill-opacity="0"/><use xlink:href="#x" transform="matrix(1,0,0,1,732.6530253074274,1205) translate(-3.950000000000003 18.6)"/><path d="M293.33 520L539 1240" stroke="#000" stroke-width="2" fill="none"/><path d="M294.28 519.68l-.95.32v-3.1zM540 1239.85v.32l.05 1.27.13 1.28v.04l-1.16.4-.97-2.84 1.9-.64z"/><path d="M971.4 820l79.44 9.46-4.74 39.72-79.43-9.46z" stroke="#000" stroke-opacity="0" stroke-width="2" fill="#fff" fill-opacity="0"/><use xlink:href="#x" transform="matrix(0.9929772317713149,0.11830560926590242,-0.11830560926590242,0.9929772317713149,975.77224914983,825.5564142051859) translate(-3.950000000000003 18.6)"/><path d="M268.7 120H360M268.7 120h-3" stroke="#000" stroke-width="2" fill="none"/><path d="M120 540h240v60H120z" stroke="#000" stroke-opacity="0" stroke-width="2" fill="#fff" fill-opacity="0"/><g><use xlink:href="#D" transform="matrix(1,0,0,1,125,545) translate(50.125 28.6)"/><use xlink:href="#E" transform="matrix(1,0,0,1,125,545) translate(141.97500000000002 28.6)"/></g><path d="M960 40c0 22.1-35.82 40-80 40s-80-17.9-80-40 35.82-40 80-40 80 17.9 80 40z" stroke="#000" stroke-width="2" fill="#fff"/><g><use xlink:href="#F" transform="matrix(1,0,0,1,800,0) translate(32.07999999999999 44.4)"/><use xlink:href="#G" transform="matrix(1,0,0,1,800,0) translate(75.03 44.4)"/></g><path d="M963.33 1320c0 22.1-35.8 40-80 40-44.18 0-80-17.9-80-40s35.82-40 80-40c44.2 0 80 17.9 80 40z" stroke="#000" stroke-width="2" fill="#fff"/><g><use xlink:href="#H" transform="matrix(1,0,0,1,803.3333333333336,1280) translate(32.555 44.4)"/><use xlink:href="#G" transform="matrix(1,0,0,1,803.3333333333336,1280) translate(74.555 44.4)"/></g><path d="M1605.58 192.25c0 6.77-5.48 12.25-12.25 12.25-6.76 0-12.25-5.48-12.25-12.25s5.5-12.25 12.25-12.25c6.77 0 12.25 5.48 12.25 12.25z" stroke="#000" stroke-width="2" fill="#fff"/><path d="M1566.67 180H1620v98h-53.33z" fill="none"/><path d="M1593.33 204.5v34.3L1620 278m-26.67-39.2l-26.66 39.2m0-61.25H1620" stroke="#000" stroke-width="2" fill="none"/><g><use xlink:href="#y" transform="matrix(1,0,0,1,1486.6666666666667,278) translate(88.05 14.6)"/></g><path d="M1480 160h140v60h-140z" stroke="#000" stroke-opacity="0" stroke-width="2" fill="#fff" fill-opacity="0"/><g><use xlink:href="#I" transform="matrix(1,0,0,1,1485,165) translate(39.55 28.6)"/></g><path d="M961 40l628.44 199.4" stroke="#000" stroke-width="2" fill="none"/><path d="M961.3 39.05l-.6 1.9-.72-.23.02-.72v-.17l-.05-1.2z"/><path d="M1569.95 243.9l19.5-4.5-13.34-14.9M964.33 1320l626-1078.3" stroke="#000" stroke-width="2" fill="none"/><path d="M965.2 1320.5l-1.5 2.6-.56-.33.03-.22.12-1.28.03-1.27v-.27l.14-.23z"/><path d="M1590.48 261.7l-.16-20-17.45 9.78" stroke="#000" stroke-width="2" fill="none"/><defs><path d="M153-248C145-148 188 4 80 4 36 3 13-21 6-62l32-5c4 25 16 42 43 43 27 0 39-20 39-49v-147H72v-28h81" id="J"/><path d="M84 4C-5 8 30-112 23-190h32v120c0 31 7 50 39 49 72-2 45-101 50-169h31l1 190h-30c-1-10 1-25-2-33-11 22-28 36-60 37" id="K"/><path d="M117-194c89-4 53 116 60 194h-32v-121c0-31-8-49-39-48C34-167 62-67 57 0H25l-1-190h30c1 10-1 24 2 32 11-22 29-35 61-36" id="L"/><path d="M177-190C167-65 218 103 67 71c-23-6-38-20-44-43l32-5c15 47 100 32 89-28v-30C133-14 115 1 83 1 29 1 15-40 15-95c0-56 16-97 71-98 29-1 48 16 59 35 1-10 0-23 2-32h30zM94-22c36 0 50-32 50-73 0-42-14-75-50-75-39 0-46 34-46 75s6 73 46 73" id="M"/><path d="M24 0v-261h32V0H24" id="N"/><path d="M100-194c63 0 86 42 84 106H49c0 40 14 67 53 68 26 1 43-12 49-29l28 8c-11 28-37 45-77 45C44 4 14-33 15-96c1-61 26-98 85-98zm52 81c6-60-76-77-97-28-3 7-6 17-6 28h103" id="O"/><g id="a"><use transform="matrix(0.05,0,0,0.05,0,0)" xlink:href="#J"/><use transform="matrix(0.05,0,0,0.05,9,0)" xlink:href="#K"/><use transform="matrix(0.05,0,0,0.05,19,0)" xlink:href="#L"/><use transform="matrix(0.05,0,0,0.05,29,0)" xlink:href="#M"/><use transform="matrix(0.05,0,0,0.05,39,0)" xlink:href="#N"/><use transform="matrix(0.05,0,0,0.05,42.95,0)" xlink:href="#O"/></g><path d="M143 4C61 4 22-44 18-125c-5-107 100-154 193-111 17 8 29 25 37 43l-32 9c-13-25-37-40-76-40-61 0-88 39-88 99 0 61 29 100 91 101 35 0 62-11 79-27v-45h-74v-28h105v86C228-13 192 4 143 4" id="P"/><path d="M141-36C126-15 110 5 73 4 37 3 15-17 15-53c-1-64 63-63 125-63 3-35-9-54-41-54-24 1-41 7-42 31l-33-3c5-37 33-52 76-52 45 0 72 20 72 64v82c-1 20 7 32 28 27v20c-31 9-61-2-59-35zM48-53c0 20 12 33 32 33 41-3 63-29 60-74-43 2-92-5-92 41" id="Q"/><path d="M210-169c-67 3-38 105-44 169h-31v-121c0-29-5-50-35-48C34-165 62-65 56 0H25l-1-190h30c1 10-1 24 2 32 10-44 99-50 107 0 11-21 27-35 58-36 85-2 47 119 55 194h-31v-121c0-29-5-49-35-48" id="R"/><g id="b"><use transform="matrix(0.05,0,0,0.05,0,0)" xlink:href="#P"/><use transform="matrix(0.05,0,0,0.05,14,0)" xlink:href="#Q"/><use transform="matrix(0.05,0,0,0.05,24,0)" xlink:href="#R"/><use transform="matrix(0.05,0,0,0.05,38.95,0)" xlink:href="#O"/></g><path d="M185-189c-5-48-123-54-124 2 14 75 158 14 163 119 3 78-121 87-175 55-17-10-28-26-33-46l33-7c5 56 141 63 141-1 0-78-155-14-162-118-5-82 145-84 179-34 5 7 8 16 11 25" id="S"/><path d="M179-190L93 31C79 59 56 82 12 73V49c39 6 53-20 64-50L1-190h34L92-34l54-156h33" id="T"/><path d="M135-143c-3-34-86-38-87 0 15 53 115 12 119 90S17 21 10-45l28-5c4 36 97 45 98 0-10-56-113-15-118-90-4-57 82-63 122-42 12 7 21 19 24 35" id="U"/><path d="M59-47c-2 24 18 29 38 22v24C64 9 27 4 27-40v-127H5v-23h24l9-43h21v43h35v23H59v120" id="V"/><g id="c"><use transform="matrix(0.05,0,0,0.05,0,0)" xlink:href="#S"/><use transform="matrix(0.05,0,0,0.05,12,0)" xlink:href="#T"/><use transform="matrix(0.05,0,0,0.05,21,0)" xlink:href="#U"/><use transform="matrix(0.05,0,0,0.05,30,0)" xlink:href="#V"/><use transform="matrix(0.05,0,0,0.05,35,0)" xlink:href="#O"/><use transform="matrix(0.05,0,0,0.05,45,0)" xlink:href="#R"/></g><path d="M233-177c-1 41-23 64-60 70L243 0h-38l-65-103H63V0H30v-248c88 3 205-21 203 71zM63-129c60-2 137 13 137-47 0-61-80-42-137-45v92" id="W"/><path d="M24-231v-30h32v30H24zM24 0v-190h32V0H24" id="X"/><path d="M114-163C36-179 61-72 57 0H25l-1-190h30c1 12-1 29 2 39 6-27 23-49 58-41v29" id="Y"/><g id="d"><use transform="matrix(0.05,0,0,0.05,0,0)" xlink:href="#W"/><use transform="matrix(0.05,0,0,0.05,12.950000000000001,0)" xlink:href="#O"/><use transform="matrix(0.05,0,0,0.05,22.950000000000003,0)" xlink:href="#M"/><use transform="matrix(0.05,0,0,0.05,32.95,0)" xlink:href="#X"/><use transform="matrix(0.05,0,0,0.05,36.900000000000006,0)" xlink:href="#U"/><use transform="matrix(0.05,0,0,0.05,45.900000000000006,0)" xlink:href="#V"/><use transform="matrix(0.05,0,0,0.05,50.900000000000006,0)" xlink:href="#O"/><use transform="matrix(0.05,0,0,0.05,60.900000000000006,0)" xlink:href="#Y"/></g><path d="M30-248c118-7 216 8 213 122C240-48 200 0 122 0H30v-248zM63-27c89 8 146-16 146-99s-60-101-146-95v194" id="Z"/><g id="e"><use transform="matrix(0.05,0,0,0.05,0,0)" xlink:href="#Z"/><use transform="matrix(0.05,0,0,0.05,12.950000000000001,0)" xlink:href="#O"/><use transform="matrix(0.05,0,0,0.05,22.950000000000003,0)" xlink:href="#N"/><use transform="matrix(0.05,0,0,0.05,26.900000000000002,0)" xlink:href="#O"/><use transform="matrix(0.05,0,0,0.05,36.900000000000006,0)" xlink:href="#V"/><use transform="matrix(0.05,0,0,0.05,41.900000000000006,0)" xlink:href="#O"/></g><path d="M205 0l-28-72H64L36 0H1l101-248h38L239 0h-34zm-38-99l-47-123c-12 45-31 82-46 123h93" id="aa"/><path d="M96-169c-40 0-48 33-48 73s9 75 48 75c24 0 41-14 43-38l32 2c-6 37-31 61-74 61-59 0-76-41-82-99-10-93 101-131 147-64 4 7 5 14 7 22l-32 3c-4-21-16-35-41-35" id="ab"/><path d="M100-194c62-1 85 37 85 99 1 63-27 99-86 99S16-35 15-95c0-66 28-99 85-99zM99-20c44 1 53-31 53-75 0-43-8-75-51-75s-53 32-53 75 10 74 51 75" id="ac"/><g id="f"><use transform="matrix(0.05,0,0,0.05,0,0)" xlink:href="#aa"/><use transform="matrix(0.05,0,0,0.05,12,0)" xlink:href="#ab"/><use transform="matrix(0.05,0,0,0.05,21,0)" xlink:href="#ab"/><use transform="matrix(0.05,0,0,0.05,30,0)" xlink:href="#ac"/><use transform="matrix(0.05,0,0,0.05,40,0)" xlink:href="#K"/><use transform="matrix(0.05,0,0,0.05,50,0)" xlink:href="#L"/><use transform="matrix(0.05,0,0,0.05,60,0)" xlink:href="#V"/></g><path d="M30 0v-248h33v221h125V0H30" id="ad"/><g id="g"><use transform="matrix(0.05,0,0,0.05,0,0)" xlink:href="#ad"/><use transform="matrix(0.05,0,0,0.05,10,0)" xlink:href="#ac"/><use transform="matrix(0.05,0,0,0.05,20,0)" xlink:href="#M"/></g><path d="M33 0v-248h34V0H33" id="ae"/><g id="h"><use transform="matrix(0.05,0,0,0.05,0,0)" xlink:href="#ae"/><use transform="matrix(0.05,0,0,0.05,5,0)" xlink:href="#L"/></g><path d="M140-251c81 0 123 46 123 126C263-46 219 4 140 4 59 4 17-45 17-125s42-126 123-126zm0 227c63 0 89-41 89-101s-29-99-89-99c-61 0-89 39-89 99S79-25 140-24" id="af"/><g id="i"><use transform="matrix(0.05,0,0,0.05,0,0)" xlink:href="#af"/><use transform="matrix(0.05,0,0,0.05,14,0)" xlink:href="#K"/><use transform="matrix(0.05,0,0,0.05,24,0)" xlink:href="#V"/></g><path d="M212-179c-10-28-35-45-73-45-59 0-87 40-87 99 0 60 29 101 89 101 43 0 62-24 78-52l27 14C228-24 195 4 139 4 59 4 22-46 18-125c-6-104 99-153 187-111 19 9 31 26 39 46" id="ag"/><g id="j"><use transform="matrix(0.05,0,0,0.05,0,0)" xlink:href="#ag"/><use transform="matrix(0.05,0,0,0.05,12.950000000000001,0)" xlink:href="#Y"/><use transform="matrix(0.05,0,0,0.05,18.900000000000002,0)" xlink:href="#O"/><use transform="matrix(0.05,0,0,0.05,28.900000000000002,0)" xlink:href="#Q"/><use transform="matrix(0.05,0,0,0.05,38.900000000000006,0)" xlink:href="#V"/><use transform="matrix(0.05,0,0,0.05,43.900000000000006,0)" xlink:href="#O"/></g><path d="M240 0l2-218c-23 76-54 145-80 218h-23L58-218 59 0H30v-248h44l77 211c21-75 51-140 76-211h43V0h-30" id="ah"/><path d="M106-169C34-169 62-67 57 0H25v-261h32l-1 103c12-21 28-36 61-36 89 0 53 116 60 194h-32v-121c2-32-8-49-39-48" id="ai"/><g id="k"><use transform="matrix(0.05,0,0,0.05,0,0)" xlink:href="#ah"/><use transform="matrix(0.05,0,0,0.05,14.950000000000001,0)" xlink:href="#Q"/><use transform="matrix(0.05,0,0,0.05,24.950000000000003,0)" xlink:href="#V"/><use transform="matrix(0.05,0,0,0.05,29.950000000000003,0)" xlink:href="#ab"/><use transform="matrix(0.05,0,0,0.05,38.95,0)" xlink:href="#ai"/></g><path d="M30-248c87 1 191-15 191 75 0 78-77 80-158 76V0H30v-248zm33 125c57 0 124 11 124-50 0-59-68-47-124-48v98" id="aj"/><g id="l"><use transform="matrix(0.05,0,0,0.05,0,0)" xlink:href="#aj"/><use transform="matrix(0.05,0,0,0.05,12,0)" xlink:href="#N"/><use transform="matrix(0.05,0,0,0.05,15.949999999999998,0)" xlink:href="#Q"/><use transform="matrix(0.05,0,0,0.05,25.950000000000003,0)" xlink:href="#T"/></g><path d="M127-220V0H93v-220H8v-28h204v28h-85" id="ak"/><g id="m"><use transform="matrix(0.05,0,0,0.05,0,0)" xlink:href="#ak"/><use transform="matrix(0.05,0,0,0.05,10.3,0)" xlink:href="#K"/><use transform="matrix(0.05,0,0,0.05,20.3,0)" xlink:href="#Y"/><use transform="matrix(0.05,0,0,0.05,26.25,0)" xlink:href="#L"/></g><path d="M137 0h-34L2-248h35l83 218 83-218h36" id="al"/><path d="M206 0h-36l-40-164L89 0H53L-1-190h32L70-26l43-164h34l41 164 42-164h31" id="am"/><g id="n"><use transform="matrix(0.05,0,0,0.05,0,0)" xlink:href="#al"/><use transform="matrix(0.05,0,0,0.05,11.65,0)" xlink:href="#X"/><use transform="matrix(0.05,0,0,0.05,15.600000000000001,0)" xlink:href="#O"/><use transform="matrix(0.05,0,0,0.05,25.6,0)" xlink:href="#am"/></g><path d="M160-131c35 5 61 23 61 61C221 17 115-2 30 0v-248c76 3 177-17 177 60 0 33-19 50-47 57zm-97-11c50-1 110 9 110-42 0-47-63-36-110-37v79zm0 115c55-2 124 14 124-45 0-56-70-42-124-44v89" id="an"/><path d="M85-194c31 0 48 13 60 33l-1-100h32l1 261h-30c-2-10 0-23-3-31C134-8 116 4 85 4 32 4 16-35 15-94c0-66 23-100 70-100zm9 24c-40 0-46 34-46 75 0 40 6 74 45 74 42 0 51-32 51-76 0-42-9-74-50-73" id="ao"/><g id="o"><use transform="matrix(0.05,0,0,0.05,0,0)" xlink:href="#an"/><use transform="matrix(0.05,0,0,0.05,12,0)" xlink:href="#ac"/><use transform="matrix(0.05,0,0,0.05,22,0)" xlink:href="#Q"/><use transform="matrix(0.05,0,0,0.05,32,0)" xlink:href="#Y"/><use transform="matrix(0.05,0,0,0.05,37.95,0)" xlink:href="#ao"/></g><g id="p"><use transform="matrix(0.05,0,0,0.05,0,0)" xlink:href="#S"/><use transform="matrix(0.05,0,0,0.05,12,0)" xlink:href="#O"/><use transform="matrix(0.05,0,0,0.05,22,0)" xlink:href="#L"/><use transform="matrix(0.05,0,0,0.05,32,0)" xlink:href="#ao"/></g><path d="M108 0H70L1-190h34L89-25l56-165h34" id="ap"/><g id="q"><use transform="matrix(0.05,0,0,0.05,0,0)" xlink:href="#ae"/><use transform="matrix(0.05,0,0,0.05,5,0)" xlink:href="#L"/><use transform="matrix(0.05,0,0,0.05,15,0)" xlink:href="#ap"/><use transform="matrix(0.05,0,0,0.05,24,0)" xlink:href="#X"/><use transform="matrix(0.05,0,0,0.05,27.950000000000003,0)" xlink:href="#V"/><use transform="matrix(0.05,0,0,0.05,32.95,0)" xlink:href="#Q"/><use transform="matrix(0.05,0,0,0.05,42.95,0)" xlink:href="#V"/><use transform="matrix(0.05,0,0,0.05,47.95,0)" xlink:href="#X"/><use transform="matrix(0.05,0,0,0.05,51.900000000000006,0)" xlink:href="#ac"/><use transform="matrix(0.05,0,0,0.05,61.900000000000006,0)" xlink:href="#L"/></g><path d="M115-194c55 1 70 41 70 98S169 2 115 4C84 4 66-9 55-30l1 105H24l-1-265h31l2 30c10-21 28-34 59-34zm-8 174c40 0 45-34 45-75s-6-73-45-74c-42 0-51 32-51 76 0 43 10 73 51 73" id="aq"/><g id="r"><use transform="matrix(0.05,0,0,0.05,0,0)" xlink:href="#W"/><use transform="matrix(0.05,0,0,0.05,12.950000000000001,0)" xlink:href="#O"/><use transform="matrix(0.05,0,0,0.05,22.950000000000003,0)" xlink:href="#U"/><use transform="matrix(0.05,0,0,0.05,31.950000000000003,0)" xlink:href="#aq"/><use transform="matrix(0.05,0,0,0.05,41.95,0)" xlink:href="#ac"/><use transform="matrix(0.05,0,0,0.05,51.95,0)" xlink:href="#L"/><use transform="matrix(0.05,0,0,0.05,61.95,0)" xlink:href="#ao"/></g><g id="s"><use transform="matrix(0.05,0,0,0.05,0,0)" xlink:href="#V"/><use transform="matrix(0.05,0,0,0.05,5,0)" xlink:href="#ac"/></g><g id="t"><use transform="matrix(0.05,0,0,0.05,0,0)" xlink:href="#ae"/><use transform="matrix(0.05,0,0,0.05,5,0)" xlink:href="#L"/><use transform="matrix(0.05,0,0,0.05,15,0)" xlink:href="#ap"/><use transform="matrix(0.05,0,0,0.05,24,0)" xlink:href="#X"/><use transform="matrix(0.05,0,0,0.05,27.950000000000003,0)" xlink:href="#V"/><use transform="matrix(0.05,0,0,0.05,32.95,0)" xlink:href="#O"/></g><g id="u"><use transform="matrix(0.05,0,0,0.05,0,0)" xlink:href="#al"/><use transform="matrix(0.05,0,0,0.05,11.65,0)" xlink:href="#X"/><use transform="matrix(0.05,0,0,0.05,15.600000000000001,0)" xlink:href="#O"/><use transform="matrix(0.05,0,0,0.05,25.6,0)" xlink:href="#am"/></g><g id="v"><use transform="matrix(0.05,0,0,0.05,0,0)" xlink:href="#ah"/><use transform="matrix(0.05,0,0,0.05,14.950000000000001,0)" xlink:href="#Q"/><use transform="matrix(0.05,0,0,0.05,24.950000000000003,0)" xlink:href="#V"/><use transform="matrix(0.05,0,0,0.05,29.950000000000003,0)" xlink:href="#ab"/><use transform="matrix(0.05,0,0,0.05,38.95,0)" xlink:href="#ai"/></g><path d="M197 0v-115H63V0H30v-248h33v105h134v-105h34V0h-34" id="ar"/><g id="w"><use transform="matrix(0.05,0,0,0.05,0,0)" xlink:href="#ar"/><use transform="matrix(0.05,0,0,0.05,12.950000000000001,0)" xlink:href="#X"/><use transform="matrix(0.05,0,0,0.05,16.900000000000002,0)" xlink:href="#U"/><use transform="matrix(0.05,0,0,0.05,25.900000000000002,0)" xlink:href="#V"/><use transform="matrix(0.05,0,0,0.05,30.900000000000002,0)" xlink:href="#ac"/><use transform="matrix(0.05,0,0,0.05,40.900000000000006,0)" xlink:href="#Y"/><use transform="matrix(0.05,0,0,0.05,46.85000000000001,0)" xlink:href="#T"/></g><path d="M18-100v-36l175-74v27L42-118l151 64v27" id="as"/><path d="M18-27v-27l151-64-151-65v-27l175 74v36" id="at"/><g id="x"><use transform="matrix(0.05,0,0,0.05,0,0)" xlink:href="#as"/><use transform="matrix(0.05,0,0,0.05,10.5,0)" xlink:href="#X"/><use transform="matrix(0.05,0,0,0.05,14.449999999999998,0)" xlink:href="#L"/><use transform="matrix(0.05,0,0,0.05,24.45,0)" xlink:href="#ab"/><use transform="matrix(0.05,0,0,0.05,33.45,0)" xlink:href="#N"/><use transform="matrix(0.05,0,0,0.05,37.400000000000006,0)" xlink:href="#K"/><use transform="matrix(0.05,0,0,0.05,47.400000000000006,0)" xlink:href="#ao"/><use transform="matrix(0.05,0,0,0.05,57.400000000000006,0)" xlink:href="#O"/><use transform="matrix(0.05,0,0,0.05,67.4,0)" xlink:href="#at"/></g><path d="M232-93c-1 65-40 97-104 97C67 4 28-28 28-90v-158h33c8 89-33 224 67 224 102 0 64-133 71-224h33v155" id="au"/><g id="y"><use transform="matrix(0.05,0,0,0.05,0,0)" xlink:href="#au"/><use transform="matrix(0.05,0,0,0.05,12.950000000000001,0)" xlink:href="#U"/><use transform="matrix(0.05,0,0,0.05,21.950000000000003,0)" xlink:href="#O"/><use transform="matrix(0.05,0,0,0.05,31.950000000000003,0)" xlink:href="#Y"/></g><g id="z"><use transform="matrix(0.05,0,0,0.05,0,0)" xlink:href="#W"/><use transform="matrix(0.05,0,0,0.05,12.950000000000001,0)" xlink:href="#K"/><use transform="matrix(0.05,0,0,0.05,22.950000000000003,0)" xlink:href="#N"/><use transform="matrix(0.05,0,0,0.05,26.900000000000002,0)" xlink:href="#O"/><use transform="matrix(0.05,0,0,0.05,36.900000000000006,0)" xlink:href="#U"/></g><g id="A"><use transform="matrix(0.05,0,0,0.05,0,0)" xlink:href="#ad"/><use transform="matrix(0.05,0,0,0.05,10,0)" xlink:href="#O"/><use transform="matrix(0.05,0,0,0.05,20,0)" xlink:href="#Q"/><use transform="matrix(0.05,0,0,0.05,30,0)" xlink:href="#ap"/><use transform="matrix(0.05,0,0,0.05,39,0)" xlink:href="#O"/></g><g id="B"><use transform="matrix(0.05,0,0,0.05,0,0)" xlink:href="#ar"/><use transform="matrix(0.05,0,0,0.05,12.950000000000001,0)" xlink:href="#ac"/><use transform="matrix(0.05,0,0,0.05,22.950000000000003,0)" xlink:href="#R"/><use transform="matrix(0.05,0,0,0.05,37.900000000000006,0)" xlink:href="#O"/></g><g id="C"><use transform="matrix(0.05,0,0,0.05,0,0)" xlink:href="#aj"/><use transform="matrix(0.05,0,0,0.05,12,0)" xlink:href="#Q"/><use transform="matrix(0.05,0,0,0.05,22,0)" xlink:href="#M"/><use transform="matrix(0.05,0,0,0.05,32,0)" xlink:href="#O"/></g><g id="D"><use transform="matrix(0.05,0,0,0.05,0,0)" xlink:href="#W"/><use transform="matrix(0.05,0,0,0.05,12.950000000000001,0)" xlink:href="#O"/><use transform="matrix(0.05,0,0,0.05,22.950000000000003,0)" xlink:href="#M"/><use transform="matrix(0.05,0,0,0.05,32.95,0)" xlink:href="#X"/><use transform="matrix(0.05,0,0,0.05,36.900000000000006,0)" xlink:href="#U"/><use transform="matrix(0.05,0,0,0.05,45.900000000000006,0)" xlink:href="#V"/><use transform="matrix(0.05,0,0,0.05,50.900000000000006,0)" xlink:href="#O"/><use transform="matrix(0.05,0,0,0.05,60.900000000000006,0)" xlink:href="#Y"/><use transform="matrix(0.05,0,0,0.05,66.85000000000001,0)" xlink:href="#O"/><use transform="matrix(0.05,0,0,0.05,76.85000000000001,0)" xlink:href="#ao"/></g><g id="E"><use transform="matrix(0.05,0,0,0.05,0,0)" xlink:href="#au"/><use transform="matrix(0.05,0,0,0.05,12.950000000000001,0)" xlink:href="#U"/><use transform="matrix(0.05,0,0,0.05,21.950000000000003,0)" xlink:href="#O"/><use transform="matrix(0.05,0,0,0.05,31.950000000000003,0)" xlink:href="#Y"/></g><g id="F"><use transform="matrix(0.05,0,0,0.05,0,0)" xlink:href="#S"/><use transform="matrix(0.05,0,0,0.05,12,0)" xlink:href="#V"/><use transform="matrix(0.05,0,0,0.05,17,0)" xlink:href="#Q"/><use transform="matrix(0.05,0,0,0.05,27,0)" xlink:href="#Y"/><use transform="matrix(0.05,0,0,0.05,32.95,0)" xlink:href="#V"/></g><g id="G"><use transform="matrix(0.05,0,0,0.05,0,0)" xlink:href="#S"/><use transform="matrix(0.05,0,0,0.05,12,0)" xlink:href="#O"/><use transform="matrix(0.05,0,0,0.05,22,0)" xlink:href="#Y"/><use transform="matrix(0.05,0,0,0.05,27.950000000000003,0)" xlink:href="#ap"/><use transform="matrix(0.05,0,0,0.05,36.95,0)" xlink:href="#O"/><use transform="matrix(0.05,0,0,0.05,46.95,0)" xlink:href="#Y"/></g><g id="H"><use transform="matrix(0.05,0,0,0.05,0,0)" xlink:href="#S"/><use transform="matrix(0.05,0,0,0.05,12,0)" xlink:href="#V"/><use transform="matrix(0.05,0,0,0.05,17,0)" xlink:href="#ac"/><use transform="matrix(0.05,0,0,0.05,27,0)" xlink:href="#aq"/></g><g id="I"><use transform="matrix(0.05,0,0,0.05,0,0)" xlink:href="#aa"/><use transform="matrix(0.05,0,0,0.05,12,0)" xlink:href="#ao"/><use transform="matrix(0.05,0,0,0.05,22,0)" xlink:href="#R"/><use transform="matrix(0.05,0,0,0.05,36.95,0)" xlink:href="#X"/><use transform="matrix(0.05,0,0,0.05,40.900000000000006,0)" xlink:href="#L"/></g></defs></g></svg>