<svg xmlns="http://www.w3.org/2000/svg" xmlns:xlink="http://www.w3.org/1999/xlink" xmlns:lucid="lucid" width="2040" height="1940"><g transform="translate(280 -60)" lucid:page-tab-id="k~nou_MWUIXT"><path d="M-1696 0h3456v2656h-3456z" fill="#fff"/><path d="M180 80h1360v60H180z" stroke="#000" stroke-width="2" fill="#fff"/><use xlink:href="#a" transform="matrix(1,0,0,1,185,85) translate(585.125 28.6)"/><use xlink:href="#b" transform="matrix(1,0,0,1,185,85) translate(609.075 28.6)"/><use xlink:href="#c" transform="matrix(1,0,0,1,185,85) translate(651.975 28.6)"/><use xlink:href="#d" transform="matrix(1,0,0,1,185,85) translate(685.925 28.6)"/><use xlink:href="#e" transform="matrix(1,0,0,1,185,85) translate(715.925 28.6)"/><path d="M-140 240H60v40h-200z" stroke="#000" stroke-width="2" fill="#fff"/><use xlink:href="#f" transform="matrix(1,0,0,1,-134.99999999999997,245) translate(23.650000000000006 18.6)"/><path d="M720 240h200v40H720z" stroke="#000" stroke-width="2" fill="#fff"/><use xlink:href="#g" transform="matrix(1,0,0,1,725,245) translate(23.650000000000006 18.6)"/><path d="M1040 240h200v40h-200z" stroke="#000" stroke-width="2" fill="#fff"/><use xlink:href="#h" transform="matrix(1,0,0,1,1045,245) translate(34.67499999999999 18.6)"/><path d="M1380 240h200v40h-200z" stroke="#000" stroke-width="2" fill="#fff"/><use xlink:href="#i" transform="matrix(1,0,0,1,1385,245) translate(54.025 18.6)"/><path d="M-40 281v1699" stroke="#000" stroke-width="2" fill="none"/><path d="M-39 281h-2v-1h2z"/><path d="M820 281v1699" stroke="#000" stroke-width="2" fill="none"/><path d="M821 281h-2v-1h2z"/><path d="M1140 281v1679" stroke="#000" stroke-width="2" fill="none"/><path d="M1141 281h-2v-1h2z"/><path d="M1480 281v1679" stroke="#000" stroke-width="2" fill="none"/><path d="M1481 281h-2v-1h2z"/><path d="M-207.75 372.25c0 6.77-5.48 12.25-12.25 12.25s-12.25-5.48-12.25-12.25S-226.77 360-220 360s12.25 5.48 12.25 12.25z" stroke="#000" stroke-width="2" fill="#fff"/><path d="M-260 360h80v98h-80z" fill="none"/><path d="M-220 384.5v34.3l40 39.2m-40-39.2l-40 39.2m0-61.25h80" stroke="#000" stroke-width="2" fill="none"/><use xlink:href="#j" transform="matrix(1,0,0,1,-340,458) translate(101.05 14.6)"/><path d="M-217.35 420h88.68v.33h70.43M-217.35 420h-3" stroke="#000" stroke-width="2" fill="none"/><path d="M-43.24 420.33l-14.26 4.64v-9.27z" stroke="#000" stroke-width="2"/><use xlink:href="#k" transform="matrix(1,0,0,1,-160.52716135462072,394.4) translate(0 14.4)"/><path d="M440 240h200v40H440z" stroke="#000" stroke-width="2" fill="#fff"/><use xlink:href="#l" transform="matrix(1,0,0,1,445,245) translate(37.625 18.6)"/><path d="M540 281v1699" stroke="#000" stroke-width="2" fill="none"/><path d="M541 281h-2v-1h2z"/><path d="M-40 480h160v-.06h141.76" stroke="#000" stroke-width="2" fill="none"/><path d="M276.76 479.94l-14.26 4.64v-9.27z" stroke="#000" stroke-width="2"/><use xlink:href="#m" transform="matrix(1,0,0,1,65.5986530721338,454.34489497810745) translate(0 14.4)"/><path d="M540 520h230.76" fill="none"/><path d="M540 520h3m4.02 0h6.02m4.02 0h6.02m4 0h6.03m4.02 0h6.02m4.02 0h6.02m4 0h6.03m4.02 0h6.02m4.02 0h6.02m4 0h6.03m4.02 0h6.02m4.02 0h6.02m4 0h6.03m4.02 0h6.02m4.02 0h6m4.03 0h6m4.02 0h6.02m4 0h6.03m4.02 0h6m4.02 0h6.02m4 0h6.03m4.02 0h6m4.02 0h6.02m4 0h3.02" stroke="#000" stroke-width="2" fill="none"/><path d="M785.76 520l-14.26 4.64v-9.28z"/><path d="M789 520l-18.5 6v-12zm-16.5 3.26l10.03-3.26-10.03-3.26z"/><use xlink:href="#n" transform="matrix(1,0,0,1,604.6,494.40000000000003) translate(0 14.4)"/><path d="M820 580h280.76" stroke="#000" stroke-width="2" fill="none"/><path d="M1115.76 580l-14.26 4.64v-9.28z"/><path d="M1119 580l-18.5 6v-12zm-16.5 3.26l10.03-3.26-10.03-3.26z"/><use xlink:href="#o" transform="matrix(1,0,0,1,845.25,554.4) translate(0 14.4)"/><path d="M1161 618.46h279.76" fill="none"/><path d="M1161 618.46h3m4 0h6m4 0h5.98m4 0h6m4 0h5.98m4 0h6m4 0h6m3.98 0h6m4 0h6m4 0h5.98m4 0h6m4 0h5.98m4 0h6m4 0h6m3.98 0h6m4 0h5.99m4 0h6m4 0h5.98m4 0h6m4 0h6m3.98 0h6m4 0h6m4 0h5.98m4 0h6m4 0h6m4 0h6m3.98 0h6m4 0h6m4 0h2.98" stroke="#000" stroke-width="2" fill="none"/><path d="M1161 619.46h-1v-2h1zM1455.76 618.46l-14.26 4.64v-9.28z"/><path d="M1459 618.46l-18.5 6v-12zm-16.5 3.26l10.03-3.26-10.03-3.26z"/><use xlink:href="#p" transform="matrix(1,0,0,1,1260.075,592.8600991078317) translate(0 14.4)"/><path d="M100 700h1640v1280H100z" stroke="#000" stroke-width="2" fill="none"/><path d="M-220 700h120v60h-120z" stroke="#000" stroke-width="2" fill="#fff"/><use xlink:href="#q" transform="matrix(1,0,0,1,-215,705) translate(12.575000000000003 28.6)"/><path d="M1160 720h240v60h-240z" stroke="#000" stroke-opacity="0" stroke-width="2" fill="#fff" fill-opacity="0"/><use xlink:href="#r" transform="matrix(1,0,0,1,1165,725) translate(2.174999999999997 28.6)"/><use xlink:href="#d" transform="matrix(1,0,0,1,1165,725) translate(17.174999999999997 28.6)"/><use xlink:href="#s" transform="matrix(1,0,0,1,1165,725) translate(47.175 28.6)"/><use xlink:href="#t" transform="matrix(1,0,0,1,1165,725) translate(139.02500000000003 28.6)"/><use xlink:href="#u" transform="matrix(1,0,0,1,1165,725) translate(169.97500000000002 28.6)"/><path d="M1158.24 848.93h141.26v.44H1459" stroke="#000" stroke-width="2" fill="none"/><path d="M1143.24 848.93l14.26-4.63v9.27z" stroke="#000" stroke-width="2"/><use xlink:href="#v" transform="matrix(1,0,0,1,1219.1325187990594,823.3327354629694) translate(0 14.4)"/><path d="M838.24 922.47H1140" stroke="#000" stroke-width="2" fill="none"/><path d="M823.24 922.47l14.26-4.64v9.27z" stroke="#000" stroke-width="2"/><use xlink:href="#v" transform="matrix(1,0,0,1,899.625,896.8686281251895) translate(0 14.4)"/><path d="M558.24 979.9H680v.73h140" stroke="#000" stroke-width="2" fill="none"/><path d="M543.24 979.9l14.26-4.63v9.27z" stroke="#000" stroke-width="2"/><use xlink:href="#n" transform="matrix(1,0,0,1,620.1162695501133,954.3068229258657) translate(0 14.4)"/><path d="M1160 1040h240v60h-240z" stroke="#000" stroke-opacity="0" stroke-width="2" fill="#fff" fill-opacity="0"/><use xlink:href="#r" transform="matrix(1,0,0,1,1165,1045) translate(20.674999999999983 28.6)"/><use xlink:href="#s" transform="matrix(1,0,0,1,1165,1045) translate(35.67499999999998 28.6)"/><use xlink:href="#t" transform="matrix(1,0,0,1,1165,1045) translate(127.52499999999999 28.6)"/><use xlink:href="#w" transform="matrix(1,0,0,1,1165,1045) translate(158.475 28.6)"/><path d="M-60 1320h40v160h-40z" stroke="#000" stroke-width="2" fill="#fff"/><path d="M1158.24 1117.84h141.26v-1.9H1459" stroke="#000" stroke-width="2" fill="none"/><path d="M1143.24 1117.84l14.26-4.63v9.28z" stroke="#000" stroke-width="2"/><use xlink:href="#x" transform="matrix(1,0,0,1,1217.1181257974972,1090.3571351566604) translate(0 14.4)"/><path d="M859.24 1164.98H990.5v1H1140" stroke="#000" stroke-width="2" fill="none"/><path d="M858.5 1169.6l-14.26-4.62 14.26-4.64z"/><path d="M859.5 1171l-18.5-6.02 18.5-6zm-12.03-6.02l10.03 3.26v-6.52z"/><use xlink:href="#x" transform="matrix(1,0,0,1,908.167163032117,1139.3804131341053) translate(0 14.4)"/><path d="M-21.76 1219.8H379.5v-.25H799" stroke="#000" stroke-width="2" fill="none"/><path d="M-36.76 1219.8l14.26-4.63v9.27z" stroke="#000" stroke-width="2"/><path d="M800 1220.55h-1v-2h1z"/><use xlink:href="#y" transform="matrix(1,0,0,1,469.04711928678597,1193.9467872074129) translate(0 14.4)"/><path d="M21 1526.55h-42.76v-2H19v-22.1h2zm0-45.7h-2V1280h-58v39h-2v-41h62z"/><path d="M-39 1320h-2v-1h2zM-22.5 1530.2l-14.26-4.65 14.26-4.63z"/><path d="M-21.5 1531.56l-18.5-6 18.5-6.02zm-12.03-6l10.03 3.25v-6.5z"/><use xlink:href="#z" transform="matrix(1,0,0,1,-22.87499999999998,1480.8433587389934) translate(0 14.4)"/><path d="M-60 380h40v120h-40zM520 460h40v120h-40zM790 500h40v120h-40z" stroke="#000" stroke-width="2" fill="#fff"/><path d="M831 580h2.18" stroke="#000" stroke-width="2" fill="none"/><path d="M831 581h-1v-2h1z"/><path d="M1120 500h40v180h-40zM1460 580h40v80h-40zM1460 830h40v310h-40zM800 1140h40v140h-40z" stroke="#000" stroke-width="2" fill="#fff"/><path d="M1480 829v-40h60v397.16h-41.76" stroke="#000" stroke-width="2" fill="none"/><path d="M1481 830h-2v-1h2z"/><path d="M1483.24 1186.16l14.26-4.64v9.27z" stroke="#000" stroke-width="2"/><g><use xlink:href="#A" transform="matrix(1,0,0,1,1548,906.6141781955733) translate(0 14.4)"/><use xlink:href="#d" transform="matrix(1,0,0,1,1548,906.6141781955733) translate(63.85 14.4)"/><use xlink:href="#B" transform="matrix(1,0,0,1,1548,906.6141781955733) translate(93.85 14.4)"/></g><path d="M180 240h200v40H180z" stroke="#000" stroke-width="2" fill="#fff"/><g><use xlink:href="#C" transform="matrix(1,0,0,1,185,245) translate(66.05 18.6)"/></g><path d="M280 281v1639" stroke="#000" stroke-width="2" fill="none"/><path d="M281 281h-2v-1h2z"/><path d="M280 500h220.76" stroke="#000" stroke-width="2" fill="none"/><path d="M515.76 500l-14.26 4.64v-9.28z"/><path d="M519 500l-18.5 6v-12zm-16.5 3.26l10.03-3.26-10.03-3.26z"/><g><use xlink:href="#D" transform="matrix(1,0,0,1,355.55,474.4) translate(0 14.4)"/></g><defs><path d="M127-220V0H93v-220H8v-28h204v28h-85" id="E"/><path d="M100-194c62-1 85 37 85 99 1 63-27 99-86 99S16-35 15-95c0-66 28-99 85-99zM99-20c44 1 53-31 53-75 0-43-8-75-51-75s-53 32-53 75 10 74 51 75" id="F"/><g id="a"><use transform="matrix(0.05,0,0,0.05,0,0)" xlink:href="#E"/><use transform="matrix(0.05,0,0,0.05,8.950000000000001,0)" xlink:href="#F"/></g><path d="M24 0v-261h32V0H24" id="G"/><path d="M177-190C167-65 218 103 67 71c-23-6-38-20-44-43l32-5c15 47 100 32 89-28v-30C133-14 115 1 83 1 29 1 15-40 15-95c0-56 16-97 71-98 29-1 48 16 59 35 1-10 0-23 2-32h30zM94-22c36 0 50-32 50-73 0-42-14-75-50-75-39 0-46 34-46 75s6 73 46 73" id="H"/><path d="M24-231v-30h32v30H24zM24 0v-190h32V0H24" id="I"/><path d="M117-194c89-4 53 116 60 194h-32v-121c0-31-8-49-39-48C34-167 62-67 57 0H25l-1-190h30c1 10-1 24 2 32 11-22 29-35 61-36" id="J"/><g id="b"><use transform="matrix(0.05,0,0,0.05,0,0)" xlink:href="#G"/><use transform="matrix(0.05,0,0,0.05,3.95,0)" xlink:href="#F"/><use transform="matrix(0.05,0,0,0.05,13.949999999999998,0)" xlink:href="#H"/><use transform="matrix(0.05,0,0,0.05,23.95,0)" xlink:href="#I"/><use transform="matrix(0.05,0,0,0.05,27.899999999999995,0)" xlink:href="#J"/></g><path d="M59-47c-2 24 18 29 38 22v24C64 9 27 4 27-40v-127H5v-23h24l9-43h21v43h35v23H59v120" id="K"/><g id="c"><use transform="matrix(0.05,0,0,0.05,0,0)" xlink:href="#I"/><use transform="matrix(0.05,0,0,0.05,3.95,0)" xlink:href="#J"/><use transform="matrix(0.05,0,0,0.05,13.949999999999998,0)" xlink:href="#K"/><use transform="matrix(0.05,0,0,0.05,18.95,0)" xlink:href="#F"/></g><path d="M106-169C34-169 62-67 57 0H25v-261h32l-1 103c12-21 28-36 61-36 89 0 53 116 60 194h-32v-121c2-32-8-49-39-48" id="L"/><path d="M100-194c63 0 86 42 84 106H49c0 40 14 67 53 68 26 1 43-12 49-29l28 8c-11 28-37 45-77 45C44 4 14-33 15-96c1-61 26-98 85-98zm52 81c6-60-76-77-97-28-3 7-6 17-6 28h103" id="M"/><g id="d"><use transform="matrix(0.05,0,0,0.05,0,0)" xlink:href="#K"/><use transform="matrix(0.05,0,0,0.05,5,0)" xlink:href="#L"/><use transform="matrix(0.05,0,0,0.05,15,0)" xlink:href="#M"/></g><path d="M143 4C61 4 22-44 18-125c-5-107 100-154 193-111 17 8 29 25 37 43l-32 9c-13-25-37-40-76-40-61 0-88 39-88 99 0 61 29 100 91 101 35 0 62-11 79-27v-45h-74v-28h105v86C228-13 192 4 143 4" id="N"/><path d="M141-36C126-15 110 5 73 4 37 3 15-17 15-53c-1-64 63-63 125-63 3-35-9-54-41-54-24 1-41 7-42 31l-33-3c5-37 33-52 76-52 45 0 72 20 72 64v82c-1 20 7 32 28 27v20c-31 9-61-2-59-35zM48-53c0 20 12 33 32 33 41-3 63-29 60-74-43 2-92-5-92 41" id="O"/><path d="M210-169c-67 3-38 105-44 169h-31v-121c0-29-5-50-35-48C34-165 62-65 56 0H25l-1-190h30c1 10-1 24 2 32 10-44 99-50 107 0 11-21 27-35 58-36 85-2 47 119 55 194h-31v-121c0-29-5-49-35-48" id="P"/><g id="e"><use transform="matrix(0.05,0,0,0.05,0,0)" xlink:href="#N"/><use transform="matrix(0.05,0,0,0.05,14,0)" xlink:href="#O"/><use transform="matrix(0.05,0,0,0.05,24,0)" xlink:href="#P"/><use transform="matrix(0.05,0,0,0.05,38.95,0)" xlink:href="#M"/></g><path d="M33-154v-36h34v36H33zM33 0v-36h34V0H33" id="Q"/><path d="M63-220v92h138v28H63V0H30v-248h175v28H63" id="R"/><path d="M96-169c-40 0-48 33-48 73s9 75 48 75c24 0 41-14 43-38l32 2c-6 37-31 61-74 61-59 0-76-41-82-99-10-93 101-131 147-64 4 7 5 14 7 22l-32 3c-4-21-16-35-41-35" id="S"/><path d="M85-194c31 0 48 13 60 33l-1-100h32l1 261h-30c-2-10 0-23-3-31C134-8 116 4 85 4 32 4 16-35 15-94c0-66 23-100 70-100zm9 24c-40 0-46 34-46 75 0 40 6 74 45 74 42 0 51-32 51-76 0-42-9-74-50-73" id="T"/><path d="M212-179c-10-28-35-45-73-45-59 0-87 40-87 99 0 60 29 101 89 101 43 0 62-24 78-52l27 14C228-24 195 4 139 4 59 4 22-46 18-125c-6-104 99-153 187-111 19 9 31 26 39 46" id="U"/><path d="M114-163C36-179 61-72 57 0H25l-1-190h30c1 12-1 29 2 39 6-27 23-49 58-41v29" id="V"/><g id="f"><use transform="matrix(0.05,0,0,0.05,0,0)" xlink:href="#Q"/><use transform="matrix(0.05,0,0,0.05,5,0)" xlink:href="#R"/><use transform="matrix(0.05,0,0,0.05,15.950000000000001,0)" xlink:href="#O"/><use transform="matrix(0.05,0,0,0.05,25.950000000000003,0)" xlink:href="#S"/><use transform="matrix(0.05,0,0,0.05,34.95,0)" xlink:href="#O"/><use transform="matrix(0.05,0,0,0.05,44.95,0)" xlink:href="#T"/><use transform="matrix(0.05,0,0,0.05,54.95,0)" xlink:href="#M"/><use transform="matrix(0.05,0,0,0.05,64.95,0)" xlink:href="#U"/><use transform="matrix(0.05,0,0,0.05,77.9,0)" xlink:href="#F"/><use transform="matrix(0.05,0,0,0.05,87.9,0)" xlink:href="#J"/><use transform="matrix(0.05,0,0,0.05,97.9,0)" xlink:href="#K"/><use transform="matrix(0.05,0,0,0.05,102.9,0)" xlink:href="#V"/><use transform="matrix(0.05,0,0,0.05,108.85000000000001,0)" xlink:href="#F"/><use transform="matrix(0.05,0,0,0.05,118.85000000000001,0)" xlink:href="#G"/><use transform="matrix(0.05,0,0,0.05,122.80000000000001,0)" xlink:href="#G"/><use transform="matrix(0.05,0,0,0.05,126.75,0)" xlink:href="#M"/><use transform="matrix(0.05,0,0,0.05,136.75,0)" xlink:href="#V"/></g><path d="M185-189c-5-48-123-54-124 2 14 75 158 14 163 119 3 78-121 87-175 55-17-10-28-26-33-46l33-7c5 56 141 63 141-1 0-78-155-14-162-118-5-82 145-84 179-34 5 7 8 16 11 25" id="W"/><path d="M179-190L93 31C79 59 56 82 12 73V49c39 6 53-20 64-50L1-190h34L92-34l54-156h33" id="X"/><path d="M135-143c-3-34-86-38-87 0 15 53 115 12 119 90S17 21 10-45l28-5c4 36 97 45 98 0-10-56-113-15-118-90-4-57 82-63 122-42 12 7 21 19 24 35" id="Y"/><g id="g"><use transform="matrix(0.05,0,0,0.05,0,0)" xlink:href="#Q"/><use transform="matrix(0.05,0,0,0.05,5,0)" xlink:href="#W"/><use transform="matrix(0.05,0,0,0.05,17,0)" xlink:href="#X"/><use transform="matrix(0.05,0,0,0.05,26,0)" xlink:href="#Y"/><use transform="matrix(0.05,0,0,0.05,35,0)" xlink:href="#K"/><use transform="matrix(0.05,0,0,0.05,40,0)" xlink:href="#M"/><use transform="matrix(0.05,0,0,0.05,50,0)" xlink:href="#P"/><use transform="matrix(0.05,0,0,0.05,64.95,0)" xlink:href="#U"/><use transform="matrix(0.05,0,0,0.05,77.9,0)" xlink:href="#F"/><use transform="matrix(0.05,0,0,0.05,87.9,0)" xlink:href="#J"/><use transform="matrix(0.05,0,0,0.05,97.9,0)" xlink:href="#K"/><use transform="matrix(0.05,0,0,0.05,102.9,0)" xlink:href="#V"/><use transform="matrix(0.05,0,0,0.05,108.85000000000001,0)" xlink:href="#F"/><use transform="matrix(0.05,0,0,0.05,118.85000000000001,0)" xlink:href="#G"/><use transform="matrix(0.05,0,0,0.05,122.80000000000001,0)" xlink:href="#G"/><use transform="matrix(0.05,0,0,0.05,126.75,0)" xlink:href="#M"/><use transform="matrix(0.05,0,0,0.05,136.75,0)" xlink:href="#V"/></g><path d="M232-93c-1 65-40 97-104 97C67 4 28-28 28-90v-158h33c8 89-33 224 67 224 102 0 64-133 71-224h33v155" id="Z"/><g id="h"><use transform="matrix(0.05,0,0,0.05,0,0)" xlink:href="#Q"/><use transform="matrix(0.05,0,0,0.05,5,0)" xlink:href="#Z"/><use transform="matrix(0.05,0,0,0.05,17.950000000000003,0)" xlink:href="#Y"/><use transform="matrix(0.05,0,0,0.05,26.950000000000003,0)" xlink:href="#M"/><use transform="matrix(0.05,0,0,0.05,36.95,0)" xlink:href="#V"/><use transform="matrix(0.05,0,0,0.05,42.900000000000006,0)" xlink:href="#U"/><use transform="matrix(0.05,0,0,0.05,55.85,0)" xlink:href="#F"/><use transform="matrix(0.05,0,0,0.05,65.85000000000001,0)" xlink:href="#J"/><use transform="matrix(0.05,0,0,0.05,75.85000000000001,0)" xlink:href="#K"/><use transform="matrix(0.05,0,0,0.05,80.85000000000001,0)" xlink:href="#V"/><use transform="matrix(0.05,0,0,0.05,86.80000000000001,0)" xlink:href="#F"/><use transform="matrix(0.05,0,0,0.05,96.80000000000001,0)" xlink:href="#G"/><use transform="matrix(0.05,0,0,0.05,100.75000000000001,0)" xlink:href="#G"/><use transform="matrix(0.05,0,0,0.05,104.7,0)" xlink:href="#M"/><use transform="matrix(0.05,0,0,0.05,114.7,0)" xlink:href="#V"/></g><path d="M30-248c118-7 216 8 213 122C240-48 200 0 122 0H30v-248zM63-27c89 8 146-16 146-99s-60-101-146-95v194" id="aa"/><path d="M115-194c53 0 69 39 70 98 0 66-23 100-70 100C84 3 66-7 56-30L54 0H23l1-261h32v101c10-23 28-34 59-34zm-8 174c40 0 45-34 45-75 0-40-5-75-45-74-42 0-51 32-51 76 0 43 10 73 51 73" id="ab"/><g id="i"><use transform="matrix(0.05,0,0,0.05,0,0)" xlink:href="#Q"/><use transform="matrix(0.05,0,0,0.05,5,0)" xlink:href="#aa"/><use transform="matrix(0.05,0,0,0.05,17.950000000000003,0)" xlink:href="#O"/><use transform="matrix(0.05,0,0,0.05,27.950000000000003,0)" xlink:href="#K"/><use transform="matrix(0.05,0,0,0.05,32.95,0)" xlink:href="#O"/><use transform="matrix(0.05,0,0,0.05,42.95,0)" xlink:href="#ab"/><use transform="matrix(0.05,0,0,0.05,52.95,0)" xlink:href="#O"/><use transform="matrix(0.05,0,0,0.05,62.95,0)" xlink:href="#Y"/><use transform="matrix(0.05,0,0,0.05,71.95,0)" xlink:href="#M"/></g><g id="j"><use transform="matrix(0.05,0,0,0.05,0,0)" xlink:href="#Z"/><use transform="matrix(0.05,0,0,0.05,12.950000000000001,0)" xlink:href="#Y"/><use transform="matrix(0.05,0,0,0.05,21.950000000000003,0)" xlink:href="#M"/><use transform="matrix(0.05,0,0,0.05,31.950000000000003,0)" xlink:href="#V"/></g><path d="M30 0v-248h33v221h125V0H30" id="ac"/><g id="k"><use transform="matrix(0.05,0,0,0.05,0,0)" xlink:href="#ac"/><use transform="matrix(0.05,0,0,0.05,10,0)" xlink:href="#F"/><use transform="matrix(0.05,0,0,0.05,20,0)" xlink:href="#H"/><use transform="matrix(0.05,0,0,0.05,30,0)" xlink:href="#I"/><use transform="matrix(0.05,0,0,0.05,33.95,0)" xlink:href="#J"/></g><g id="l"><use transform="matrix(0.05,0,0,0.05,0,0)" xlink:href="#Q"/><use transform="matrix(0.05,0,0,0.05,5,0)" xlink:href="#U"/><use transform="matrix(0.05,0,0,0.05,17.950000000000003,0)" xlink:href="#G"/><use transform="matrix(0.05,0,0,0.05,21.900000000000002,0)" xlink:href="#I"/><use transform="matrix(0.05,0,0,0.05,25.85,0)" xlink:href="#M"/><use transform="matrix(0.05,0,0,0.05,35.85,0)" xlink:href="#J"/><use transform="matrix(0.05,0,0,0.05,45.85,0)" xlink:href="#K"/><use transform="matrix(0.05,0,0,0.05,50.85,0)" xlink:href="#ac"/><use transform="matrix(0.05,0,0,0.05,60.85,0)" xlink:href="#I"/><use transform="matrix(0.05,0,0,0.05,64.8,0)" xlink:href="#Y"/><use transform="matrix(0.05,0,0,0.05,73.8,0)" xlink:href="#K"/><use transform="matrix(0.05,0,0,0.05,78.8,0)" xlink:href="#M"/><use transform="matrix(0.05,0,0,0.05,88.8,0)" xlink:href="#J"/><use transform="matrix(0.05,0,0,0.05,98.8,0)" xlink:href="#M"/><use transform="matrix(0.05,0,0,0.05,108.80000000000001,0)" xlink:href="#V"/></g><path d="M206 0h-36l-40-164L89 0H53L-1-190h32L70-26l43-164h34l41 164 42-164h31" id="ad"/><path d="M87 75C49 33 22-17 22-94c0-76 28-126 65-167h31c-38 41-64 92-64 168S80 34 118 75H87" id="ae"/><path d="M33-261c38 41 65 92 65 168S71 34 33 75H2C39 34 66-17 66-93S39-220 2-261h31" id="af"/><g id="m"><use transform="matrix(0.05,0,0,0.05,0,0)" xlink:href="#J"/><use transform="matrix(0.05,0,0,0.05,10,0)" xlink:href="#M"/><use transform="matrix(0.05,0,0,0.05,20,0)" xlink:href="#ad"/><use transform="matrix(0.05,0,0,0.05,32.95,0)" xlink:href="#W"/><use transform="matrix(0.05,0,0,0.05,44.95,0)" xlink:href="#M"/><use transform="matrix(0.05,0,0,0.05,54.95,0)" xlink:href="#Y"/><use transform="matrix(0.05,0,0,0.05,63.95,0)" xlink:href="#Y"/><use transform="matrix(0.05,0,0,0.05,72.95,0)" xlink:href="#I"/><use transform="matrix(0.05,0,0,0.05,76.9,0)" xlink:href="#F"/><use transform="matrix(0.05,0,0,0.05,86.9,0)" xlink:href="#J"/><use transform="matrix(0.05,0,0,0.05,96.9,0)" xlink:href="#ae"/><use transform="matrix(0.05,0,0,0.05,102.85000000000001,0)" xlink:href="#af"/></g><path d="M108 0H70L1-190h34L89-25l56-165h34" id="ag"/><path d="M33 0v-248h34V0H33" id="ah"/><path d="M115-194c55 1 70 41 70 98S169 2 115 4C84 4 66-9 55-30l1 105H24l-1-265h31l2 30c10-21 28-34 59-34zm-8 174c40 0 45-34 45-75s-6-73-45-74c-42 0-51 32-51 76 0 43 10 73 51 73" id="ai"/><path d="M84 4C-5 8 30-112 23-190h32v120c0 31 7 50 39 49 72-2 45-101 50-169h31l1 190h-30c-1-10 1-25-2-33-11 22-28 36-60 37" id="aj"/><g id="n"><use transform="matrix(0.05,0,0,0.05,0,0)" xlink:href="#V"/><use transform="matrix(0.05,0,0,0.05,5.95,0)" xlink:href="#M"/><use transform="matrix(0.05,0,0,0.05,15.949999999999998,0)" xlink:href="#S"/><use transform="matrix(0.05,0,0,0.05,24.95,0)" xlink:href="#I"/><use transform="matrix(0.05,0,0,0.05,28.899999999999995,0)" xlink:href="#M"/><use transform="matrix(0.05,0,0,0.05,38.9,0)" xlink:href="#ag"/><use transform="matrix(0.05,0,0,0.05,47.9,0)" xlink:href="#M"/><use transform="matrix(0.05,0,0,0.05,57.900000000000006,0)" xlink:href="#T"/><use transform="matrix(0.05,0,0,0.05,67.9,0)" xlink:href="#ah"/><use transform="matrix(0.05,0,0,0.05,72.9,0)" xlink:href="#J"/><use transform="matrix(0.05,0,0,0.05,82.9,0)" xlink:href="#ai"/><use transform="matrix(0.05,0,0,0.05,92.9,0)" xlink:href="#aj"/><use transform="matrix(0.05,0,0,0.05,102.9,0)" xlink:href="#K"/><use transform="matrix(0.05,0,0,0.05,107.9,0)" xlink:href="#ae"/><use transform="matrix(0.05,0,0,0.05,113.85000000000001,0)" xlink:href="#af"/></g><path d="M143 0L79-87 56-68V0H24v-261h32v163l83-92h37l-77 82L181 0h-38" id="ak"/><path d="M68-38c1 34 0 65-14 84H32c9-13 17-26 17-46H33v-38h35" id="al"/><g id="o"><use transform="matrix(0.05,0,0,0.05,0,0)" xlink:href="#S"/><use transform="matrix(0.05,0,0,0.05,9,0)" xlink:href="#L"/><use transform="matrix(0.05,0,0,0.05,19,0)" xlink:href="#M"/><use transform="matrix(0.05,0,0,0.05,29,0)" xlink:href="#S"/><use transform="matrix(0.05,0,0,0.05,38,0)" xlink:href="#ak"/><use transform="matrix(0.05,0,0,0.05,47,0)" xlink:href="#U"/><use transform="matrix(0.05,0,0,0.05,59.95,0)" xlink:href="#V"/><use transform="matrix(0.05,0,0,0.05,65.9,0)" xlink:href="#M"/><use transform="matrix(0.05,0,0,0.05,75.9,0)" xlink:href="#T"/><use transform="matrix(0.05,0,0,0.05,85.9,0)" xlink:href="#M"/><use transform="matrix(0.05,0,0,0.05,95.9,0)" xlink:href="#J"/><use transform="matrix(0.05,0,0,0.05,105.9,0)" xlink:href="#K"/><use transform="matrix(0.05,0,0,0.05,110.9,0)" xlink:href="#I"/><use transform="matrix(0.05,0,0,0.05,114.85000000000001,0)" xlink:href="#O"/><use transform="matrix(0.05,0,0,0.05,124.85000000000001,0)" xlink:href="#G"/><use transform="matrix(0.05,0,0,0.05,128.8,0)" xlink:href="#Y"/><use transform="matrix(0.05,0,0,0.05,137.8,0)" xlink:href="#ae"/><use transform="matrix(0.05,0,0,0.05,143.75,0)" xlink:href="#W"/><use transform="matrix(0.05,0,0,0.05,155.75,0)" xlink:href="#K"/><use transform="matrix(0.05,0,0,0.05,160.75,0)" xlink:href="#V"/><use transform="matrix(0.05,0,0,0.05,166.7,0)" xlink:href="#I"/><use transform="matrix(0.05,0,0,0.05,170.64999999999998,0)" xlink:href="#J"/><use transform="matrix(0.05,0,0,0.05,180.64999999999998,0)" xlink:href="#H"/><use transform="matrix(0.05,0,0,0.05,190.64999999999998,0)" xlink:href="#al"/><use transform="matrix(0.05,0,0,0.05,195.64999999999998,0)" xlink:href="#W"/><use transform="matrix(0.05,0,0,0.05,207.64999999999998,0)" xlink:href="#K"/><use transform="matrix(0.05,0,0,0.05,212.64999999999998,0)" xlink:href="#V"/><use transform="matrix(0.05,0,0,0.05,218.59999999999997,0)" xlink:href="#I"/><use transform="matrix(0.05,0,0,0.05,222.54999999999995,0)" xlink:href="#J"/><use transform="matrix(0.05,0,0,0.05,232.54999999999995,0)" xlink:href="#H"/><use transform="matrix(0.05,0,0,0.05,242.54999999999995,0)" xlink:href="#af"/></g><path d="M140-251c81 0 123 46 123 126C263-53 228-8 163 1c7 30 30 48 69 40v23c-55 16-95-15-103-61C56-3 17-48 17-125c0-80 42-126 123-126zm0 227c63 0 89-41 89-101s-29-99-89-99c-61 0-89 39-89 99S79-25 140-24" id="am"/><g id="p"><use transform="matrix(0.05,0,0,0.05,0,0)" xlink:href="#Y"/><use transform="matrix(0.05,0,0,0.05,9,0)" xlink:href="#M"/><use transform="matrix(0.05,0,0,0.05,19,0)" xlink:href="#J"/><use transform="matrix(0.05,0,0,0.05,29,0)" xlink:href="#T"/><use transform="matrix(0.05,0,0,0.05,39,0)" xlink:href="#am"/><use transform="matrix(0.05,0,0,0.05,53,0)" xlink:href="#aj"/><use transform="matrix(0.05,0,0,0.05,63,0)" xlink:href="#M"/><use transform="matrix(0.05,0,0,0.05,73,0)" xlink:href="#V"/><use transform="matrix(0.05,0,0,0.05,78.95,0)" xlink:href="#X"/><use transform="matrix(0.05,0,0,0.05,87.95,0)" xlink:href="#ae"/><use transform="matrix(0.05,0,0,0.05,93.9,0)" xlink:href="#af"/></g><path d="M205 0l-28-72H64L36 0H1l101-248h38L239 0h-34zm-38-99l-47-123c-12 45-31 82-46 123h93" id="an"/><g id="q"><use transform="matrix(0.05,0,0,0.05,0,0)" xlink:href="#an"/><use transform="matrix(0.05,0,0,0.05,12,0)" xlink:href="#G"/><use transform="matrix(0.05,0,0,0.05,15.949999999999998,0)" xlink:href="#K"/><use transform="matrix(0.05,0,0,0.05,20.95,0)" xlink:href="#M"/><use transform="matrix(0.05,0,0,0.05,30.950000000000003,0)" xlink:href="#V"/><use transform="matrix(0.05,0,0,0.05,36.9,0)" xlink:href="#J"/><use transform="matrix(0.05,0,0,0.05,46.9,0)" xlink:href="#O"/><use transform="matrix(0.05,0,0,0.05,56.900000000000006,0)" xlink:href="#K"/><use transform="matrix(0.05,0,0,0.05,61.900000000000006,0)" xlink:href="#I"/><use transform="matrix(0.05,0,0,0.05,65.85,0)" xlink:href="#ag"/><use transform="matrix(0.05,0,0,0.05,74.85,0)" xlink:href="#M"/></g><path d="M101-234c-31-9-42 10-38 44h38v23H63V0H32v-167H5v-23h27c-7-52 17-82 69-68v24" id="ao"/><g id="r"><use transform="matrix(0.05,0,0,0.05,0,0)" xlink:href="#ah"/><use transform="matrix(0.05,0,0,0.05,5,0)" xlink:href="#ao"/></g><g id="s"><use transform="matrix(0.05,0,0,0.05,0,0)" xlink:href="#S"/><use transform="matrix(0.05,0,0,0.05,9,0)" xlink:href="#V"/><use transform="matrix(0.05,0,0,0.05,14.949999999999998,0)" xlink:href="#M"/><use transform="matrix(0.05,0,0,0.05,24.95,0)" xlink:href="#T"/><use transform="matrix(0.05,0,0,0.05,34.95,0)" xlink:href="#M"/><use transform="matrix(0.05,0,0,0.05,44.95,0)" xlink:href="#J"/><use transform="matrix(0.05,0,0,0.05,54.95,0)" xlink:href="#K"/><use transform="matrix(0.05,0,0,0.05,59.95,0)" xlink:href="#I"/><use transform="matrix(0.05,0,0,0.05,63.900000000000006,0)" xlink:href="#O"/><use transform="matrix(0.05,0,0,0.05,73.9,0)" xlink:href="#G"/><use transform="matrix(0.05,0,0,0.05,77.85000000000001,0)" xlink:href="#Y"/></g><g id="t"><use transform="matrix(0.05,0,0,0.05,0,0)" xlink:href="#O"/><use transform="matrix(0.05,0,0,0.05,10,0)" xlink:href="#V"/><use transform="matrix(0.05,0,0,0.05,15.949999999999998,0)" xlink:href="#M"/></g><g id="u"><use transform="matrix(0.05,0,0,0.05,0,0)" xlink:href="#ag"/><use transform="matrix(0.05,0,0,0.05,9,0)" xlink:href="#M"/><use transform="matrix(0.05,0,0,0.05,19,0)" xlink:href="#V"/><use transform="matrix(0.05,0,0,0.05,24.95,0)" xlink:href="#I"/><use transform="matrix(0.05,0,0,0.05,28.899999999999995,0)" xlink:href="#ao"/><use transform="matrix(0.05,0,0,0.05,33.9,0)" xlink:href="#I"/><use transform="matrix(0.05,0,0,0.05,37.85,0)" xlink:href="#M"/><use transform="matrix(0.05,0,0,0.05,47.85,0)" xlink:href="#T"/></g><path d="M27 0v-27h64v-190l-56 39v-29l58-41h29v221h61V0H27" id="ap"/><g id="v"><use transform="matrix(0.05,0,0,0.05,0,0)" xlink:href="#S"/><use transform="matrix(0.05,0,0,0.05,9,0)" xlink:href="#L"/><use transform="matrix(0.05,0,0,0.05,19,0)" xlink:href="#M"/><use transform="matrix(0.05,0,0,0.05,29,0)" xlink:href="#S"/><use transform="matrix(0.05,0,0,0.05,38,0)" xlink:href="#ak"/><use transform="matrix(0.05,0,0,0.05,47,0)" xlink:href="#S"/><use transform="matrix(0.05,0,0,0.05,56,0)" xlink:href="#V"/><use transform="matrix(0.05,0,0,0.05,61.95,0)" xlink:href="#M"/><use transform="matrix(0.05,0,0,0.05,71.95,0)" xlink:href="#T"/><use transform="matrix(0.05,0,0,0.05,81.95,0)" xlink:href="#M"/><use transform="matrix(0.05,0,0,0.05,91.95,0)" xlink:href="#J"/><use transform="matrix(0.05,0,0,0.05,101.95,0)" xlink:href="#K"/><use transform="matrix(0.05,0,0,0.05,106.95,0)" xlink:href="#I"/><use transform="matrix(0.05,0,0,0.05,110.9,0)" xlink:href="#O"/><use transform="matrix(0.05,0,0,0.05,120.9,0)" xlink:href="#G"/><use transform="matrix(0.05,0,0,0.05,124.85000000000001,0)" xlink:href="#Y"/><use transform="matrix(0.05,0,0,0.05,133.85000000000002,0)" xlink:href="#ae"/><use transform="matrix(0.05,0,0,0.05,139.8,0)" xlink:href="#af"/><use transform="matrix(0.05,0,0,0.05,145.75,0)" xlink:href="#Q"/><use transform="matrix(0.05,0,0,0.05,150.75,0)" xlink:href="#ap"/></g><g id="w"><use transform="matrix(0.05,0,0,0.05,0,0)" xlink:href="#I"/><use transform="matrix(0.05,0,0,0.05,3.95,0)" xlink:href="#J"/><use transform="matrix(0.05,0,0,0.05,13.949999999999998,0)" xlink:href="#ag"/><use transform="matrix(0.05,0,0,0.05,22.95,0)" xlink:href="#O"/><use transform="matrix(0.05,0,0,0.05,32.95,0)" xlink:href="#G"/><use transform="matrix(0.05,0,0,0.05,36.900000000000006,0)" xlink:href="#I"/><use transform="matrix(0.05,0,0,0.05,40.85000000000001,0)" xlink:href="#T"/></g><path d="M101-251c68 0 85 55 85 127S166 4 100 4C33 4 14-52 14-124c0-73 17-127 87-127zm-1 229c47 0 54-49 54-102s-4-102-53-102c-51 0-55 48-55 102 0 53 5 102 54 102" id="aq"/><g id="x"><use transform="matrix(0.05,0,0,0.05,0,0)" xlink:href="#S"/><use transform="matrix(0.05,0,0,0.05,9,0)" xlink:href="#L"/><use transform="matrix(0.05,0,0,0.05,19,0)" xlink:href="#M"/><use transform="matrix(0.05,0,0,0.05,29,0)" xlink:href="#S"/><use transform="matrix(0.05,0,0,0.05,38,0)" xlink:href="#ak"/><use transform="matrix(0.05,0,0,0.05,47,0)" xlink:href="#U"/><use transform="matrix(0.05,0,0,0.05,59.95,0)" xlink:href="#V"/><use transform="matrix(0.05,0,0,0.05,65.9,0)" xlink:href="#M"/><use transform="matrix(0.05,0,0,0.05,75.9,0)" xlink:href="#T"/><use transform="matrix(0.05,0,0,0.05,85.9,0)" xlink:href="#M"/><use transform="matrix(0.05,0,0,0.05,95.9,0)" xlink:href="#J"/><use transform="matrix(0.05,0,0,0.05,105.9,0)" xlink:href="#K"/><use transform="matrix(0.05,0,0,0.05,110.9,0)" xlink:href="#I"/><use transform="matrix(0.05,0,0,0.05,114.85000000000001,0)" xlink:href="#O"/><use transform="matrix(0.05,0,0,0.05,124.85000000000001,0)" xlink:href="#G"/><use transform="matrix(0.05,0,0,0.05,128.8,0)" xlink:href="#Y"/><use transform="matrix(0.05,0,0,0.05,137.8,0)" xlink:href="#ae"/><use transform="matrix(0.05,0,0,0.05,143.75,0)" xlink:href="#af"/><use transform="matrix(0.05,0,0,0.05,149.7,0)" xlink:href="#Q"/><use transform="matrix(0.05,0,0,0.05,154.7,0)" xlink:href="#aq"/></g><g id="y"><use transform="matrix(0.05,0,0,0.05,0,0)" xlink:href="#J"/><use transform="matrix(0.05,0,0,0.05,10,0)" xlink:href="#F"/><use transform="matrix(0.05,0,0,0.05,20,0)" xlink:href="#K"/><use transform="matrix(0.05,0,0,0.05,25,0)" xlink:href="#I"/><use transform="matrix(0.05,0,0,0.05,28.950000000000003,0)" xlink:href="#ao"/><use transform="matrix(0.05,0,0,0.05,33.95,0)" xlink:href="#X"/><use transform="matrix(0.05,0,0,0.05,42.95,0)" xlink:href="#ae"/><use transform="matrix(0.05,0,0,0.05,48.900000000000006,0)" xlink:href="#af"/></g><g id="z"><use transform="matrix(0.05,0,0,0.05,0,0)" xlink:href="#T"/><use transform="matrix(0.05,0,0,0.05,10,0)" xlink:href="#I"/><use transform="matrix(0.05,0,0,0.05,13.949999999999998,0)" xlink:href="#Y"/><use transform="matrix(0.05,0,0,0.05,22.95,0)" xlink:href="#ai"/><use transform="matrix(0.05,0,0,0.05,32.95,0)" xlink:href="#G"/><use transform="matrix(0.05,0,0,0.05,36.900000000000006,0)" xlink:href="#O"/><use transform="matrix(0.05,0,0,0.05,46.900000000000006,0)" xlink:href="#X"/><use transform="matrix(0.05,0,0,0.05,55.900000000000006,0)" xlink:href="#Z"/><use transform="matrix(0.05,0,0,0.05,68.85000000000001,0)" xlink:href="#ah"/><use transform="matrix(0.05,0,0,0.05,73.85000000000001,0)" xlink:href="#ae"/><use transform="matrix(0.05,0,0,0.05,79.80000000000001,0)" xlink:href="#af"/></g><path d="M137 0h-34L2-248h35l83 218 83-218h36" id="ar"/><g id="A"><use transform="matrix(0.05,0,0,0.05,0,0)" xlink:href="#ar"/><use transform="matrix(0.05,0,0,0.05,11,0)" xlink:href="#M"/><use transform="matrix(0.05,0,0,0.05,21,0)" xlink:href="#V"/><use transform="matrix(0.05,0,0,0.05,26.950000000000003,0)" xlink:href="#I"/><use transform="matrix(0.05,0,0,0.05,30.899999999999995,0)" xlink:href="#ao"/><use transform="matrix(0.05,0,0,0.05,35.9,0)" xlink:href="#I"/><use transform="matrix(0.05,0,0,0.05,39.85,0)" xlink:href="#M"/><use transform="matrix(0.05,0,0,0.05,49.85,0)" xlink:href="#Y"/></g><g id="B"><use transform="matrix(0.05,0,0,0.05,0,0)" xlink:href="#S"/><use transform="matrix(0.05,0,0,0.05,9,0)" xlink:href="#V"/><use transform="matrix(0.05,0,0,0.05,14.949999999999998,0)" xlink:href="#M"/><use transform="matrix(0.05,0,0,0.05,24.95,0)" xlink:href="#T"/><use transform="matrix(0.05,0,0,0.05,34.95,0)" xlink:href="#M"/><use transform="matrix(0.05,0,0,0.05,44.95,0)" xlink:href="#J"/><use transform="matrix(0.05,0,0,0.05,54.95,0)" xlink:href="#K"/><use transform="matrix(0.05,0,0,0.05,59.95,0)" xlink:href="#I"/><use transform="matrix(0.05,0,0,0.05,63.900000000000006,0)" xlink:href="#O"/><use transform="matrix(0.05,0,0,0.05,73.9,0)" xlink:href="#G"/><use transform="matrix(0.05,0,0,0.05,77.85000000000001,0)" xlink:href="#Y"/></g><g id="C"><use transform="matrix(0.05,0,0,0.05,0,0)" xlink:href="#Q"/><use transform="matrix(0.05,0,0,0.05,5,0)" xlink:href="#W"/><use transform="matrix(0.05,0,0,0.05,17,0)" xlink:href="#M"/><use transform="matrix(0.05,0,0,0.05,27,0)" xlink:href="#V"/><use transform="matrix(0.05,0,0,0.05,32.95,0)" xlink:href="#ag"/><use transform="matrix(0.05,0,0,0.05,41.95,0)" xlink:href="#M"/><use transform="matrix(0.05,0,0,0.05,51.95,0)" xlink:href="#V"/></g><g id="D"><use transform="matrix(0.05,0,0,0.05,0,0)" xlink:href="#H"/><use transform="matrix(0.05,0,0,0.05,10,0)" xlink:href="#M"/><use transform="matrix(0.05,0,0,0.05,20,0)" xlink:href="#K"/><use transform="matrix(0.05,0,0,0.05,25,0)" xlink:href="#W"/><use transform="matrix(0.05,0,0,0.05,37,0)" xlink:href="#K"/><use transform="matrix(0.05,0,0,0.05,42,0)" xlink:href="#O"/><use transform="matrix(0.05,0,0,0.05,52,0)" xlink:href="#K"/><use transform="matrix(0.05,0,0,0.05,57,0)" xlink:href="#aj"/><use transform="matrix(0.05,0,0,0.05,67,0)" xlink:href="#Y"/><use transform="matrix(0.05,0,0,0.05,76,0)" xlink:href="#ae"/><use transform="matrix(0.05,0,0,0.05,81.95,0)" xlink:href="#af"/></g></defs></g></svg>