<svg xmlns="http://www.w3.org/2000/svg" xmlns:xlink="http://www.w3.org/1999/xlink" xmlns:lucid="lucid" width="2248" height="1271"><g transform="translate(-40 -60)" lucid:page-tab-id="OjTnewT.5zky"><path d="M0 0h3456v1360H0z" fill="#fff"/><path d="M540 80h1480v80H540z" stroke="#000" stroke-width="2" fill="#fff"/><use xlink:href="#a" transform="matrix(1,0,0,1,545,85) translate(610.075 38.6)"/><use xlink:href="#b" transform="matrix(1,0,0,1,545,85) translate(657.075 38.6)"/><use xlink:href="#c" transform="matrix(1,0,0,1,545,85) translate(743.0250000000001 38.6)"/><use xlink:href="#d" transform="matrix(1,0,0,1,545,85) translate(763.0250000000001 38.6)"/><use xlink:href="#e" transform="matrix(1,0,0,1,545,85) translate(788.0250000000001 38.6)"/><path d="M1040 240h200v40h-200z" stroke="#000" stroke-width="2" fill="#fff"/><use xlink:href="#f" transform="matrix(1,0,0,1,1045,245) translate(48.12499999999999 18.6)"/><path d="M1360 240h200v40h-200z" stroke="#000" stroke-width="2" fill="#fff"/><use xlink:href="#g" transform="matrix(1,0,0,1,1365,245) translate(12.649999999999991 18.6)"/><use xlink:href="#h" transform="matrix(1,0,0,1,1365,245) translate(99.6 18.6)"/><path d="M1680 240h200v40h-200z" stroke="#000" stroke-width="2" fill="#fff"/><use xlink:href="#i" transform="matrix(1,0,0,1,1685,245) translate(23.650000000000006 18.6)"/><path d="M1980 240h200v40h-200z" stroke="#000" stroke-width="2" fill="#fff"/><use xlink:href="#j" transform="matrix(1,0,0,1,1985,245) translate(29.14999999999999 18.6)"/><path d="M1140 281v1039" stroke="#000" stroke-width="2" fill="none"/><path d="M1141 281h-2v-1h2z"/><path d="M1460 281v1019" stroke="#000" stroke-width="3" fill="none"/><path d="M1461.5 281h-3v-1h3z"/><path d="M1780 281v999" stroke="#000" stroke-width="2" fill="none"/><path d="M1781 281h-2v-1h2z"/><path d="M2080 281v1019" stroke="#000" stroke-width="2" fill="none"/><path d="M2081 281h-2v-1h2z"/><path d="M99.75 289.75c0 5.38-4.37 9.75-9.75 9.75s-9.75-4.37-9.75-9.75S84.62 280 90 280s9.75 4.37 9.75 9.75z" stroke="#000" stroke-width="2" fill="#fff"/><path d="M60 280h60v78H60z" fill="none"/><path d="M90 299.5v27.3l30 31.2m-30-31.2L60 358m0-48.75h60" stroke="#000" stroke-width="2" fill="none"/><use xlink:href="#k" transform="matrix(1,0,0,1,-20,358) translate(84.55 14.6)"/><path d="M91.7 330h229.06M91.7 330h-3" stroke="#000" stroke-width="2" fill="none"/><path d="M335.76 330l-14.26 4.64v-9.28z"/><path d="M339 330l-18.5 6v-12zm-16.5 3.26l10.03-3.26-10.03-3.26z"/><use xlink:href="#l" transform="matrix(1,0,0,1,143.4448197026603,304.4) translate(0 14.4)"/><path d="M1161 419.26h259.76" stroke="#000" stroke-width="2" fill="none"/><path d="M1161 420.26h-1v-2h1zM1435.76 419.26l-14.26 4.63v-9.28z"/><path d="M1439 419.26l-18.5 6v-12zm-16.5 3.26l10.03-3.26-10.03-3.26z"/><use xlink:href="#m" transform="matrix(1,0,0,1,1224.075,393.6580211825676) translate(0 14.4)"/><path d="M1480 560h120v40h-120z" stroke="#000" stroke-opacity="0" stroke-width="2" fill="#fff" fill-opacity="0"/><use xlink:href="#n" transform="matrix(1,0,0,1,1485,565) translate(10 18.6)"/><use xlink:href="#o" transform="matrix(1,0,0,1,1485,565) translate(25 18.6)"/><path d="M1478.24 637.52H1780" fill="none"/><path d="M1478.24 637.52h3m4.04 0h6.03m4.04 0h6.03m4.02 0h6.03m4.02 0h6.04m4 0h6.05m4.02 0h6.04m4.03 0h6.04m4.02 0h6.02m4.03 0h6.03m4.03 0h6.04m4.03 0h6.03m4.02 0h6.04m4.02 0h6.04m4.02 0h6.04m4.02 0h6.04m4.02 0h6.03m4.02 0h6.03m4.03 0h6.03m4.04 0h6.03m4.02 0h6.03m4.02 0h6.04m4 0h6.05m4.02 0h6.04m4.03 0h6.03m4.03 0h6.02m4.03 0h6.03m4.03 0h6.04m4.02 0h6.04m4.02 0h6.04m4.02 0h3.02" stroke="#000" stroke-width="2" fill="none"/><path d="M1463.24 637.52l14.26-4.63v9.26z" stroke="#000" stroke-width="2"/><use xlink:href="#p" transform="matrix(1,0,0,1,1547.625,611.9208082733534) translate(0 14.4)"/><path d="M1460 695.85h280.76" stroke="#000" stroke-width="2" fill="none"/><path d="M1755.76 695.85l-14.26 4.64v-9.28z"/><path d="M1759 695.85l-18.5 6.02v-12.03zm-16.5 3.26l10.03-3.25-10.03-3.25z"/><use xlink:href="#q" transform="matrix(1,0,0,1,1528.9552942222033,670.2543511206509) translate(0 14.4)"/><path d="M1801 751.85h239.76" stroke="#000" stroke-width="2" fill="none"/><path d="M1801 752.85h-1v-2h1zM2055.76 751.85l-14.26 4.64v-9.28z"/><path d="M2059 751.85l-18.5 6.02v-12.03zm-16.5 3.26l10.03-3.25-10.03-3.25z"/><use xlink:href="#r" transform="matrix(1,0,0,1,1856.65,726.2545522540565) translate(0 14.4)"/><path d="M1340 540h928v760h-928zM1481 480.57h149.5v-.16h131.26" stroke="#000" stroke-width="2" fill="none"/><path d="M1481 481.57h-1v-2h1z"/><path d="M1776.76 480.4l-14.26 4.64v-9.27z" stroke="#000" stroke-width="2"/><use xlink:href="#s" transform="matrix(1,0,0,1,1558.1218511330806,454.80937304162643) translate(0 14.4)"/><path d="M1340 540h80v60h-80z" stroke="#000" stroke-width="2" fill="#fff"/><use xlink:href="#t" transform="matrix(1,0,0,1,1345,545) translate(-0.9500000000000028 28.6)"/><path d="M1480 980h100v50h-100z" stroke="#000" stroke-opacity="0" stroke-width="2" fill="#fff" fill-opacity="0"/><use xlink:href="#n" transform="matrix(1,0,0,1,1485,985) translate(2.049999999999997 23.6)"/><use xlink:href="#u" transform="matrix(1,0,0,1,1485,985) translate(17.049999999999997 23.6)"/><path d="M1179.24 1080.32H1759" stroke="#000" stroke-width="2" fill="none"/><path d="M1178.5 1084.96l-14.26-4.64 14.26-4.63z"/><path d="M1179.5 1086.33l-18.5-6 18.5-6.02zm-12.03-6l10.03 3.25v-6.52zM1760 1081.32h-1v-2h1z"/><use xlink:href="#v" transform="matrix(1,0,0,1,1580.7131092746004,1054.722911439705) translate(0 14.4)"/><path d="M260 240h200v40H260z" stroke="#000" stroke-width="2" fill="#fff"/><use xlink:href="#w" transform="matrix(1,0,0,1,265,245) translate(23.650000000000006 18.6)"/><path d="M360 281v999" stroke="#000" stroke-width="2" fill="none"/><path d="M361 281h-2v-1h2z"/><path d="M920 400.5h180.76" stroke="#000" stroke-width="2" fill="none"/><path d="M1115.76 400.5l-14.26 4.64v-9.27z"/><path d="M1119 400.5l-18.5 6v-12zm-16.5 3.26l10.03-3.26-10.03-3.26z"/><use xlink:href="#m" transform="matrix(1,0,0,1,943.575,374.9007200188922) translate(0 14.4)"/><path d="M340 320h40v60h-40zM1120 340h40v120h-40zM1440 400h40v120h-40zM2060 740h40v120h-40z" stroke="#000" stroke-width="2" fill="#fff"/><path d="M2080 739v-40h60v186.22h-41.76" stroke="#000" stroke-width="2" fill="none"/><path d="M2081 740h-2v-1h2z"/><path d="M2083.24 885.22l14.26-4.64v9.27z" stroke="#000" stroke-width="2"/><use xlink:href="#x" transform="matrix(1,0,0,1,2148,731.7097113736238) translate(0 14.4)"/><path d="M1760 1040h40v120h-40zM1760 600h40v60h-40zM1760 680h40v120h-40zM1120 1060h40v120h-40z" stroke="#000" stroke-width="2" fill="#fff"/><path d="M378.24 1076.4H739.5v-.25H1119" stroke="#000" stroke-width="2" fill="none"/><path d="M363.24 1076.4l14.26-4.62v9.27z" stroke="#000" stroke-width="2"/><path d="M1120 1077.15h-1v-2h1z"/><use xlink:href="#v" transform="matrix(1,0,0,1,712.0640522323437,1050.5535385353699) translate(0 14.4)"/><path d="M340 1120h40v120h-40z" stroke="#000" stroke-width="2" fill="#fff"/><path d="M360 1119v-19h70v162.43h-51.76" stroke="#000" stroke-width="2" fill="none"/><path d="M361 1120h-2v-1h2z"/><path d="M363.24 1262.43l14.26-4.63v9.27z" stroke="#000" stroke-width="2"/><use xlink:href="#y" transform="matrix(1,0,0,1,437.99999999999994,1161.1775784427539) translate(0 14.4)"/><path d="M1440 680h40v60h-40zM580 240h200v40H580z" stroke="#000" stroke-width="2" fill="#fff"/><use xlink:href="#z" transform="matrix(1,0,0,1,585,245) translate(66.05 18.6)"/><path d="M680 281v999" stroke="#000" stroke-width="2" fill="none"/><path d="M681 281h-2v-1h2z"/><path d="M660 320h40v120h-40z" stroke="#000" stroke-width="2" fill="#fff"/><path d="M380 360h260.76" stroke="#000" stroke-width="2" fill="none"/><path d="M655.76 360l-14.26 4.64v-9.28z"/><path d="M659 360l-18.5 6v-12zm-16.5 3.26l10.03-3.26-10.03-3.26z"/><use xlink:href="#A" transform="matrix(1,0,0,1,475.55,334.4) translate(0 14.4)"/><path d="M820 240h200v40H820z" stroke="#000" stroke-width="2" fill="#fff"/><g><use xlink:href="#B" transform="matrix(1,0,0,1,825,245) translate(37.625 18.6)"/></g><path d="M920 281v979" stroke="#000" stroke-width="2" fill="none"/><path d="M921 281h-2v-1h2z"/><path d="M700 360h110v.92h91.76" stroke="#000" stroke-width="2" fill="none"/><path d="M916.76 360.92l-14.26 4.63v-9.27z" stroke="#000" stroke-width="2"/><g><use xlink:href="#C" transform="matrix(1,0,0,1,750.1205575231938,334.40185603877393) translate(0 14.4)"/></g><defs><path d="M185-189c-5-48-123-54-124 2 14 75 158 14 163 119 3 78-121 87-175 55-17-10-28-26-33-46l33-7c5 56 141 63 141-1 0-78-155-14-162-118-5-82 145-84 179-34 5 7 8 16 11 25" id="D"/><path d="M100-194c63 0 86 42 84 106H49c0 40 14 67 53 68 26 1 43-12 49-29l28 8c-11 28-37 45-77 45C44 4 14-33 15-96c1-61 26-98 85-98zm52 81c6-60-76-77-97-28-3 7-6 17-6 28h103" id="E"/><path d="M117-194c89-4 53 116 60 194h-32v-121c0-31-8-49-39-48C34-167 62-67 57 0H25l-1-190h30c1 10-1 24 2 32 11-22 29-35 61-36" id="F"/><path d="M85-194c31 0 48 13 60 33l-1-100h32l1 261h-30c-2-10 0-23-3-31C134-8 116 4 85 4 32 4 16-35 15-94c0-66 23-100 70-100zm9 24c-40 0-46 34-46 75 0 40 6 74 45 74 42 0 51-32 51-76 0-42-9-74-50-73" id="G"/><g id="a"><use transform="matrix(0.05,0,0,0.05,0,0)" xlink:href="#D"/><use transform="matrix(0.05,0,0,0.05,12,0)" xlink:href="#E"/><use transform="matrix(0.05,0,0,0.05,22,0)" xlink:href="#F"/><use transform="matrix(0.05,0,0,0.05,32,0)" xlink:href="#G"/></g><path d="M233-177c-1 41-23 64-60 70L243 0h-38l-65-103H63V0H30v-248c88 3 205-21 203 71zM63-129c60-2 137 13 137-47 0-61-80-42-137-45v92" id="H"/><path d="M135-143c-3-34-86-38-87 0 15 53 115 12 119 90S17 21 10-45l28-5c4 36 97 45 98 0-10-56-113-15-118-90-4-57 82-63 122-42 12 7 21 19 24 35" id="I"/><path d="M115-194c55 1 70 41 70 98S169 2 115 4C84 4 66-9 55-30l1 105H24l-1-265h31l2 30c10-21 28-34 59-34zm-8 174c40 0 45-34 45-75s-6-73-45-74c-42 0-51 32-51 76 0 43 10 73 51 73" id="J"/><path d="M100-194c62-1 85 37 85 99 1 63-27 99-86 99S16-35 15-95c0-66 28-99 85-99zM99-20c44 1 53-31 53-75 0-43-8-75-51-75s-53 32-53 75 10 74 51 75" id="K"/><g id="b"><use transform="matrix(0.05,0,0,0.05,0,0)" xlink:href="#H"/><use transform="matrix(0.05,0,0,0.05,12.950000000000001,0)" xlink:href="#E"/><use transform="matrix(0.05,0,0,0.05,22.950000000000003,0)" xlink:href="#I"/><use transform="matrix(0.05,0,0,0.05,31.950000000000003,0)" xlink:href="#J"/><use transform="matrix(0.05,0,0,0.05,41.95,0)" xlink:href="#K"/><use transform="matrix(0.05,0,0,0.05,51.95,0)" xlink:href="#F"/><use transform="matrix(0.05,0,0,0.05,61.95,0)" xlink:href="#I"/><use transform="matrix(0.05,0,0,0.05,70.95,0)" xlink:href="#E"/></g><path d="M59-47c-2 24 18 29 38 22v24C64 9 27 4 27-40v-127H5v-23h24l9-43h21v43h35v23H59v120" id="L"/><g id="c"><use transform="matrix(0.05,0,0,0.05,0,0)" xlink:href="#L"/><use transform="matrix(0.05,0,0,0.05,5,0)" xlink:href="#K"/></g><path d="M141-36C126-15 110 5 73 4 37 3 15-17 15-53c-1-64 63-63 125-63 3-35-9-54-41-54-24 1-41 7-42 31l-33-3c5-37 33-52 76-52 45 0 72 20 72 64v82c-1 20 7 32 28 27v20c-31 9-61-2-59-35zM48-53c0 20 12 33 32 33 41-3 63-29 60-74-43 2-92-5-92 41" id="M"/><g id="d"><use transform="matrix(0.05,0,0,0.05,0,0)" xlink:href="#M"/><use transform="matrix(0.05,0,0,0.05,10,0)" xlink:href="#F"/></g><path d="M33 0v-248h34V0H33" id="N"/><path d="M108 0H70L1-190h34L89-25l56-165h34" id="O"/><path d="M24-231v-30h32v30H24zM24 0v-190h32V0H24" id="P"/><g id="e"><use transform="matrix(0.05,0,0,0.05,0,0)" xlink:href="#N"/><use transform="matrix(0.05,0,0,0.05,5,0)" xlink:href="#F"/><use transform="matrix(0.05,0,0,0.05,15,0)" xlink:href="#O"/><use transform="matrix(0.05,0,0,0.05,24,0)" xlink:href="#P"/><use transform="matrix(0.05,0,0,0.05,27.950000000000003,0)" xlink:href="#L"/><use transform="matrix(0.05,0,0,0.05,32.95,0)" xlink:href="#M"/><use transform="matrix(0.05,0,0,0.05,42.95,0)" xlink:href="#L"/><use transform="matrix(0.05,0,0,0.05,47.95,0)" xlink:href="#P"/><use transform="matrix(0.05,0,0,0.05,51.900000000000006,0)" xlink:href="#K"/><use transform="matrix(0.05,0,0,0.05,61.900000000000006,0)" xlink:href="#F"/></g><path d="M33-154v-36h34v36H33zM33 0v-36h34V0H33" id="Q"/><path d="M232-93c-1 65-40 97-104 97C67 4 28-28 28-90v-158h33c8 89-33 224 67 224 102 0 64-133 71-224h33v155" id="R"/><path d="M114-163C36-179 61-72 57 0H25l-1-190h30c1 12-1 29 2 39 6-27 23-49 58-41v29" id="S"/><path d="M30-248c87 1 191-15 191 75 0 78-77 80-158 76V0H30v-248zm33 125c57 0 124 11 124-50 0-59-68-47-124-48v98" id="T"/><path d="M101-234c-31-9-42 10-38 44h38v23H63V0H32v-167H5v-23h27c-7-52 17-82 69-68v24" id="U"/><path d="M24 0v-261h32V0H24" id="V"/><g id="f"><use transform="matrix(0.05,0,0,0.05,0,0)" xlink:href="#Q"/><use transform="matrix(0.05,0,0,0.05,5,0)" xlink:href="#R"/><use transform="matrix(0.05,0,0,0.05,17.950000000000003,0)" xlink:href="#I"/><use transform="matrix(0.05,0,0,0.05,26.950000000000003,0)" xlink:href="#E"/><use transform="matrix(0.05,0,0,0.05,36.95,0)" xlink:href="#S"/><use transform="matrix(0.05,0,0,0.05,42.900000000000006,0)" xlink:href="#T"/><use transform="matrix(0.05,0,0,0.05,54.900000000000006,0)" xlink:href="#S"/><use transform="matrix(0.05,0,0,0.05,60.85,0)" xlink:href="#K"/><use transform="matrix(0.05,0,0,0.05,70.85000000000001,0)" xlink:href="#U"/><use transform="matrix(0.05,0,0,0.05,75.85000000000001,0)" xlink:href="#P"/><use transform="matrix(0.05,0,0,0.05,79.80000000000001,0)" xlink:href="#V"/><use transform="matrix(0.05,0,0,0.05,83.75000000000001,0)" xlink:href="#E"/></g><path d="M30-248c118-7 216 8 213 122C240-48 200 0 122 0H30v-248zM63-27c89 8 146-16 146-99s-60-101-146-95v194" id="W"/><path d="M115-194c53 0 69 39 70 98 0 66-23 100-70 100C84 3 66-7 56-30L54 0H23l1-261h32v101c10-23 28-34 59-34zm-8 174c40 0 45-34 45-75 0-40-5-75-45-74-42 0-51 32-51 76 0 43 10 73 51 73" id="X"/><g id="g"><use transform="matrix(0.05,0,0,0.05,0,0)" xlink:href="#Q"/><use transform="matrix(0.05,0,0,0.05,5,0)" xlink:href="#W"/><use transform="matrix(0.05,0,0,0.05,17.950000000000003,0)" xlink:href="#M"/><use transform="matrix(0.05,0,0,0.05,27.950000000000003,0)" xlink:href="#L"/><use transform="matrix(0.05,0,0,0.05,32.95,0)" xlink:href="#M"/><use transform="matrix(0.05,0,0,0.05,42.95,0)" xlink:href="#X"/><use transform="matrix(0.05,0,0,0.05,52.95,0)" xlink:href="#M"/><use transform="matrix(0.05,0,0,0.05,62.95,0)" xlink:href="#I"/><use transform="matrix(0.05,0,0,0.05,71.95,0)" xlink:href="#E"/></g><path d="M212-179c-10-28-35-45-73-45-59 0-87 40-87 99 0 60 29 101 89 101 43 0 62-24 78-52l27 14C228-24 195 4 139 4 59 4 22-46 18-125c-6-104 99-153 187-111 19 9 31 26 39 46" id="Y"/><g id="h"><use transform="matrix(0.05,0,0,0.05,0,0)" xlink:href="#Y"/><use transform="matrix(0.05,0,0,0.05,12.950000000000001,0)" xlink:href="#K"/><use transform="matrix(0.05,0,0,0.05,22.950000000000003,0)" xlink:href="#F"/><use transform="matrix(0.05,0,0,0.05,32.95,0)" xlink:href="#L"/><use transform="matrix(0.05,0,0,0.05,37.95,0)" xlink:href="#S"/><use transform="matrix(0.05,0,0,0.05,43.900000000000006,0)" xlink:href="#K"/><use transform="matrix(0.05,0,0,0.05,53.900000000000006,0)" xlink:href="#V"/><use transform="matrix(0.05,0,0,0.05,57.85,0)" xlink:href="#V"/><use transform="matrix(0.05,0,0,0.05,61.80000000000001,0)" xlink:href="#E"/><use transform="matrix(0.05,0,0,0.05,71.80000000000001,0)" xlink:href="#S"/></g><path d="M179-190L93 31C79 59 56 82 12 73V49c39 6 53-20 64-50L1-190h34L92-34l54-156h33" id="Z"/><path d="M210-169c-67 3-38 105-44 169h-31v-121c0-29-5-50-35-48C34-165 62-65 56 0H25l-1-190h30c1 10-1 24 2 32 10-44 99-50 107 0 11-21 27-35 58-36 85-2 47 119 55 194h-31v-121c0-29-5-49-35-48" id="aa"/><g id="i"><use transform="matrix(0.05,0,0,0.05,0,0)" xlink:href="#Q"/><use transform="matrix(0.05,0,0,0.05,5,0)" xlink:href="#D"/><use transform="matrix(0.05,0,0,0.05,17,0)" xlink:href="#Z"/><use transform="matrix(0.05,0,0,0.05,26,0)" xlink:href="#I"/><use transform="matrix(0.05,0,0,0.05,35,0)" xlink:href="#L"/><use transform="matrix(0.05,0,0,0.05,40,0)" xlink:href="#E"/><use transform="matrix(0.05,0,0,0.05,50,0)" xlink:href="#aa"/><use transform="matrix(0.05,0,0,0.05,64.95,0)" xlink:href="#Y"/><use transform="matrix(0.05,0,0,0.05,77.9,0)" xlink:href="#K"/><use transform="matrix(0.05,0,0,0.05,87.9,0)" xlink:href="#F"/><use transform="matrix(0.05,0,0,0.05,97.9,0)" xlink:href="#L"/><use transform="matrix(0.05,0,0,0.05,102.9,0)" xlink:href="#S"/><use transform="matrix(0.05,0,0,0.05,108.85000000000001,0)" xlink:href="#K"/><use transform="matrix(0.05,0,0,0.05,118.85000000000001,0)" xlink:href="#V"/><use transform="matrix(0.05,0,0,0.05,122.80000000000001,0)" xlink:href="#V"/><use transform="matrix(0.05,0,0,0.05,126.75,0)" xlink:href="#E"/><use transform="matrix(0.05,0,0,0.05,136.75,0)" xlink:href="#S"/></g><path d="M240 0l2-218c-23 76-54 145-80 218h-23L58-218 59 0H30v-248h44l77 211c21-75 51-140 76-211h43V0h-30" id="ab"/><path d="M96-169c-40 0-48 33-48 73s9 75 48 75c24 0 41-14 43-38l32 2c-6 37-31 61-74 61-59 0-76-41-82-99-10-93 101-131 147-64 4 7 5 14 7 22l-32 3c-4-21-16-35-41-35" id="ac"/><path d="M106-169C34-169 62-67 57 0H25v-261h32l-1 103c12-21 28-36 61-36 89 0 53 116 60 194h-32v-121c2-32-8-49-39-48" id="ad"/><g id="j"><use transform="matrix(0.05,0,0,0.05,0,0)" xlink:href="#Q"/><use transform="matrix(0.05,0,0,0.05,5,0)" xlink:href="#ab"/><use transform="matrix(0.05,0,0,0.05,19.950000000000003,0)" xlink:href="#M"/><use transform="matrix(0.05,0,0,0.05,29.950000000000003,0)" xlink:href="#L"/><use transform="matrix(0.05,0,0,0.05,34.95,0)" xlink:href="#ac"/><use transform="matrix(0.05,0,0,0.05,43.95,0)" xlink:href="#ad"/><use transform="matrix(0.05,0,0,0.05,53.95,0)" xlink:href="#Y"/><use transform="matrix(0.05,0,0,0.05,66.9,0)" xlink:href="#K"/><use transform="matrix(0.05,0,0,0.05,76.9,0)" xlink:href="#F"/><use transform="matrix(0.05,0,0,0.05,86.9,0)" xlink:href="#L"/><use transform="matrix(0.05,0,0,0.05,91.9,0)" xlink:href="#S"/><use transform="matrix(0.05,0,0,0.05,97.85000000000001,0)" xlink:href="#K"/><use transform="matrix(0.05,0,0,0.05,107.85000000000001,0)" xlink:href="#V"/><use transform="matrix(0.05,0,0,0.05,111.80000000000001,0)" xlink:href="#V"/><use transform="matrix(0.05,0,0,0.05,115.75,0)" xlink:href="#E"/><use transform="matrix(0.05,0,0,0.05,125.75,0)" xlink:href="#S"/></g><g id="k"><use transform="matrix(0.05,0,0,0.05,0,0)" xlink:href="#T"/><use transform="matrix(0.05,0,0,0.05,12,0)" xlink:href="#V"/><use transform="matrix(0.05,0,0,0.05,15.949999999999998,0)" xlink:href="#M"/><use transform="matrix(0.05,0,0,0.05,25.950000000000003,0)" xlink:href="#Z"/><use transform="matrix(0.05,0,0,0.05,34.95,0)" xlink:href="#E"/><use transform="matrix(0.05,0,0,0.05,44.95,0)" xlink:href="#S"/></g><path d="M87 75C49 33 22-17 22-94c0-76 28-126 65-167h31c-38 41-64 92-64 168S80 34 118 75H87" id="ae"/><path d="M33-261c38 41 65 92 65 168S71 34 33 75H2C39 34 66-17 66-93S39-220 2-261h31" id="af"/><g id="l"><use transform="matrix(0.05,0,0,0.05,0,0)" xlink:href="#S"/><use transform="matrix(0.05,0,0,0.05,5.95,0)" xlink:href="#E"/><use transform="matrix(0.05,0,0,0.05,15.949999999999998,0)" xlink:href="#I"/><use transform="matrix(0.05,0,0,0.05,24.95,0)" xlink:href="#J"/><use transform="matrix(0.05,0,0,0.05,34.95,0)" xlink:href="#K"/><use transform="matrix(0.05,0,0,0.05,44.95,0)" xlink:href="#F"/><use transform="matrix(0.05,0,0,0.05,54.95,0)" xlink:href="#G"/><use transform="matrix(0.05,0,0,0.05,64.95,0)" xlink:href="#L"/><use transform="matrix(0.05,0,0,0.05,69.95,0)" xlink:href="#K"/><use transform="matrix(0.05,0,0,0.05,79.95,0)" xlink:href="#N"/><use transform="matrix(0.05,0,0,0.05,84.95,0)" xlink:href="#F"/><use transform="matrix(0.05,0,0,0.05,94.95,0)" xlink:href="#O"/><use transform="matrix(0.05,0,0,0.05,103.95,0)" xlink:href="#P"/><use transform="matrix(0.05,0,0,0.05,107.9,0)" xlink:href="#L"/><use transform="matrix(0.05,0,0,0.05,112.9,0)" xlink:href="#E"/><use transform="matrix(0.05,0,0,0.05,122.9,0)" xlink:href="#I"/><use transform="matrix(0.05,0,0,0.05,131.9,0)" xlink:href="#ae"/><use transform="matrix(0.05,0,0,0.05,137.85,0)" xlink:href="#af"/></g><path d="M177-190C167-65 218 103 67 71c-23-6-38-20-44-43l32-5c15 47 100 32 89-28v-30C133-14 115 1 83 1 29 1 15-40 15-95c0-56 16-97 71-98 29-1 48 16 59 35 1-10 0-23 2-32h30zM94-22c36 0 50-32 50-73 0-42-14-75-50-75-39 0-46 34-46 75s6 73 46 73" id="ag"/><g id="m"><use transform="matrix(0.05,0,0,0.05,0,0)" xlink:href="#ag"/><use transform="matrix(0.05,0,0,0.05,10,0)" xlink:href="#E"/><use transform="matrix(0.05,0,0,0.05,20,0)" xlink:href="#L"/><use transform="matrix(0.05,0,0,0.05,25,0)" xlink:href="#H"/><use transform="matrix(0.05,0,0,0.05,37.95,0)" xlink:href="#E"/><use transform="matrix(0.05,0,0,0.05,47.95,0)" xlink:href="#ac"/><use transform="matrix(0.05,0,0,0.05,56.95,0)" xlink:href="#P"/><use transform="matrix(0.05,0,0,0.05,60.900000000000006,0)" xlink:href="#E"/><use transform="matrix(0.05,0,0,0.05,70.9,0)" xlink:href="#O"/><use transform="matrix(0.05,0,0,0.05,79.9,0)" xlink:href="#E"/><use transform="matrix(0.05,0,0,0.05,89.9,0)" xlink:href="#G"/><use transform="matrix(0.05,0,0,0.05,99.9,0)" xlink:href="#N"/><use transform="matrix(0.05,0,0,0.05,104.9,0)" xlink:href="#F"/><use transform="matrix(0.05,0,0,0.05,114.9,0)" xlink:href="#O"/><use transform="matrix(0.05,0,0,0.05,123.9,0)" xlink:href="#P"/><use transform="matrix(0.05,0,0,0.05,127.85000000000001,0)" xlink:href="#L"/><use transform="matrix(0.05,0,0,0.05,132.85000000000002,0)" xlink:href="#E"/><use transform="matrix(0.05,0,0,0.05,142.85000000000002,0)" xlink:href="#I"/></g><g id="n"><use transform="matrix(0.05,0,0,0.05,0,0)" xlink:href="#N"/><use transform="matrix(0.05,0,0,0.05,5,0)" xlink:href="#U"/></g><path d="M205 0l-28-72H64L36 0H1l101-248h38L239 0h-34zm-38-99l-47-123c-12 45-31 82-46 123h93" id="ah"/><g id="o"><use transform="matrix(0.05,0,0,0.05,0,0)" xlink:href="#ah"/><use transform="matrix(0.05,0,0,0.05,12,0)" xlink:href="#ac"/><use transform="matrix(0.05,0,0,0.05,21,0)" xlink:href="#ac"/><use transform="matrix(0.05,0,0,0.05,30,0)" xlink:href="#E"/><use transform="matrix(0.05,0,0,0.05,40,0)" xlink:href="#J"/><use transform="matrix(0.05,0,0,0.05,50,0)" xlink:href="#L"/><use transform="matrix(0.05,0,0,0.05,55,0)" xlink:href="#E"/><use transform="matrix(0.05,0,0,0.05,65,0)" xlink:href="#G"/></g><g id="p"><use transform="matrix(0.05,0,0,0.05,0,0)" xlink:href="#ag"/><use transform="matrix(0.05,0,0,0.05,10,0)" xlink:href="#E"/><use transform="matrix(0.05,0,0,0.05,20,0)" xlink:href="#L"/><use transform="matrix(0.05,0,0,0.05,25,0)" xlink:href="#D"/><use transform="matrix(0.05,0,0,0.05,37,0)" xlink:href="#E"/><use transform="matrix(0.05,0,0,0.05,47,0)" xlink:href="#V"/><use transform="matrix(0.05,0,0,0.05,50.95,0)" xlink:href="#E"/><use transform="matrix(0.05,0,0,0.05,60.95,0)" xlink:href="#ac"/><use transform="matrix(0.05,0,0,0.05,69.95,0)" xlink:href="#L"/><use transform="matrix(0.05,0,0,0.05,74.95,0)" xlink:href="#E"/><use transform="matrix(0.05,0,0,0.05,84.95,0)" xlink:href="#G"/><use transform="matrix(0.05,0,0,0.05,94.95,0)" xlink:href="#R"/><use transform="matrix(0.05,0,0,0.05,107.9,0)" xlink:href="#I"/><use transform="matrix(0.05,0,0,0.05,116.9,0)" xlink:href="#E"/><use transform="matrix(0.05,0,0,0.05,126.9,0)" xlink:href="#S"/><use transform="matrix(0.05,0,0,0.05,132.85,0)" xlink:href="#ae"/><use transform="matrix(0.05,0,0,0.05,138.79999999999998,0)" xlink:href="#af"/></g><g id="q"><use transform="matrix(0.05,0,0,0.05,0,0)" xlink:href="#M"/><use transform="matrix(0.05,0,0,0.05,10,0)" xlink:href="#I"/><use transform="matrix(0.05,0,0,0.05,19,0)" xlink:href="#I"/><use transform="matrix(0.05,0,0,0.05,28,0)" xlink:href="#P"/><use transform="matrix(0.05,0,0,0.05,31.950000000000003,0)" xlink:href="#ag"/><use transform="matrix(0.05,0,0,0.05,41.95,0)" xlink:href="#F"/><use transform="matrix(0.05,0,0,0.05,51.95,0)" xlink:href="#T"/><use transform="matrix(0.05,0,0,0.05,63.95,0)" xlink:href="#V"/><use transform="matrix(0.05,0,0,0.05,67.9,0)" xlink:href="#M"/><use transform="matrix(0.05,0,0,0.05,77.9,0)" xlink:href="#Z"/><use transform="matrix(0.05,0,0,0.05,86.9,0)" xlink:href="#E"/><use transform="matrix(0.05,0,0,0.05,96.9,0)" xlink:href="#S"/><use transform="matrix(0.05,0,0,0.05,102.85000000000001,0)" xlink:href="#ae"/><use transform="matrix(0.05,0,0,0.05,108.80000000000001,0)" xlink:href="#af"/></g><path d="M190 0L58-211 59 0H30v-248h39L202-35l-2-213h31V0h-41" id="ai"/><path d="M206 0h-36l-40-164L89 0H53L-1-190h32L70-26l43-164h34l41 164 42-164h31" id="aj"/><g id="r"><use transform="matrix(0.05,0,0,0.05,0,0)" xlink:href="#ac"/><use transform="matrix(0.05,0,0,0.05,9,0)" xlink:href="#S"/><use transform="matrix(0.05,0,0,0.05,14.949999999999998,0)" xlink:href="#E"/><use transform="matrix(0.05,0,0,0.05,24.95,0)" xlink:href="#M"/><use transform="matrix(0.05,0,0,0.05,34.95,0)" xlink:href="#L"/><use transform="matrix(0.05,0,0,0.05,39.95,0)" xlink:href="#E"/><use transform="matrix(0.05,0,0,0.05,49.95,0)" xlink:href="#ai"/><use transform="matrix(0.05,0,0,0.05,62.900000000000006,0)" xlink:href="#E"/><use transform="matrix(0.05,0,0,0.05,72.9,0)" xlink:href="#aj"/><use transform="matrix(0.05,0,0,0.05,85.85000000000001,0)" xlink:href="#ab"/><use transform="matrix(0.05,0,0,0.05,100.80000000000001,0)" xlink:href="#M"/><use transform="matrix(0.05,0,0,0.05,110.80000000000001,0)" xlink:href="#L"/><use transform="matrix(0.05,0,0,0.05,115.80000000000001,0)" xlink:href="#ac"/><use transform="matrix(0.05,0,0,0.05,124.80000000000001,0)" xlink:href="#ad"/><use transform="matrix(0.05,0,0,0.05,134.8,0)" xlink:href="#ae"/><use transform="matrix(0.05,0,0,0.05,140.75,0)" xlink:href="#af"/></g><path d="M127-220V0H93v-220H8v-28h204v28h-85" id="ak"/><g id="s"><use transform="matrix(0.05,0,0,0.05,0,0)" xlink:href="#S"/><use transform="matrix(0.05,0,0,0.05,5.95,0)" xlink:href="#E"/><use transform="matrix(0.05,0,0,0.05,15.949999999999998,0)" xlink:href="#I"/><use transform="matrix(0.05,0,0,0.05,24.95,0)" xlink:href="#J"/><use transform="matrix(0.05,0,0,0.05,34.95,0)" xlink:href="#K"/><use transform="matrix(0.05,0,0,0.05,44.95,0)" xlink:href="#F"/><use transform="matrix(0.05,0,0,0.05,54.95,0)" xlink:href="#G"/><use transform="matrix(0.05,0,0,0.05,64.95,0)" xlink:href="#ak"/><use transform="matrix(0.05,0,0,0.05,73.9,0)" xlink:href="#K"/><use transform="matrix(0.05,0,0,0.05,83.9,0)" xlink:href="#ab"/><use transform="matrix(0.05,0,0,0.05,98.85000000000001,0)" xlink:href="#M"/><use transform="matrix(0.05,0,0,0.05,108.85000000000001,0)" xlink:href="#L"/><use transform="matrix(0.05,0,0,0.05,113.85000000000001,0)" xlink:href="#ac"/><use transform="matrix(0.05,0,0,0.05,122.85000000000001,0)" xlink:href="#ad"/><use transform="matrix(0.05,0,0,0.05,132.85000000000002,0)" xlink:href="#ae"/><use transform="matrix(0.05,0,0,0.05,138.8,0)" xlink:href="#af"/></g><g id="t"><use transform="matrix(0.05,0,0,0.05,0,0)" xlink:href="#ah"/><use transform="matrix(0.05,0,0,0.05,12,0)" xlink:href="#V"/><use transform="matrix(0.05,0,0,0.05,15.949999999999998,0)" xlink:href="#L"/><use transform="matrix(0.05,0,0,0.05,20.95,0)" xlink:href="#E"/><use transform="matrix(0.05,0,0,0.05,30.950000000000003,0)" xlink:href="#S"/><use transform="matrix(0.05,0,0,0.05,36.9,0)" xlink:href="#F"/><use transform="matrix(0.05,0,0,0.05,46.9,0)" xlink:href="#M"/><use transform="matrix(0.05,0,0,0.05,56.900000000000006,0)" xlink:href="#L"/><use transform="matrix(0.05,0,0,0.05,61.900000000000006,0)" xlink:href="#E"/></g><path d="M24-231v-30h32v30H24zM-9 49c24 4 33-6 33-30v-209h32V24c2 40-23 58-65 49V49" id="al"/><g id="u"><use transform="matrix(0.05,0,0,0.05,0,0)" xlink:href="#H"/><use transform="matrix(0.05,0,0,0.05,12.950000000000001,0)" xlink:href="#E"/><use transform="matrix(0.05,0,0,0.05,22.950000000000003,0)" xlink:href="#al"/><use transform="matrix(0.05,0,0,0.05,26.900000000000002,0)" xlink:href="#E"/><use transform="matrix(0.05,0,0,0.05,36.900000000000006,0)" xlink:href="#ac"/><use transform="matrix(0.05,0,0,0.05,45.900000000000006,0)" xlink:href="#L"/><use transform="matrix(0.05,0,0,0.05,50.900000000000006,0)" xlink:href="#E"/><use transform="matrix(0.05,0,0,0.05,60.900000000000006,0)" xlink:href="#G"/></g><g id="v"><use transform="matrix(0.05,0,0,0.05,0,0)" xlink:href="#F"/><use transform="matrix(0.05,0,0,0.05,10,0)" xlink:href="#K"/><use transform="matrix(0.05,0,0,0.05,20,0)" xlink:href="#L"/><use transform="matrix(0.05,0,0,0.05,25,0)" xlink:href="#P"/><use transform="matrix(0.05,0,0,0.05,28.950000000000003,0)" xlink:href="#U"/><use transform="matrix(0.05,0,0,0.05,33.95,0)" xlink:href="#Z"/><use transform="matrix(0.05,0,0,0.05,42.95,0)" xlink:href="#ae"/><use transform="matrix(0.05,0,0,0.05,48.900000000000006,0)" xlink:href="#af"/></g><path d="M63-220v92h138v28H63V0H30v-248h175v28H63" id="am"/><g id="w"><use transform="matrix(0.05,0,0,0.05,0,0)" xlink:href="#Q"/><use transform="matrix(0.05,0,0,0.05,5,0)" xlink:href="#am"/><use transform="matrix(0.05,0,0,0.05,15.950000000000001,0)" xlink:href="#M"/><use transform="matrix(0.05,0,0,0.05,25.950000000000003,0)" xlink:href="#ac"/><use transform="matrix(0.05,0,0,0.05,34.95,0)" xlink:href="#M"/><use transform="matrix(0.05,0,0,0.05,44.95,0)" xlink:href="#G"/><use transform="matrix(0.05,0,0,0.05,54.95,0)" xlink:href="#E"/><use transform="matrix(0.05,0,0,0.05,64.95,0)" xlink:href="#Y"/><use transform="matrix(0.05,0,0,0.05,77.9,0)" xlink:href="#K"/><use transform="matrix(0.05,0,0,0.05,87.9,0)" xlink:href="#F"/><use transform="matrix(0.05,0,0,0.05,97.9,0)" xlink:href="#L"/><use transform="matrix(0.05,0,0,0.05,102.9,0)" xlink:href="#S"/><use transform="matrix(0.05,0,0,0.05,108.85000000000001,0)" xlink:href="#K"/><use transform="matrix(0.05,0,0,0.05,118.85000000000001,0)" xlink:href="#V"/><use transform="matrix(0.05,0,0,0.05,122.80000000000001,0)" xlink:href="#V"/><use transform="matrix(0.05,0,0,0.05,126.75,0)" xlink:href="#E"/><use transform="matrix(0.05,0,0,0.05,136.75,0)" xlink:href="#S"/></g><g id="x"><use transform="matrix(0.05,0,0,0.05,0,0)" xlink:href="#I"/><use transform="matrix(0.05,0,0,0.05,9,0)" xlink:href="#L"/><use transform="matrix(0.05,0,0,0.05,14,0)" xlink:href="#M"/><use transform="matrix(0.05,0,0,0.05,24,0)" xlink:href="#S"/><use transform="matrix(0.05,0,0,0.05,29.950000000000003,0)" xlink:href="#L"/><use transform="matrix(0.05,0,0,0.05,34.95,0)" xlink:href="#ab"/><use transform="matrix(0.05,0,0,0.05,49.900000000000006,0)" xlink:href="#M"/><use transform="matrix(0.05,0,0,0.05,59.900000000000006,0)" xlink:href="#L"/><use transform="matrix(0.05,0,0,0.05,64.9,0)" xlink:href="#ac"/><use transform="matrix(0.05,0,0,0.05,73.9,0)" xlink:href="#ad"/><use transform="matrix(0.05,0,0,0.05,83.9,0)" xlink:href="#ae"/><use transform="matrix(0.05,0,0,0.05,89.85000000000001,0)" xlink:href="#af"/></g><g id="y"><use transform="matrix(0.05,0,0,0.05,0,0)" xlink:href="#G"/><use transform="matrix(0.05,0,0,0.05,10,0)" xlink:href="#P"/><use transform="matrix(0.05,0,0,0.05,13.949999999999998,0)" xlink:href="#I"/><use transform="matrix(0.05,0,0,0.05,22.95,0)" xlink:href="#J"/><use transform="matrix(0.05,0,0,0.05,32.95,0)" xlink:href="#V"/><use transform="matrix(0.05,0,0,0.05,36.900000000000006,0)" xlink:href="#M"/><use transform="matrix(0.05,0,0,0.05,46.900000000000006,0)" xlink:href="#Z"/><use transform="matrix(0.05,0,0,0.05,55.900000000000006,0)" xlink:href="#R"/><use transform="matrix(0.05,0,0,0.05,68.85000000000001,0)" xlink:href="#N"/><use transform="matrix(0.05,0,0,0.05,73.85000000000001,0)" xlink:href="#ae"/><use transform="matrix(0.05,0,0,0.05,79.80000000000001,0)" xlink:href="#af"/></g><g id="z"><use transform="matrix(0.05,0,0,0.05,0,0)" xlink:href="#Q"/><use transform="matrix(0.05,0,0,0.05,5,0)" xlink:href="#D"/><use transform="matrix(0.05,0,0,0.05,17,0)" xlink:href="#E"/><use transform="matrix(0.05,0,0,0.05,27,0)" xlink:href="#S"/><use transform="matrix(0.05,0,0,0.05,32.95,0)" xlink:href="#O"/><use transform="matrix(0.05,0,0,0.05,41.95,0)" xlink:href="#E"/><use transform="matrix(0.05,0,0,0.05,51.95,0)" xlink:href="#S"/></g><path d="M84 4C-5 8 30-112 23-190h32v120c0 31 7 50 39 49 72-2 45-101 50-169h31l1 190h-30c-1-10 1-25-2-33-11 22-28 36-60 37" id="an"/><g id="A"><use transform="matrix(0.05,0,0,0.05,0,0)" xlink:href="#ag"/><use transform="matrix(0.05,0,0,0.05,10,0)" xlink:href="#E"/><use transform="matrix(0.05,0,0,0.05,20,0)" xlink:href="#L"/><use transform="matrix(0.05,0,0,0.05,25,0)" xlink:href="#D"/><use transform="matrix(0.05,0,0,0.05,37,0)" xlink:href="#L"/><use transform="matrix(0.05,0,0,0.05,42,0)" xlink:href="#M"/><use transform="matrix(0.05,0,0,0.05,52,0)" xlink:href="#L"/><use transform="matrix(0.05,0,0,0.05,57,0)" xlink:href="#an"/><use transform="matrix(0.05,0,0,0.05,67,0)" xlink:href="#I"/><use transform="matrix(0.05,0,0,0.05,76,0)" xlink:href="#ae"/><use transform="matrix(0.05,0,0,0.05,81.95,0)" xlink:href="#af"/></g><path d="M30 0v-248h33v221h125V0H30" id="ao"/><g id="B"><use transform="matrix(0.05,0,0,0.05,0,0)" xlink:href="#Q"/><use transform="matrix(0.05,0,0,0.05,5,0)" xlink:href="#Y"/><use transform="matrix(0.05,0,0,0.05,17.950000000000003,0)" xlink:href="#V"/><use transform="matrix(0.05,0,0,0.05,21.900000000000002,0)" xlink:href="#P"/><use transform="matrix(0.05,0,0,0.05,25.85,0)" xlink:href="#E"/><use transform="matrix(0.05,0,0,0.05,35.85,0)" xlink:href="#F"/><use transform="matrix(0.05,0,0,0.05,45.85,0)" xlink:href="#L"/><use transform="matrix(0.05,0,0,0.05,50.85,0)" xlink:href="#ao"/><use transform="matrix(0.05,0,0,0.05,60.85,0)" xlink:href="#P"/><use transform="matrix(0.05,0,0,0.05,64.8,0)" xlink:href="#I"/><use transform="matrix(0.05,0,0,0.05,73.8,0)" xlink:href="#L"/><use transform="matrix(0.05,0,0,0.05,78.8,0)" xlink:href="#E"/><use transform="matrix(0.05,0,0,0.05,88.8,0)" xlink:href="#F"/><use transform="matrix(0.05,0,0,0.05,98.8,0)" xlink:href="#E"/><use transform="matrix(0.05,0,0,0.05,108.80000000000001,0)" xlink:href="#S"/></g><g id="C"><use transform="matrix(0.05,0,0,0.05,0,0)" xlink:href="#S"/><use transform="matrix(0.05,0,0,0.05,5.95,0)" xlink:href="#E"/><use transform="matrix(0.05,0,0,0.05,15.949999999999998,0)" xlink:href="#ac"/><use transform="matrix(0.05,0,0,0.05,24.95,0)" xlink:href="#P"/><use transform="matrix(0.05,0,0,0.05,28.899999999999995,0)" xlink:href="#E"/><use transform="matrix(0.05,0,0,0.05,38.9,0)" xlink:href="#O"/><use transform="matrix(0.05,0,0,0.05,47.9,0)" xlink:href="#E"/><use transform="matrix(0.05,0,0,0.05,57.900000000000006,0)" xlink:href="#G"/><use transform="matrix(0.05,0,0,0.05,67.9,0)" xlink:href="#N"/><use transform="matrix(0.05,0,0,0.05,72.9,0)" xlink:href="#F"/><use transform="matrix(0.05,0,0,0.05,82.9,0)" xlink:href="#J"/><use transform="matrix(0.05,0,0,0.05,92.9,0)" xlink:href="#an"/><use transform="matrix(0.05,0,0,0.05,102.9,0)" xlink:href="#L"/><use transform="matrix(0.05,0,0,0.05,107.9,0)" xlink:href="#ae"/><use transform="matrix(0.05,0,0,0.05,113.85000000000001,0)" xlink:href="#af"/></g></defs></g></svg>