<svg xmlns="http://www.w3.org/2000/svg" xmlns:xlink="http://www.w3.org/1999/xlink" xmlns:lucid="lucid" width="1080" height="674"><g transform="translate(-280 -470)" lucid:page-tab-id="0_0"><path d="M404 780h240v60H404z" fill="none"/><use xlink:href="#a" transform="matrix(1,0,0,1,404,780) translate(116.5 33.6)"/><path d="M760 490h200v136H760z" fill="#fff"/><path d="M760 490h200v136H760zM760 530h200" stroke="#000" stroke-width="2" fill="none"/><use xlink:href="#b" transform="matrix(1,0,0,1,770,490) translate(27.624999999999993 24.266666666666666)"/><use xlink:href="#c" transform="matrix(1,0,0,1,765,532.5) translate(0 17.1)"/><use xlink:href="#d" transform="matrix(1,0,0,1,765,564.5) translate(0 17.1)"/><use xlink:href="#e" transform="matrix(1,0,0,1,765,596.5) translate(0 17.1)"/><path d="M1140 490h200v168h-200z" fill="#fff"/><path d="M1140 490h200v168h-200zM1140 530h200" stroke="#000" stroke-width="2" fill="none"/><use xlink:href="#f" transform="matrix(1,0,0,1,1150,490) translate(30.574999999999996 23.6)"/><use xlink:href="#g" transform="matrix(1,0,0,1,1145,532.5) translate(0 17.1)"/><use xlink:href="#h" transform="matrix(1,0,0,1,1145,564.5) translate(0 17.1)"/><use xlink:href="#i" transform="matrix(1,0,0,1,1145,596.5) translate(0 17.1)"/><use xlink:href="#j" transform="matrix(1,0,0,1,1145,628.5) translate(0 17.1)"/><path d="M300 798.67h200v104H300z" fill="#fff"/><path d="M300 798.67h200v104H300zM300 838.67h200" stroke="#000" stroke-width="2" fill="none"/><use xlink:href="#k" transform="matrix(1,0,0,1,310,798.6666666666666) translate(65.525 23.6)"/><use xlink:href="#h" transform="matrix(1,0,0,1,305,841.1666666666666) translate(0 17.1)"/><use xlink:href="#l" transform="matrix(1,0,0,1,305,873.1666666666666) translate(0 17.1)"/><path d="M300 491.33h200v136H300z" fill="#fff"/><path d="M300 491.33h200v136H300zM300 531.33h200" stroke="#000" stroke-width="2" fill="none"/><use xlink:href="#m" transform="matrix(1,0,0,1,310,491.33333333333337) translate(68.525 23.6)"/><use xlink:href="#n" transform="matrix(1,0,0,1,305,533.8333333333334) translate(0 17.1)"/><use xlink:href="#o" transform="matrix(1,0,0,1,305,565.8333333333334) translate(0 17.1)"/><use xlink:href="#p" transform="matrix(1,0,0,1,305,597.8333333333334) translate(0 17.1)"/><path d="M501 547.33h129V546h129" stroke="#000" stroke-width="2" fill="none"/><path d="M501 548.33h-1v-2h1zM760 547h-1v-2h1z"/><path d="M510 500h240v60H510z" fill="none"/><use xlink:href="#q" transform="matrix(1,0,0,1,510,500) translate(17 33.6)"/><use xlink:href="#r" transform="matrix(1,0,0,1,510,500) translate(94 33.6)"/><use xlink:href="#s" transform="matrix(1,0,0,1,510,500) translate(213 33.6)"/><path d="M401 797.67h-2v-87.54h2zm0-109.14h-2v-60.2h2zM401 798.67h-2v-1h2z"/><path d="M401 628.33h-2v-1h2z"/><use xlink:href="#t" transform="matrix(1,0,0,1,357.55,688.5333333333334) translate(0 14.4)"/><path d="M632.74 819.67H501v-2h131.74zm148.26 0h-56.4v-2H779V627h2zM501 819.67h-1v-2h1zM781 627h-2v-1h2z"/><use xlink:href="#u" transform="matrix(1,0,0,1,632.7416666666667,807.8666666666667) translate(0 14.4)"/><path d="M680 620h240v60H680z" fill="none"/><use xlink:href="#v" transform="matrix(1,0,0,1,680,620) translate(105 33.6)"/><path d="M1032.05 547H961v-2h71.05zm106.95 0h-71.05v-2H1139zM961 547h-1v-2h1zM1140 547h-1v-2h1z"/><use xlink:href="#w" transform="matrix(1,0,0,1,1032.05,535.2) translate(0 14.4)"/><path d="M1000 500h240v60h-240z" fill="none"/><use xlink:href="#a" transform="matrix(1,0,0,1,1000,500) translate(116.5 33.6)"/><path d="M860 500h240v60H860z" fill="none"/><use xlink:href="#x" transform="matrix(1,0,0,1,860,500) translate(115 33.6)"/><path d="M780 876.67h200v72H780z" fill="#fff"/><path d="M780 876.67h200v72H780zM780 916.67h200" stroke="#000" stroke-width="2" fill="none"/><use xlink:href="#y" transform="matrix(1,0,0,1,790,876.6666666666666) translate(71.875 23.6)"/><use xlink:href="#z" transform="matrix(1,0,0,1,785,919.1666666666666) translate(0 17.1)"/><path d="M881 875.67h-2V738.13h2zm0-159.14h-2V627h2zM881 876.67h-2v-1h2zM881 627h-2v-1h2z"/><use xlink:href="#A" transform="matrix(1,0,0,1,865.5,716.5302134359692) translate(0 14.4)"/><path d="M641 895.5h138v2H639v-11.1h2zm0-30.7h-2v-9.13H501v-2h140zM780 897.5h-1v-2h1zM501 855.67h-1v-2h1z"/><use xlink:href="#B" transform="matrix(1,0,0,1,609.025,864.7866666666666) translate(0 14.4)"/><path d="M641 1077.04H501v-2h138V983.4h2zm138-143.17H641v27.92h-2v-29.93h140zM780 933.87h-1v-2h1zM501 1077.04h-1v-2h1z"/><use xlink:href="#C" transform="matrix(1,0,0,1,613.525,961.7933579335794) translate(0 14.4)"/><path d="M404 816.67h240v60H404z" fill="none"/><use xlink:href="#x" transform="matrix(1,0,0,1,404,816.6666666666666) translate(115 33.6)"/><path d="M644 860h240v60H644z" fill="none"/><use xlink:href="#a" transform="matrix(1,0,0,1,644,860) translate(116.5 33.6)"/><path d="M504 1040h36v37.67h-36z" fill="none"/><use xlink:href="#D" transform="matrix(1,0,0,1,504,1040) translate(3 22.6)"/><path d="M644 888.67h240v60H644z" fill="none"/><use xlink:href="#a" transform="matrix(1,0,0,1,644,888.6666666666666) translate(116.5 33.6)"/><path d="M502 614.83h129v-.12h129" stroke="#000" stroke-width="2" fill="none"/><path d="M510 567.5h240v60H510z" fill="none"/><use xlink:href="#E" transform="matrix(1,0,0,1,510,567.5) translate(20.049999999999997 33.6)"/><use xlink:href="#F" transform="matrix(1,0,0,1,510,567.5) translate(87.05 33.6)"/><use xlink:href="#s" transform="matrix(1,0,0,1,510,567.5) translate(209.95 33.6)"/><path d="M300 1020h200v104H300z" fill="#fff"/><path d="M300 1020h200v104H300zM300 1060h200" stroke="#000" stroke-width="2" fill="none"/><use xlink:href="#G" transform="matrix(1,0,0,1,310,1020) translate(43.05 23.6)"/><use xlink:href="#H" transform="matrix(1,0,0,1,305,1062.5) translate(0 17.1)"/><use xlink:href="#I" transform="matrix(1,0,0,1,305,1094.5) translate(0 17.1)"/><path d="M860 625.83h60v48.34h-60z" fill="none"/><use xlink:href="#J" transform="matrix(1,0,0,1,860,625.8333333333334) translate(25.5 28.1)"/><path d="M860 840h60v48.33h-60z" fill="none"/><use xlink:href="#K" transform="matrix(1,0,0,1,860,840) translate(27 28.1)"/><path d="M401 1019h-2v-46.87h2zm0-68.47h-2v-46.86h2zM401 903.67h-2v-1h2zM401 1020h-2v-1h2z"/><use xlink:href="#L" transform="matrix(1,0,0,1,385.5,950.5333333333333) translate(0 14.4)"/><path d="M300 880h240v60H300z" fill="none"/><use xlink:href="#J" transform="matrix(1,0,0,1,300,880) translate(115 33.6)"/><path d="M320 980h220v60H320z" fill="none"/><use xlink:href="#M" transform="matrix(1,0,0,1,320,980) translate(85 33.6)"/><path d="M390 627.5h60v48.33h-60z" fill="none"/><g><use xlink:href="#K" transform="matrix(1,0,0,1,389.99999999999994,627.5) translate(27 28.1)"/></g><path d="M390 756.33h60v48.34h-60z" fill="none"/><g><use xlink:href="#J" transform="matrix(1,0,0,1,389.99999999999994,756.3333333333334) translate(25.5 28.1)"/></g><defs><path d="M80-196l47-18 7 23-49 13 32 44-20 13-27-46-27 45-21-12 33-44-49-13 8-23 47 19-2-53h23" id="N"/><use transform="matrix(0.05,0,0,0.05,0,0)" xlink:href="#N" id="a"/><path d="M233-177c-1 41-23 64-60 70L243 0h-38l-65-103H63V0H30v-248c88 3 205-21 203 71zM63-129c60-2 137 13 137-47 0-61-80-42-137-45v92" id="O"/><path d="M100-194c63 0 86 42 84 106H49c0 40 14 67 53 68 26 1 43-12 49-29l28 8c-11 28-37 45-77 45C44 4 14-33 15-96c1-61 26-98 85-98zm52 81c6-60-76-77-97-28-3 7-6 17-6 28h103" id="P"/><path d="M177-190C167-65 218 103 67 71c-23-6-38-20-44-43l32-5c15 47 100 32 89-28v-30C133-14 115 1 83 1 29 1 15-40 15-95c0-56 16-97 71-98 29-1 48 16 59 35 1-10 0-23 2-32h30zM94-22c36 0 50-32 50-73 0-42-14-75-50-75-39 0-46 34-46 75s6 73 46 73" id="Q"/><path d="M24-231v-30h32v30H24zM24 0v-190h32V0H24" id="R"/><path d="M135-143c-3-34-86-38-87 0 15 53 115 12 119 90S17 21 10-45l28-5c4 36 97 45 98 0-10-56-113-15-118-90-4-57 82-63 122-42 12 7 21 19 24 35" id="S"/><path d="M59-47c-2 24 18 29 38 22v24C64 9 27 4 27-40v-127H5v-23h24l9-43h21v43h35v23H59v120" id="T"/><path d="M114-163C36-179 61-72 57 0H25l-1-190h30c1 12-1 29 2 39 6-27 23-49 58-41v29" id="U"/><path d="M85-194c31 0 48 13 60 33l-1-100h32l1 261h-30c-2-10 0-23-3-31C134-8 116 4 85 4 32 4 16-35 15-94c0-66 23-100 70-100zm9 24c-40 0-46 34-46 75 0 40 6 74 45 74 42 0 51-32 51-76 0-42-9-74-50-73" id="V"/><path d="M232-93c-1 65-40 97-104 97C67 4 28-28 28-90v-158h33c8 89-33 224 67 224 102 0 64-133 71-224h33v155" id="W"/><g id="b"><use transform="matrix(0.05,0,0,0.05,0,0)" xlink:href="#O"/><use transform="matrix(0.05,0,0,0.05,12.950000000000001,0)" xlink:href="#P"/><use transform="matrix(0.05,0,0,0.05,22.950000000000003,0)" xlink:href="#Q"/><use transform="matrix(0.05,0,0,0.05,32.95,0)" xlink:href="#R"/><use transform="matrix(0.05,0,0,0.05,36.900000000000006,0)" xlink:href="#S"/><use transform="matrix(0.05,0,0,0.05,45.900000000000006,0)" xlink:href="#T"/><use transform="matrix(0.05,0,0,0.05,50.900000000000006,0)" xlink:href="#P"/><use transform="matrix(0.05,0,0,0.05,60.900000000000006,0)" xlink:href="#U"/><use transform="matrix(0.05,0,0,0.05,66.85000000000001,0)" xlink:href="#P"/><use transform="matrix(0.05,0,0,0.05,76.85000000000001,0)" xlink:href="#V"/><use transform="matrix(0.05,0,0,0.05,86.85000000000001,0)" xlink:href="#W"/><use transform="matrix(0.05,0,0,0.05,99.80000000000001,0)" xlink:href="#S"/><use transform="matrix(0.05,0,0,0.05,108.80000000000001,0)" xlink:href="#P"/><use transform="matrix(0.05,0,0,0.05,118.80000000000001,0)" xlink:href="#U"/></g><path d="M117-194c89-4 53 116 60 194h-32v-121c0-31-8-49-39-48C34-167 62-67 57 0H25l-1-190h30c1 10-1 24 2 32 11-22 29-35 61-36" id="X"/><path d="M96-169c-40 0-48 33-48 73s9 75 48 75c24 0 41-14 43-38l32 2c-6 37-31 61-74 61-59 0-76-41-82-99-10-93 101-131 147-64 4 7 5 14 7 22l-32 3c-4-21-16-35-41-35" id="Y"/><path d="M143 0L79-87 56-68V0H24v-261h32v163l83-92h37l-77 82L181 0h-38" id="Z"/><path d="M141-36C126-15 110 5 73 4 37 3 15-17 15-53c-1-64 63-63 125-63 3-35-9-54-41-54-24 1-41 7-42 31l-33-3c5-37 33-52 76-52 45 0 72 20 72 64v82c-1 20 7 32 28 27v20c-31 9-61-2-59-35zM48-53c0 20 12 33 32 33 41-3 63-29 60-74-43 2-92-5-92 41" id="aa"/><path d="M210-169c-67 3-38 105-44 169h-31v-121c0-29-5-50-35-48C34-165 62-65 56 0H25l-1-190h30c1 10-1 24 2 32 10-44 99-50 107 0 11-21 27-35 58-36 85-2 47 119 55 194h-31v-121c0-29-5-49-35-48" id="ab"/><g id="c"><use transform="matrix(0.05,0,0,0.05,0,0)" xlink:href="#X"/><use transform="matrix(0.05,0,0,0.05,10,0)" xlink:href="#R"/><use transform="matrix(0.05,0,0,0.05,13.949999999999998,0)" xlink:href="#Y"/><use transform="matrix(0.05,0,0,0.05,22.95,0)" xlink:href="#Z"/><use transform="matrix(0.05,0,0,0.05,31.950000000000003,0)" xlink:href="#X"/><use transform="matrix(0.05,0,0,0.05,41.95,0)" xlink:href="#aa"/><use transform="matrix(0.05,0,0,0.05,51.95,0)" xlink:href="#ab"/><use transform="matrix(0.05,0,0,0.05,66.9,0)" xlink:href="#P"/></g><path d="M24 0v-261h32V0H24" id="ac"/><g id="d"><use transform="matrix(0.05,0,0,0.05,0,0)" xlink:href="#P"/><use transform="matrix(0.05,0,0,0.05,10,0)" xlink:href="#ab"/><use transform="matrix(0.05,0,0,0.05,24.950000000000003,0)" xlink:href="#aa"/><use transform="matrix(0.05,0,0,0.05,34.95,0)" xlink:href="#R"/><use transform="matrix(0.05,0,0,0.05,38.900000000000006,0)" xlink:href="#ac"/></g><path d="M115-194c55 1 70 41 70 98S169 2 115 4C84 4 66-9 55-30l1 105H24l-1-265h31l2 30c10-21 28-34 59-34zm-8 174c40 0 45-34 45-75s-6-73-45-74c-42 0-51 32-51 76 0 43 10 73 51 73" id="ad"/><path d="M206 0h-36l-40-164L89 0H53L-1-190h32L70-26l43-164h34l41 164 42-164h31" id="ae"/><path d="M100-194c62-1 85 37 85 99 1 63-27 99-86 99S16-35 15-95c0-66 28-99 85-99zM99-20c44 1 53-31 53-75 0-43-8-75-51-75s-53 32-53 75 10 74 51 75" id="af"/><g id="e"><use transform="matrix(0.05,0,0,0.05,0,0)" xlink:href="#ad"/><use transform="matrix(0.05,0,0,0.05,10,0)" xlink:href="#aa"/><use transform="matrix(0.05,0,0,0.05,20,0)" xlink:href="#S"/><use transform="matrix(0.05,0,0,0.05,29,0)" xlink:href="#S"/><use transform="matrix(0.05,0,0,0.05,38,0)" xlink:href="#ae"/><use transform="matrix(0.05,0,0,0.05,50.95,0)" xlink:href="#af"/><use transform="matrix(0.05,0,0,0.05,60.95,0)" xlink:href="#U"/><use transform="matrix(0.05,0,0,0.05,66.9,0)" xlink:href="#V"/></g><path d="M30-248c87 1 191-15 191 75 0 78-77 80-158 76V0H30v-248zm33 125c57 0 124 11 124-50 0-59-68-47-124-48v98" id="ag"/><path d="M108 0H70L1-190h34L89-25l56-165h34" id="ah"/><path d="M84 4C-5 8 30-112 23-190h32v120c0 31 7 50 39 49 72-2 45-101 50-169h31l1 190h-30c-1-10 1-25-2-33-11 22-28 36-60 37" id="ai"/><path d="M240 0l2-218c-23 76-54 145-80 218h-23L58-218 59 0H30v-248h44l77 211c21-75 51-140 76-211h43V0h-30" id="aj"/><path d="M106-169C34-169 62-67 57 0H25v-261h32l-1 103c12-21 28-36 61-36 89 0 53 116 60 194h-32v-121c2-32-8-49-39-48" id="ak"/><g id="f"><use transform="matrix(0.05,0,0,0.05,0,0)" xlink:href="#ag"/><use transform="matrix(0.05,0,0,0.05,12,0)" xlink:href="#U"/><use transform="matrix(0.05,0,0,0.05,17.95,0)" xlink:href="#P"/><use transform="matrix(0.05,0,0,0.05,27.950000000000003,0)" xlink:href="#ah"/><use transform="matrix(0.05,0,0,0.05,36.95,0)" xlink:href="#R"/><use transform="matrix(0.05,0,0,0.05,40.900000000000006,0)" xlink:href="#af"/><use transform="matrix(0.05,0,0,0.05,50.900000000000006,0)" xlink:href="#ai"/><use transform="matrix(0.05,0,0,0.05,60.900000000000006,0)" xlink:href="#S"/><use transform="matrix(0.05,0,0,0.05,69.9,0)" xlink:href="#aj"/><use transform="matrix(0.05,0,0,0.05,84.85000000000001,0)" xlink:href="#aa"/><use transform="matrix(0.05,0,0,0.05,94.85000000000001,0)" xlink:href="#T"/><use transform="matrix(0.05,0,0,0.05,99.85000000000001,0)" xlink:href="#Y"/><use transform="matrix(0.05,0,0,0.05,108.85000000000001,0)" xlink:href="#ak"/></g><g id="g"><use transform="matrix(0.05,0,0,0.05,0,0)" xlink:href="#U"/><use transform="matrix(0.05,0,0,0.05,5.95,0)" xlink:href="#P"/><use transform="matrix(0.05,0,0,0.05,15.949999999999998,0)" xlink:href="#S"/><use transform="matrix(0.05,0,0,0.05,24.95,0)" xlink:href="#ai"/><use transform="matrix(0.05,0,0,0.05,34.95,0)" xlink:href="#ac"/><use transform="matrix(0.05,0,0,0.05,38.900000000000006,0)" xlink:href="#T"/></g><path d="M127-220V0H93v-220H8v-28h204v28h-85" id="al"/><g id="h"><use transform="matrix(0.05,0,0,0.05,0,0)" xlink:href="#S"/><use transform="matrix(0.05,0,0,0.05,9,0)" xlink:href="#T"/><use transform="matrix(0.05,0,0,0.05,14,0)" xlink:href="#aa"/><use transform="matrix(0.05,0,0,0.05,24,0)" xlink:href="#U"/><use transform="matrix(0.05,0,0,0.05,29.950000000000003,0)" xlink:href="#T"/><use transform="matrix(0.05,0,0,0.05,34.95,0)" xlink:href="#al"/><use transform="matrix(0.05,0,0,0.05,45.25000000000001,0)" xlink:href="#R"/><use transform="matrix(0.05,0,0,0.05,49.20000000000001,0)" xlink:href="#ab"/><use transform="matrix(0.05,0,0,0.05,64.15,0)" xlink:href="#P"/></g><g id="i"><use transform="matrix(0.05,0,0,0.05,0,0)" xlink:href="#P"/><use transform="matrix(0.05,0,0,0.05,10,0)" xlink:href="#X"/><use transform="matrix(0.05,0,0,0.05,20,0)" xlink:href="#V"/><use transform="matrix(0.05,0,0,0.05,30,0)" xlink:href="#al"/><use transform="matrix(0.05,0,0,0.05,40.300000000000004,0)" xlink:href="#R"/><use transform="matrix(0.05,0,0,0.05,44.25000000000001,0)" xlink:href="#ab"/><use transform="matrix(0.05,0,0,0.05,59.20000000000002,0)" xlink:href="#P"/></g><path d="M179-190L93 31C79 59 56 82 12 73V49c39 6 53-20 64-50L1-190h34L92-34l54-156h33" id="am"/><g id="j"><use transform="matrix(0.05,0,0,0.05,0,0)" xlink:href="#af"/><use transform="matrix(0.05,0,0,0.05,10,0)" xlink:href="#T"/><use transform="matrix(0.05,0,0,0.05,15,0)" xlink:href="#ak"/><use transform="matrix(0.05,0,0,0.05,25,0)" xlink:href="#P"/><use transform="matrix(0.05,0,0,0.05,35,0)" xlink:href="#U"/><use transform="matrix(0.05,0,0,0.05,40.95,0)" xlink:href="#ag"/><use transform="matrix(0.05,0,0,0.05,52.95,0)" xlink:href="#ac"/><use transform="matrix(0.05,0,0,0.05,56.900000000000006,0)" xlink:href="#aa"/><use transform="matrix(0.05,0,0,0.05,66.9,0)" xlink:href="#am"/><use transform="matrix(0.05,0,0,0.05,75.9,0)" xlink:href="#P"/><use transform="matrix(0.05,0,0,0.05,85.9,0)" xlink:href="#U"/></g><g id="k"><use transform="matrix(0.05,0,0,0.05,0,0)" xlink:href="#aj"/><use transform="matrix(0.05,0,0,0.05,14.950000000000001,0)" xlink:href="#aa"/><use transform="matrix(0.05,0,0,0.05,24.950000000000003,0)" xlink:href="#T"/><use transform="matrix(0.05,0,0,0.05,29.950000000000003,0)" xlink:href="#Y"/><use transform="matrix(0.05,0,0,0.05,38.95,0)" xlink:href="#ak"/></g><g id="l"><use transform="matrix(0.05,0,0,0.05,0,0)" xlink:href="#S"/><use transform="matrix(0.05,0,0,0.05,9,0)" xlink:href="#T"/><use transform="matrix(0.05,0,0,0.05,14,0)" xlink:href="#aa"/><use transform="matrix(0.05,0,0,0.05,24,0)" xlink:href="#T"/><use transform="matrix(0.05,0,0,0.05,29,0)" xlink:href="#ai"/><use transform="matrix(0.05,0,0,0.05,39,0)" xlink:href="#S"/></g><path d="M33 0v-248h34V0H33" id="an"/><g id="m"><use transform="matrix(0.05,0,0,0.05,0,0)" xlink:href="#an"/><use transform="matrix(0.05,0,0,0.05,5,0)" xlink:href="#X"/><use transform="matrix(0.05,0,0,0.05,15,0)" xlink:href="#ah"/><use transform="matrix(0.05,0,0,0.05,24,0)" xlink:href="#R"/><use transform="matrix(0.05,0,0,0.05,27.950000000000003,0)" xlink:href="#T"/><use transform="matrix(0.05,0,0,0.05,32.95,0)" xlink:href="#P"/></g><g id="n"><use transform="matrix(0.05,0,0,0.05,0,0)" xlink:href="#T"/><use transform="matrix(0.05,0,0,0.05,5,0)" xlink:href="#R"/><use transform="matrix(0.05,0,0,0.05,8.95,0)" xlink:href="#T"/><use transform="matrix(0.05,0,0,0.05,13.949999999999998,0)" xlink:href="#ac"/><use transform="matrix(0.05,0,0,0.05,17.9,0)" xlink:href="#P"/></g><g id="o"><use transform="matrix(0.05,0,0,0.05,0,0)" xlink:href="#V"/><use transform="matrix(0.05,0,0,0.05,10,0)" xlink:href="#aa"/><use transform="matrix(0.05,0,0,0.05,20,0)" xlink:href="#T"/><use transform="matrix(0.05,0,0,0.05,25,0)" xlink:href="#P"/></g><g id="p"><use transform="matrix(0.05,0,0,0.05,0,0)" xlink:href="#S"/><use transform="matrix(0.05,0,0,0.05,9,0)" xlink:href="#T"/><use transform="matrix(0.05,0,0,0.05,14,0)" xlink:href="#aa"/><use transform="matrix(0.05,0,0,0.05,24,0)" xlink:href="#T"/><use transform="matrix(0.05,0,0,0.05,29,0)" xlink:href="#ai"/><use transform="matrix(0.05,0,0,0.05,39,0)" xlink:href="#S"/></g><use transform="matrix(0.05,0,0,0.05,0,0)" xlink:href="#N" id="q"/><g id="r"><use transform="matrix(0.05,0,0,0.05,0,0)" xlink:href="#S"/><use transform="matrix(0.05,0,0,0.05,9,0)" xlink:href="#P"/><use transform="matrix(0.05,0,0,0.05,19,0)" xlink:href="#X"/><use transform="matrix(0.05,0,0,0.05,29,0)" xlink:href="#V"/></g><path d="M27 0v-27h64v-190l-56 39v-29l58-41h29v221h61V0H27" id="ao"/><use transform="matrix(0.05,0,0,0.05,0,0)" xlink:href="#ao" id="s"/><path d="M101-234c-31-9-42 10-38 44h38v23H63V0H32v-167H5v-23h27c-7-52 17-82 69-68v24" id="ap"/><g id="t"><use transform="matrix(0.05,0,0,0.05,0,0)" xlink:href="#U"/><use transform="matrix(0.05,0,0,0.05,5.95,0)" xlink:href="#P"/><use transform="matrix(0.05,0,0,0.05,15.949999999999998,0)" xlink:href="#ap"/><use transform="matrix(0.05,0,0,0.05,20.95,0)" xlink:href="#P"/><use transform="matrix(0.05,0,0,0.05,30.950000000000003,0)" xlink:href="#U"/><use transform="matrix(0.05,0,0,0.05,36.9,0)" xlink:href="#P"/><use transform="matrix(0.05,0,0,0.05,46.9,0)" xlink:href="#X"/><use transform="matrix(0.05,0,0,0.05,56.900000000000006,0)" xlink:href="#Y"/><use transform="matrix(0.05,0,0,0.05,65.9,0)" xlink:href="#P"/><use transform="matrix(0.05,0,0,0.05,75.9,0)" xlink:href="#S"/></g><g id="u"><use transform="matrix(0.05,0,0,0.05,0,0)" xlink:href="#ad"/><use transform="matrix(0.05,0,0,0.05,10,0)" xlink:href="#aa"/><use transform="matrix(0.05,0,0,0.05,20,0)" xlink:href="#U"/><use transform="matrix(0.05,0,0,0.05,25.950000000000003,0)" xlink:href="#T"/><use transform="matrix(0.05,0,0,0.05,30.950000000000003,0)" xlink:href="#R"/><use transform="matrix(0.05,0,0,0.05,34.9,0)" xlink:href="#Y"/><use transform="matrix(0.05,0,0,0.05,43.9,0)" xlink:href="#R"/><use transform="matrix(0.05,0,0,0.05,47.85,0)" xlink:href="#ad"/><use transform="matrix(0.05,0,0,0.05,57.85,0)" xlink:href="#aa"/><use transform="matrix(0.05,0,0,0.05,67.85,0)" xlink:href="#T"/><use transform="matrix(0.05,0,0,0.05,72.85,0)" xlink:href="#P"/><use transform="matrix(0.05,0,0,0.05,82.85,0)" xlink:href="#S"/></g><path d="M33 0v-38h34V0H33" id="aq"/><path d="M101-251c82-7 93 87 43 132L82-64C71-53 59-42 53-27h129V0H18c2-99 128-94 128-182 0-28-16-43-45-43s-46 15-49 41l-32-3c6-41 34-60 81-64" id="ar"/><g id="v"><use transform="matrix(0.05,0,0,0.05,0,0)" xlink:href="#ao"/><use transform="matrix(0.05,0,0,0.05,10,0)" xlink:href="#aq"/><use transform="matrix(0.05,0,0,0.05,15,0)" xlink:href="#aq"/><use transform="matrix(0.05,0,0,0.05,20,0)" xlink:href="#ar"/></g><g id="w"><use transform="matrix(0.05,0,0,0.05,0,0)" xlink:href="#ah"/><use transform="matrix(0.05,0,0,0.05,9,0)" xlink:href="#R"/><use transform="matrix(0.05,0,0,0.05,12.949999999999998,0)" xlink:href="#P"/><use transform="matrix(0.05,0,0,0.05,22.95,0)" xlink:href="#ae"/></g><use transform="matrix(0.05,0,0,0.05,0,0)" xlink:href="#ao" id="x"/><g id="y"><use transform="matrix(0.05,0,0,0.05,0,0)" xlink:href="#al"/><use transform="matrix(0.05,0,0,0.05,10.3,0)" xlink:href="#ai"/><use transform="matrix(0.05,0,0,0.05,20.3,0)" xlink:href="#U"/><use transform="matrix(0.05,0,0,0.05,26.25,0)" xlink:href="#X"/></g><path d="M190 0L58-211 59 0H30v-248h39L202-35l-2-213h31V0h-41" id="as"/><path d="M115-194c53 0 69 39 70 98 0 66-23 100-70 100C84 3 66-7 56-30L54 0H23l1-261h32v101c10-23 28-34 59-34zm-8 174c40 0 45-34 45-75 0-40-5-75-45-74-42 0-51 32-51 76 0 43 10 73 51 73" id="at"/><g id="z"><use transform="matrix(0.05,0,0,0.05,0,0)" xlink:href="#T"/><use transform="matrix(0.05,0,0,0.05,5,0)" xlink:href="#ai"/><use transform="matrix(0.05,0,0,0.05,15,0)" xlink:href="#U"/><use transform="matrix(0.05,0,0,0.05,20.95,0)" xlink:href="#X"/><use transform="matrix(0.05,0,0,0.05,30.950000000000003,0)" xlink:href="#as"/><use transform="matrix(0.05,0,0,0.05,43.9,0)" xlink:href="#ai"/><use transform="matrix(0.05,0,0,0.05,53.900000000000006,0)" xlink:href="#ab"/><use transform="matrix(0.05,0,0,0.05,68.85,0)" xlink:href="#at"/><use transform="matrix(0.05,0,0,0.05,78.85,0)" xlink:href="#P"/><use transform="matrix(0.05,0,0,0.05,88.85,0)" xlink:href="#U"/></g><g id="A"><use transform="matrix(0.05,0,0,0.05,0,0)" xlink:href="#ak"/><use transform="matrix(0.05,0,0,0.05,10,0)" xlink:href="#aa"/><use transform="matrix(0.05,0,0,0.05,20,0)" xlink:href="#S"/></g><g id="B"><use transform="matrix(0.05,0,0,0.05,0,0)" xlink:href="#V"/><use transform="matrix(0.05,0,0,0.05,10,0)" xlink:href="#P"/><use transform="matrix(0.05,0,0,0.05,20,0)" xlink:href="#Y"/><use transform="matrix(0.05,0,0,0.05,29,0)" xlink:href="#R"/><use transform="matrix(0.05,0,0,0.05,32.95,0)" xlink:href="#V"/><use transform="matrix(0.05,0,0,0.05,42.95,0)" xlink:href="#P"/><use transform="matrix(0.05,0,0,0.05,52.95,0)" xlink:href="#S"/></g><g id="C"><use transform="matrix(0.05,0,0,0.05,0,0)" xlink:href="#ab"/><use transform="matrix(0.05,0,0,0.05,14.950000000000001,0)" xlink:href="#af"/><use transform="matrix(0.05,0,0,0.05,24.950000000000003,0)" xlink:href="#ah"/><use transform="matrix(0.05,0,0,0.05,33.95,0)" xlink:href="#P"/><use transform="matrix(0.05,0,0,0.05,43.95,0)" xlink:href="#S"/></g><path d="M101-251c68 0 85 55 85 127S166 4 100 4C33 4 14-52 14-124c0-73 17-127 87-127zm-1 229c47 0 54-49 54-102s-4-102-53-102c-51 0-55 48-55 102 0 53 5 102 54 102" id="au"/><g id="D"><use transform="matrix(0.05,0,0,0.05,0,0)" xlink:href="#au"/><use transform="matrix(0.05,0,0,0.05,10,0)" xlink:href="#aq"/><use transform="matrix(0.05,0,0,0.05,15,0)" xlink:href="#aq"/><use transform="matrix(0.05,0,0,0.05,20,0)" xlink:href="#ao"/></g><use transform="matrix(0.05,0,0,0.05,0,0)" xlink:href="#N" id="E"/><g id="F"><use transform="matrix(0.05,0,0,0.05,0,0)" xlink:href="#U"/><use transform="matrix(0.05,0,0,0.05,5.95,0)" xlink:href="#P"/><use transform="matrix(0.05,0,0,0.05,15.949999999999998,0)" xlink:href="#Y"/><use transform="matrix(0.05,0,0,0.05,24.95,0)" xlink:href="#R"/><use transform="matrix(0.05,0,0,0.05,28.899999999999995,0)" xlink:href="#P"/><use transform="matrix(0.05,0,0,0.05,38.9,0)" xlink:href="#ah"/><use transform="matrix(0.05,0,0,0.05,47.9,0)" xlink:href="#P"/></g><path d="M143 4C61 4 22-44 18-125c-5-107 100-154 193-111 17 8 29 25 37 43l-32 9c-13-25-37-40-76-40-61 0-88 39-88 99 0 61 29 100 91 101 35 0 62-11 79-27v-45h-74v-28h105v86C228-13 192 4 143 4" id="av"/><g id="G"><use transform="matrix(0.05,0,0,0.05,0,0)" xlink:href="#av"/><use transform="matrix(0.05,0,0,0.05,14,0)" xlink:href="#aa"/><use transform="matrix(0.05,0,0,0.05,24,0)" xlink:href="#ab"/><use transform="matrix(0.05,0,0,0.05,38.95,0)" xlink:href="#P"/><use transform="matrix(0.05,0,0,0.05,48.95,0)" xlink:href="#ag"/><use transform="matrix(0.05,0,0,0.05,60.95,0)" xlink:href="#R"/><use transform="matrix(0.05,0,0,0.05,64.9,0)" xlink:href="#P"/><use transform="matrix(0.05,0,0,0.05,74.9,0)" xlink:href="#Y"/><use transform="matrix(0.05,0,0,0.05,83.9,0)" xlink:href="#P"/></g><g id="H"><use transform="matrix(0.05,0,0,0.05,0,0)" xlink:href="#T"/><use transform="matrix(0.05,0,0,0.05,5,0)" xlink:href="#am"/><use transform="matrix(0.05,0,0,0.05,14,0)" xlink:href="#ad"/><use transform="matrix(0.05,0,0,0.05,24,0)" xlink:href="#P"/></g><g id="I"><use transform="matrix(0.05,0,0,0.05,0,0)" xlink:href="#ad"/><use transform="matrix(0.05,0,0,0.05,10,0)" xlink:href="#af"/><use transform="matrix(0.05,0,0,0.05,20,0)" xlink:href="#S"/><use transform="matrix(0.05,0,0,0.05,29,0)" xlink:href="#R"/><use transform="matrix(0.05,0,0,0.05,32.95,0)" xlink:href="#T"/><use transform="matrix(0.05,0,0,0.05,37.95,0)" xlink:href="#R"/><use transform="matrix(0.05,0,0,0.05,41.900000000000006,0)" xlink:href="#af"/><use transform="matrix(0.05,0,0,0.05,51.900000000000006,0)" xlink:href="#X"/></g><use transform="matrix(0.05,0,0,0.05,0,0)" xlink:href="#ao" id="J"/><use transform="matrix(0.05,0,0,0.05,0,0)" xlink:href="#N" id="K"/><g id="L"><use transform="matrix(0.05,0,0,0.05,0,0)" xlink:href="#ak"/><use transform="matrix(0.05,0,0,0.05,10,0)" xlink:href="#aa"/><use transform="matrix(0.05,0,0,0.05,20,0)" xlink:href="#S"/></g><path d="M54-142c48-35 137-8 131 61C196 18 31 33 14-55l32-4c7 23 22 37 52 37 35-1 51-22 54-58 4-55-73-65-99-34H22l8-134h141v27H59" id="aw"/><path d="M126-127c33 6 58 20 58 59 0 88-139 92-164 29-3-8-5-16-6-25l32-3c6 27 21 44 54 44 32 0 52-15 52-46 0-38-36-46-79-43v-28c39 1 72-4 72-42 0-27-17-43-46-43-28 0-47 15-49 41l-32-3c6-42 35-63 81-64 48-1 79 21 79 65 0 36-21 52-52 59" id="ax"/><path d="M110-160c48 1 74 30 74 79 0 53-28 85-80 85-65 0-83-55-86-122-5-90 50-162 133-122 14 7 22 21 27 39l-31 6c-5-40-67-38-82-6-9 19-15 44-15 74 11-20 30-34 60-33zm-7 138c34 0 49-23 49-58s-16-56-50-56c-29 0-50 16-49 49 1 36 15 65 50 65" id="ay"/><g id="M"><use transform="matrix(0.05,0,0,0.05,0,0)" xlink:href="#ao"/><use transform="matrix(0.05,0,0,0.05,10,0)" xlink:href="#aw"/><use transform="matrix(0.05,0,0,0.05,20,0)" xlink:href="#aq"/><use transform="matrix(0.05,0,0,0.05,25,0)" xlink:href="#aq"/><use transform="matrix(0.05,0,0,0.05,30,0)" xlink:href="#ax"/><use transform="matrix(0.05,0,0,0.05,40,0)" xlink:href="#ay"/></g></defs></g></svg>