<svg xmlns="http://www.w3.org/2000/svg" xmlns:xlink="http://www.w3.org/1999/xlink" xmlns:lucid="lucid" width="1360" height="1260"><g transform="translate(-160 0)" lucid:page-tab-id="0_0"><path d="M278.92 432.25c0 6.77-5.5 12.25-12.25 12.25-6.77 0-12.25-5.48-12.25-12.25S259.9 420 266.67 420c6.76 0 12.25 5.48 12.25 12.25z" stroke="#000" stroke-width="2" fill="#fff"/><path d="M240 420h53.33v98H240z" fill="none"/><path d="M266.67 444.5v34.3l26.66 39.2m-26.66-39.2L240 518m0-61.25h53.33" stroke="#000" stroke-width="2" fill="none"/><use xlink:href="#a" transform="matrix(1,0,0,1,160,518) translate(42.125 14.6)"/><use xlink:href="#b" transform="matrix(1,0,0,1,160,518) translate(133.97500000000002 14.6)"/><path d="M937.65 419.33l62.68 32.9" fill="none"/><path d="M937.65 419.33l2.68 1.4m3.6 1.9l5.36 2.8m3.57 1.9l5.37 2.8m3.6 1.9l5.36 2.8m3.58 1.9l5.37 2.8m3.6 1.9l5.36 2.8m3.6 1.9l5.36 2.8m3.6 1.88l2.67 1.42" stroke="#000" stroke-width="2" fill="none"/><path d="M938.1 418.45l-.92 1.77-.5-.27v-.12l-.06-1.27-.1-.95zM1002.5 452.23l-2.05 1.06-.1.06-.48-.25.93-1.76z"/><path d="M960 400h80v40h-80z" stroke="#000" stroke-opacity="0" stroke-width="2" fill="#fff" fill-opacity="0"/><use xlink:href="#c" transform="matrix(1,0,0,1,965,405) translate(-3.950000000000003 18.6)"/><path d="M293.33 480l482.34-300" stroke="#000" stroke-width="2" fill="none"/><path d="M293.86 480.85l-.53.33V480zM776.7 178.73l-.03 1.27v.55l-.48.3-1.06-1.7 1.62-1z"/><path d="M293.33 480l482.34-140" stroke="#000" stroke-width="2" fill="none"/><path d="M293.6 480.96l-.27.08V480zM776.7 338.73l-.03 1.27v.17l.02.57-.75.22-.56-1.92 1.3-.4z"/><path d="M293.33 480l482.34-220" stroke="#000" stroke-width="2" fill="none"/><path d="M293.75 480.9l-.42.2V480zM776.7 258.73l-.03 1.27v.17l.02.46-.62.28-.83-1.8 1.5-.7z"/><path d="M293.33 480l482.34-60" stroke="#000" stroke-width="2" fill="none"/><path d="M293.46 481h-.13v-1zM776.67 420v.17l.03.7-.9.12-.26-2 1.16-.14z"/><path d="M293.33 480H979" stroke="#000" stroke-width="2" fill="none"/><path/><path d="M980 480v.17l.03.83H979v-2h1.03z"/><path d="M293.33 480L779 540" stroke="#000" stroke-width="2" fill="none"/><path d="M293.46 479l-.13 1v-1zM780.03 539.12l-.03.88v.17l.04.97-1.16-.15.24-2z"/><path d="M293.33 480l492.34 220" stroke="#000" stroke-width="2" fill="none"/><path d="M293.74 479.1l-.4.9v-1.1zM786.7 699.36l-.03.64v.17l.05 1.27v.13l-1.46-.66.8-1.8z"/><path d="M293.33 480l492.34 300" stroke="#000" stroke-width="2" fill="none"/><path d="M293.85 479.15l-.52.85v-1.17zM786.68 779.45V780.17l.04 1.27.04.4-1.6-1 1.03-1.7z"/><path d="M293.33 480l492.34 380" stroke="#000" stroke-width="2" fill="none"/><path d="M293.94 479.2l-.6.8v-1.26zM786.68 859.52v.65l.04 1.27.07.7-1.74-1.35 1.22-1.6z"/><path d="M293.33 480l492.34 460" stroke="#000" stroke-width="2" fill="none"/><path d="M294.02 479.27l-.7.73v-1.37zM786.68 939.58v.59l.04 1.27.1 1-1.84-1.7 1.37-1.47z"/><path d="M293.33 480l492.34 540" stroke="#000" stroke-width="2" fill="none"/><path d="M294.07 479.33l-.74.67v-1.48zM786.68 1019.63v.54l.04 1.27.13 1.28v.07l-1.92-2.13 1.48-1.34z"/><path d="M293.33 480l492.34 620" stroke="#000" stroke-width="2" fill="none"/><path d="M294.12 479.38l-.8.62v-1.6zM786.68 1099.66v.51l.04 1.27.13 1.28.02.15-.12.1-1.87-2.35 1.57-1.24z"/><path d="M293.33 480l492.34 700" stroke="#000" stroke-width="2" fill="none"/><path d="M294.15 479.42l-.82.58v-1.74zM786.68 1179.7v.47l.04 1.27.13 1.28.02.1-.3.2-1.72-2.44 1.63-1.16z"/><path d="M180 20h1320v1220H180z" stroke="#000" stroke-width="2" fill="none"/><use xlink:href="#d" transform="matrix(1,0,0,1,188,28) translate(566.075 15.6)"/><use xlink:href="#e" transform="matrix(1,0,0,1,188,28) translate(624.0250000000001 15.6)"/><use xlink:href="#f" transform="matrix(1,0,0,1,188,28) translate(677.975 15.6)"/><path d="M936.67 100c0 22.1-35.82 40-80 40-44.2 0-80-17.9-80-40s35.8-40 80-40c44.18 0 80 17.9 80 40z" stroke="#000" stroke-width="2" fill="#fff"/><use xlink:href="#g" transform="matrix(1,0,0,1,776.6666666666667,60) translate(46.57999999999999 44.4)"/><path d="M936.67 180c0 22.1-35.82 40-80 40-44.2 0-80-17.9-80-40s35.8-40 80-40c44.18 0 80 17.9 80 40z" stroke="#000" stroke-width="2" fill="#fff"/><use xlink:href="#h" transform="matrix(1,0,0,1,776.6666666666667,140) translate(54.05499999999999 31.9)"/><use xlink:href="#i" transform="matrix(1,0,0,1,776.6666666666667,140) translate(47.504999999999995 53.5)"/><path d="M936.67 260c0 22.1-35.82 40-80 40-44.2 0-80-17.9-80-40s35.8-40 80-40c44.18 0 80 17.9 80 40z" stroke="#000" stroke-width="2" fill="#fff"/><use xlink:href="#j" transform="matrix(1,0,0,1,776.6666666666667,220) translate(55.005 44.4)"/><use xlink:href="#k" transform="matrix(1,0,0,1,776.6666666666667,220) translate(90.005 44.4)"/><path d="M936.67 340c0 22.1-35.82 40-80 40-44.2 0-80-17.9-80-40s35.8-40 80-40c44.18 0 80 17.9 80 40z" stroke="#000" stroke-width="2" fill="#fff"/><use xlink:href="#j" transform="matrix(1,0,0,1,776.6666666666667,300) translate(48.005 44.4)"/><use xlink:href="#l" transform="matrix(1,0,0,1,776.6666666666667,300) translate(83.005 44.4)"/><path d="M940 540c0 22.1-35.82 40-80 40s-80-17.9-80-40 35.82-40 80-40 80 17.9 80 40z" stroke="#000" stroke-width="2" fill="#fff"/><use xlink:href="#m" transform="matrix(1,0,0,1,780,500) translate(26.07999999999999 44.4)"/><use xlink:href="#n" transform="matrix(1,0,0,1,780,500) translate(84.98 44.4)"/><path d="M946.67 700c0 22.1-35.82 40-80 40-44.2 0-80-17.9-80-40s35.8-40 80-40c44.18 0 80 17.9 80 40z" stroke="#000" stroke-width="2" fill="#fff"/><use xlink:href="#o" transform="matrix(1,0,0,1,786.6666666666667,660) translate(28.529999999999994 44.4)"/><use xlink:href="#n" transform="matrix(1,0,0,1,786.6666666666667,660) translate(82.53 44.4)"/><path d="M946.67 780c0 22.1-35.82 40-80 40-44.2 0-80-17.9-80-40s35.8-40 80-40c44.18 0 80 17.9 80 40z" stroke="#000" stroke-width="2" fill="#fff"/><use xlink:href="#p" transform="matrix(1,0,0,1,786.6666666666667,740) translate(37.029999999999994 44.4)"/><use xlink:href="#n" transform="matrix(1,0,0,1,786.6666666666667,740) translate(74.03 44.4)"/><path d="M946.67 860c0 22.1-35.82 40-80 40-44.2 0-80-17.9-80-40s35.8-40 80-40c44.18 0 80 17.9 80 40z" stroke="#000" stroke-width="2" fill="#fff"/><use xlink:href="#q" transform="matrix(1,0,0,1,786.6666666666667,820) translate(41.904999999999994 44.4)"/><use xlink:href="#r" transform="matrix(1,0,0,1,786.6666666666667,820) translate(81.85499999999999 44.4)"/><path d="M946.67 940c0 22.1-35.82 40-80 40-44.2 0-80-17.9-80-40s35.8-40 80-40c44.18 0 80 17.9 80 40z" stroke="#000" stroke-width="2" fill="#fff"/><use xlink:href="#s" transform="matrix(1,0,0,1,786.6666666666667,900) translate(34.254999999999995 44.4)"/><use xlink:href="#t" transform="matrix(1,0,0,1,786.6666666666667,900) translate(77.805 44.4)"/><path d="M946.67 1020c0 22.1-35.82 40-80 40-44.2 0-80-17.9-80-40s35.8-40 80-40c44.18 0 80 17.9 80 40z" stroke="#000" stroke-width="2" fill="#fff"/><use xlink:href="#u" transform="matrix(1,0,0,1,786.6666666666667,980) translate(59.004999999999995 31.9)"/><use xlink:href="#v" transform="matrix(1,0,0,1,786.6666666666667,980) translate(44.05499999999999 53.5)"/><path d="M946.67 1100c0 22.1-35.82 40-80 40-44.2 0-80-17.9-80-40s35.8-40 80-40c44.18 0 80 17.9 80 40z" stroke="#000" stroke-width="2" fill="#fff"/><use xlink:href="#w" transform="matrix(1,0,0,1,786.6666666666667,1060) translate(28.529999999999994 44.4)"/><use xlink:href="#x" transform="matrix(1,0,0,1,786.6666666666667,1060) translate(88.53 44.4)"/><path d="M946.67 1180c0 22.1-35.82 40-80 40-44.2 0-80-17.9-80-40s35.8-40 80-40c44.18 0 80 17.9 80 40z" stroke="#000" stroke-width="2" fill="#fff"/><use xlink:href="#y" transform="matrix(1,0,0,1,786.6666666666667,1140) translate(26.10499999999999 44.4)"/><use xlink:href="#x" transform="matrix(1,0,0,1,786.6666666666667,1140) translate(90.95500000000001 44.4)"/><path d="M1140 480c0 22.1-35.82 40-80 40s-80-17.9-80-40 35.82-40 80-40 80 17.9 80 40z" stroke="#000" stroke-width="2" fill="#fff"/><use xlink:href="#z" transform="matrix(1,0,0,1,980.0000000000002,440) translate(37.58 31.9)"/><use xlink:href="#A" transform="matrix(1,0,0,1,980.0000000000002,440) translate(77.48 31.9)"/><use xlink:href="#B" transform="matrix(1,0,0,1,980.0000000000002,440) translate(61.05499999999999 53.5)"/><path d="M936.67 420c0 22.1-35.82 40-80 40-44.2 0-80-17.9-80-40s35.8-40 80-40c44.18 0 80 17.9 80 40z" stroke="#000" stroke-width="2" fill="#fff"/><use xlink:href="#s" transform="matrix(1,0,0,1,776.6666666666667,380) translate(33.754999999999995 31.9)"/><use xlink:href="#C" transform="matrix(1,0,0,1,776.6666666666667,380) translate(77.305 31.9)"/><use xlink:href="#D" transform="matrix(1,0,0,1,776.6666666666667,380) translate(52.08 53.5)"/><path d="M1226.67 1140c0 22.1-35.82 40-80 40-44.2 0-80-17.9-80-40s35.8-40 80-40c44.18 0 80 17.9 80 40z" stroke="#000" stroke-width="2" fill="#fff"/><use xlink:href="#s" transform="matrix(1,0,0,1,1066.6666666666667,1100) translate(36.754999999999995 44.4)"/><use xlink:href="#x" transform="matrix(1,0,0,1,1066.6666666666667,1100) translate(80.305 44.4)"/><path d="M947.67 1100l118 40" fill="none"/><path d="M947.67 1100l2.95 1m3.93 1.33l5.9 2m3.93 1.34l5.9 2m3.94 1.33l5.9 2m3.93 1.33l5.9 2m3.93 1.34l5.9 2m3.94 1.33l5.9 2m3.93 1.33l5.9 2m3.93 1.34l5.9 2m3.94 1.33l5.9 2m3.93 1.33l5.9 2m3.93 1.34l5.9 2m3.94 1.33l2.95 1" stroke="#000" stroke-width="2" fill="none"/><path d="M948 1099.05l-.65 1.9-.7-.24.02-.7v-.17l-.05-1.24zM1066.7 1139.3l-.03.7v.17l.05 1.24-1.37-.45.64-1.9z"/><path d="M986.67 1080h80v40h-80z" stroke="#000" stroke-opacity="0" stroke-width="2" fill="#fff" fill-opacity="0"/><use xlink:href="#c" transform="matrix(1,0,0,1,991.6666666666667,1085) translate(-3.950000000000003 18.6)"/><path d="M947.67 1180l118-40" fill="none"/><path d="M947.67 1180l2.95-1m3.93-1.33l5.9-2m3.93-1.34l5.9-2m3.94-1.33l5.9-2m3.93-1.33l5.9-2m3.93-1.34l5.9-2m3.94-1.33l5.9-2m3.93-1.33l5.9-2m3.93-1.34l5.9-2m3.94-1.33l5.9-2m3.93-1.33l5.9-2m3.93-1.34l5.9-2m3.94-1.33l2.95-1" stroke="#000" stroke-width="2" fill="none"/><path d="M948 1180.95l-1.4.46.03-.13.04-1.27v-.17l-.03-.54.7-.25zM1066.7 1138.73l-.03 1.27v.17l.02.54-.7.25-.65-1.9 1.37-.46z"/><path d="M986.67 1160h80v40h-80z" stroke="#000" stroke-opacity="0" stroke-width="2" fill="#fff" fill-opacity="0"/><use xlink:href="#c" transform="matrix(1,0,0,1,991.666666666667,1165) translate(-3.950000000000003 18.6)"/><path d="M278.92 52.25c0 6.77-5.5 12.25-12.25 12.25-6.77 0-12.25-5.48-12.25-12.25S259.9 40 266.67 40c6.76 0 12.25 5.48 12.25 12.25z" stroke="#000" stroke-width="2" fill="#fff"/><path d="M240 40h53.33v98H240z" fill="none"/><path d="M266.67 64.5v34.3l26.66 39.2m-26.66-39.2L240 138m0-61.25h53.33" stroke="#000" stroke-width="2" fill="none"/><use xlink:href="#E" transform="matrix(1,0,0,1,160,138) translate(88.05 14.6)"/><path d="M293.33 100h482.34" stroke="#000" stroke-width="2" fill="none"/><path/><path d="M776.67 100v.17l.03.83h-1.03v-2h1.03z"/><path d="M266.67 419V178.23" stroke="#000" stroke-width="2" fill="none"/><path d="M267.67 420h-2v-1h2z"/><path d="M271.3 177.5h-9.27l4.64-14.26z" fill="#fff"/><path d="M272.68 178.5h-12.03l6.02-18.5zm-9.27-2h6.53l-3.26-10.03z"/><path d="M1206.67 860c0 22.1-35.82 40-80 40-44.2 0-80-17.9-80-40s35.8-40 80-40c44.18 0 80 17.9 80 40z" stroke="#000" stroke-width="2" fill="#fff"/><g><use xlink:href="#F" transform="matrix(1,0,0,1,1046.6666666666667,820) translate(33.055 44.4)"/><use xlink:href="#G" transform="matrix(1,0,0,1,1046.6666666666667,820) translate(82.005 44.4)"/></g><path d="M947.67 860h98" fill="none"/><path d="M947.67 860h2.94m3.93 0h5.88m3.93 0h5.88m3.93 0H980m3.93 0h5.88m3.93 0h5.88m3.93 0h5.88m3.93 0h5.88m3.93 0h5.88m3.93 0h5.88m3.93 0h2.94" stroke="#000" stroke-width="2" fill="none"/><path d="M947.67 861h-1.03l.03-1v-.17l-.04-.83h1.04zM1046.67 860v.17l.03.83h-1.03v-2h1.03z"/><path d="M956.67 800h80v40h-80z" stroke="#000" stroke-opacity="0" stroke-width="2" fill="#fff" fill-opacity="0"/><g><use xlink:href="#c" transform="matrix(1,0,0,1,961.6666666666667,805) translate(-3.950000000000003 18.6)"/></g><path d="M293.33 480l489 140" stroke="#000" stroke-width="2" fill="none"/><path d="M293.6 479.04l-.27.96v-1.04zM783.36 619.25l-.03.75v.17l.05 1.17-1.32-.38.55-1.92z"/><path d="M943.33 620c0 22.1-35.8 40-80 40-44.18 0-80-17.9-80-40s35.82-40 80-40c44.2 0 80 17.9 80 40z" stroke="#000" stroke-width="2" fill="#fff"/><g><use xlink:href="#H" transform="matrix(1,0,0,1,783.3333333333335,580) translate(34.055 44.4)"/><use xlink:href="#n" transform="matrix(1,0,0,1,783.3333333333335,580) translate(77.005 44.4)"/></g><defs><path d="M233-177c-1 41-23 64-60 70L243 0h-38l-65-103H63V0H30v-248c88 3 205-21 203 71zM63-129c60-2 137 13 137-47 0-61-80-42-137-45v92" id="I"/><path d="M100-194c63 0 86 42 84 106H49c0 40 14 67 53 68 26 1 43-12 49-29l28 8c-11 28-37 45-77 45C44 4 14-33 15-96c1-61 26-98 85-98zm52 81c6-60-76-77-97-28-3 7-6 17-6 28h103" id="J"/><path d="M177-190C167-65 218 103 67 71c-23-6-38-20-44-43l32-5c15 47 100 32 89-28v-30C133-14 115 1 83 1 29 1 15-40 15-95c0-56 16-97 71-98 29-1 48 16 59 35 1-10 0-23 2-32h30zM94-22c36 0 50-32 50-73 0-42-14-75-50-75-39 0-46 34-46 75s6 73 46 73" id="K"/><path d="M24-231v-30h32v30H24zM24 0v-190h32V0H24" id="L"/><path d="M135-143c-3-34-86-38-87 0 15 53 115 12 119 90S17 21 10-45l28-5c4 36 97 45 98 0-10-56-113-15-118-90-4-57 82-63 122-42 12 7 21 19 24 35" id="M"/><path d="M59-47c-2 24 18 29 38 22v24C64 9 27 4 27-40v-127H5v-23h24l9-43h21v43h35v23H59v120" id="N"/><path d="M114-163C36-179 61-72 57 0H25l-1-190h30c1 12-1 29 2 39 6-27 23-49 58-41v29" id="O"/><path d="M85-194c31 0 48 13 60 33l-1-100h32l1 261h-30c-2-10 0-23-3-31C134-8 116 4 85 4 32 4 16-35 15-94c0-66 23-100 70-100zm9 24c-40 0-46 34-46 75 0 40 6 74 45 74 42 0 51-32 51-76 0-42-9-74-50-73" id="P"/><g id="a"><use transform="matrix(0.05,0,0,0.05,0,0)" xlink:href="#I"/><use transform="matrix(0.05,0,0,0.05,12.950000000000001,0)" xlink:href="#J"/><use transform="matrix(0.05,0,0,0.05,22.950000000000003,0)" xlink:href="#K"/><use transform="matrix(0.05,0,0,0.05,32.95,0)" xlink:href="#L"/><use transform="matrix(0.05,0,0,0.05,36.900000000000006,0)" xlink:href="#M"/><use transform="matrix(0.05,0,0,0.05,45.900000000000006,0)" xlink:href="#N"/><use transform="matrix(0.05,0,0,0.05,50.900000000000006,0)" xlink:href="#J"/><use transform="matrix(0.05,0,0,0.05,60.900000000000006,0)" xlink:href="#O"/><use transform="matrix(0.05,0,0,0.05,66.85000000000001,0)" xlink:href="#J"/><use transform="matrix(0.05,0,0,0.05,76.85000000000001,0)" xlink:href="#P"/></g><path d="M232-93c-1 65-40 97-104 97C67 4 28-28 28-90v-158h33c8 89-33 224 67 224 102 0 64-133 71-224h33v155" id="Q"/><g id="b"><use transform="matrix(0.05,0,0,0.05,0,0)" xlink:href="#Q"/><use transform="matrix(0.05,0,0,0.05,12.950000000000001,0)" xlink:href="#M"/><use transform="matrix(0.05,0,0,0.05,21.950000000000003,0)" xlink:href="#J"/><use transform="matrix(0.05,0,0,0.05,31.950000000000003,0)" xlink:href="#O"/></g><path d="M18-100v-36l175-74v27L42-118l151 64v27" id="R"/><path d="M117-194c89-4 53 116 60 194h-32v-121c0-31-8-49-39-48C34-167 62-67 57 0H25l-1-190h30c1 10-1 24 2 32 11-22 29-35 61-36" id="S"/><path d="M96-169c-40 0-48 33-48 73s9 75 48 75c24 0 41-14 43-38l32 2c-6 37-31 61-74 61-59 0-76-41-82-99-10-93 101-131 147-64 4 7 5 14 7 22l-32 3c-4-21-16-35-41-35" id="T"/><path d="M24 0v-261h32V0H24" id="U"/><path d="M84 4C-5 8 30-112 23-190h32v120c0 31 7 50 39 49 72-2 45-101 50-169h31l1 190h-30c-1-10 1-25-2-33-11 22-28 36-60 37" id="V"/><path d="M18-27v-27l151-64-151-65v-27l175 74v36" id="W"/><g id="c"><use transform="matrix(0.05,0,0,0.05,0,0)" xlink:href="#R"/><use transform="matrix(0.05,0,0,0.05,10.5,0)" xlink:href="#L"/><use transform="matrix(0.05,0,0,0.05,14.449999999999998,0)" xlink:href="#S"/><use transform="matrix(0.05,0,0,0.05,24.45,0)" xlink:href="#T"/><use transform="matrix(0.05,0,0,0.05,33.45,0)" xlink:href="#U"/><use transform="matrix(0.05,0,0,0.05,37.400000000000006,0)" xlink:href="#V"/><use transform="matrix(0.05,0,0,0.05,47.400000000000006,0)" xlink:href="#P"/><use transform="matrix(0.05,0,0,0.05,57.400000000000006,0)" xlink:href="#J"/><use transform="matrix(0.05,0,0,0.05,67.4,0)" xlink:href="#W"/></g><path d="M153-248C145-148 188 4 80 4 36 3 13-21 6-62l32-5c4 25 16 42 43 43 27 0 39-20 39-49v-147H72v-28h81" id="X"/><g id="d"><use transform="matrix(0.05,0,0,0.05,0,0)" xlink:href="#X"/><use transform="matrix(0.05,0,0,0.05,9,0)" xlink:href="#V"/><use transform="matrix(0.05,0,0,0.05,19,0)" xlink:href="#S"/><use transform="matrix(0.05,0,0,0.05,29,0)" xlink:href="#K"/><use transform="matrix(0.05,0,0,0.05,39,0)" xlink:href="#U"/><use transform="matrix(0.05,0,0,0.05,42.95,0)" xlink:href="#J"/></g><path d="M143 4C61 4 22-44 18-125c-5-107 100-154 193-111 17 8 29 25 37 43l-32 9c-13-25-37-40-76-40-61 0-88 39-88 99 0 61 29 100 91 101 35 0 62-11 79-27v-45h-74v-28h105v86C228-13 192 4 143 4" id="Y"/><path d="M141-36C126-15 110 5 73 4 37 3 15-17 15-53c-1-64 63-63 125-63 3-35-9-54-41-54-24 1-41 7-42 31l-33-3c5-37 33-52 76-52 45 0 72 20 72 64v82c-1 20 7 32 28 27v20c-31 9-61-2-59-35zM48-53c0 20 12 33 32 33 41-3 63-29 60-74-43 2-92-5-92 41" id="Z"/><path d="M210-169c-67 3-38 105-44 169h-31v-121c0-29-5-50-35-48C34-165 62-65 56 0H25l-1-190h30c1 10-1 24 2 32 10-44 99-50 107 0 11-21 27-35 58-36 85-2 47 119 55 194h-31v-121c0-29-5-49-35-48" id="aa"/><g id="e"><use transform="matrix(0.05,0,0,0.05,0,0)" xlink:href="#Y"/><use transform="matrix(0.05,0,0,0.05,14,0)" xlink:href="#Z"/><use transform="matrix(0.05,0,0,0.05,24,0)" xlink:href="#aa"/><use transform="matrix(0.05,0,0,0.05,38.95,0)" xlink:href="#J"/></g><path d="M185-189c-5-48-123-54-124 2 14 75 158 14 163 119 3 78-121 87-175 55-17-10-28-26-33-46l33-7c5 56 141 63 141-1 0-78-155-14-162-118-5-82 145-84 179-34 5 7 8 16 11 25" id="ab"/><path d="M179-190L93 31C79 59 56 82 12 73V49c39 6 53-20 64-50L1-190h34L92-34l54-156h33" id="ac"/><g id="f"><use transform="matrix(0.05,0,0,0.05,0,0)" xlink:href="#ab"/><use transform="matrix(0.05,0,0,0.05,12,0)" xlink:href="#ac"/><use transform="matrix(0.05,0,0,0.05,21,0)" xlink:href="#M"/><use transform="matrix(0.05,0,0,0.05,30,0)" xlink:href="#N"/><use transform="matrix(0.05,0,0,0.05,35,0)" xlink:href="#J"/><use transform="matrix(0.05,0,0,0.05,45,0)" xlink:href="#aa"/></g><g id="g"><use transform="matrix(0.05,0,0,0.05,0,0)" xlink:href="#I"/><use transform="matrix(0.05,0,0,0.05,12.950000000000001,0)" xlink:href="#J"/><use transform="matrix(0.05,0,0,0.05,22.950000000000003,0)" xlink:href="#K"/><use transform="matrix(0.05,0,0,0.05,32.95,0)" xlink:href="#L"/><use transform="matrix(0.05,0,0,0.05,36.900000000000006,0)" xlink:href="#M"/><use transform="matrix(0.05,0,0,0.05,45.900000000000006,0)" xlink:href="#N"/><use transform="matrix(0.05,0,0,0.05,50.900000000000006,0)" xlink:href="#J"/><use transform="matrix(0.05,0,0,0.05,60.900000000000006,0)" xlink:href="#O"/></g><path d="M30-248c118-7 216 8 213 122C240-48 200 0 122 0H30v-248zM63-27c89 8 146-16 146-99s-60-101-146-95v194" id="ad"/><g id="h"><use transform="matrix(0.05,0,0,0.05,0,0)" xlink:href="#ad"/><use transform="matrix(0.05,0,0,0.05,12.950000000000001,0)" xlink:href="#J"/><use transform="matrix(0.05,0,0,0.05,22.950000000000003,0)" xlink:href="#U"/><use transform="matrix(0.05,0,0,0.05,26.900000000000002,0)" xlink:href="#J"/><use transform="matrix(0.05,0,0,0.05,36.900000000000006,0)" xlink:href="#N"/><use transform="matrix(0.05,0,0,0.05,41.900000000000006,0)" xlink:href="#J"/></g><path d="M205 0l-28-72H64L36 0H1l101-248h38L239 0h-34zm-38-99l-47-123c-12 45-31 82-46 123h93" id="ae"/><path d="M100-194c62-1 85 37 85 99 1 63-27 99-86 99S16-35 15-95c0-66 28-99 85-99zM99-20c44 1 53-31 53-75 0-43-8-75-51-75s-53 32-53 75 10 74 51 75" id="af"/><g id="i"><use transform="matrix(0.05,0,0,0.05,0,0)" xlink:href="#ae"/><use transform="matrix(0.05,0,0,0.05,12,0)" xlink:href="#T"/><use transform="matrix(0.05,0,0,0.05,21,0)" xlink:href="#T"/><use transform="matrix(0.05,0,0,0.05,30,0)" xlink:href="#af"/><use transform="matrix(0.05,0,0,0.05,40,0)" xlink:href="#V"/><use transform="matrix(0.05,0,0,0.05,50,0)" xlink:href="#S"/><use transform="matrix(0.05,0,0,0.05,60,0)" xlink:href="#N"/></g><path d="M30 0v-248h33v221h125V0H30" id="ag"/><g id="j"><use transform="matrix(0.05,0,0,0.05,0,0)" xlink:href="#ag"/><use transform="matrix(0.05,0,0,0.05,10,0)" xlink:href="#af"/><use transform="matrix(0.05,0,0,0.05,20,0)" xlink:href="#K"/></g><path d="M33 0v-248h34V0H33" id="ah"/><g id="k"><use transform="matrix(0.05,0,0,0.05,0,0)" xlink:href="#ah"/><use transform="matrix(0.05,0,0,0.05,5,0)" xlink:href="#S"/></g><path d="M140-251c81 0 123 46 123 126C263-46 219 4 140 4 59 4 17-45 17-125s42-126 123-126zm0 227c63 0 89-41 89-101s-29-99-89-99c-61 0-89 39-89 99S79-25 140-24" id="ai"/><g id="l"><use transform="matrix(0.05,0,0,0.05,0,0)" xlink:href="#ai"/><use transform="matrix(0.05,0,0,0.05,14,0)" xlink:href="#V"/><use transform="matrix(0.05,0,0,0.05,24,0)" xlink:href="#N"/></g><path d="M212-179c-10-28-35-45-73-45-59 0-87 40-87 99 0 60 29 101 89 101 43 0 62-24 78-52l27 14C228-24 195 4 139 4 59 4 22-46 18-125c-6-104 99-153 187-111 19 9 31 26 39 46" id="aj"/><g id="m"><use transform="matrix(0.05,0,0,0.05,0,0)" xlink:href="#aj"/><use transform="matrix(0.05,0,0,0.05,12.950000000000001,0)" xlink:href="#O"/><use transform="matrix(0.05,0,0,0.05,18.900000000000002,0)" xlink:href="#J"/><use transform="matrix(0.05,0,0,0.05,28.900000000000002,0)" xlink:href="#Z"/><use transform="matrix(0.05,0,0,0.05,38.900000000000006,0)" xlink:href="#N"/><use transform="matrix(0.05,0,0,0.05,43.900000000000006,0)" xlink:href="#J"/></g><path d="M240 0l2-218c-23 76-54 145-80 218h-23L58-218 59 0H30v-248h44l77 211c21-75 51-140 76-211h43V0h-30" id="ak"/><path d="M106-169C34-169 62-67 57 0H25v-261h32l-1 103c12-21 28-36 61-36 89 0 53 116 60 194h-32v-121c2-32-8-49-39-48" id="al"/><g id="n"><use transform="matrix(0.05,0,0,0.05,0,0)" xlink:href="#ak"/><use transform="matrix(0.05,0,0,0.05,14.950000000000001,0)" xlink:href="#Z"/><use transform="matrix(0.05,0,0,0.05,24.950000000000003,0)" xlink:href="#N"/><use transform="matrix(0.05,0,0,0.05,29.950000000000003,0)" xlink:href="#T"/><use transform="matrix(0.05,0,0,0.05,38.95,0)" xlink:href="#al"/></g><path d="M108 0H70L1-190h34L89-25l56-165h34" id="am"/><g id="o"><use transform="matrix(0.05,0,0,0.05,0,0)" xlink:href="#ag"/><use transform="matrix(0.05,0,0,0.05,10,0)" xlink:href="#J"/><use transform="matrix(0.05,0,0,0.05,20,0)" xlink:href="#Z"/><use transform="matrix(0.05,0,0,0.05,30,0)" xlink:href="#am"/><use transform="matrix(0.05,0,0,0.05,39,0)" xlink:href="#J"/></g><path d="M30 0v-248h187v28H63v79h144v27H63v87h162V0H30" id="an"/><g id="p"><use transform="matrix(0.05,0,0,0.05,0,0)" xlink:href="#an"/><use transform="matrix(0.05,0,0,0.05,12,0)" xlink:href="#S"/><use transform="matrix(0.05,0,0,0.05,22,0)" xlink:href="#P"/></g><path d="M30-248c87 1 191-15 191 75 0 78-77 80-158 76V0H30v-248zm33 125c57 0 124 11 124-50 0-59-68-47-124-48v98" id="ao"/><g id="q"><use transform="matrix(0.05,0,0,0.05,0,0)" xlink:href="#ao"/><use transform="matrix(0.05,0,0,0.05,12,0)" xlink:href="#U"/><use transform="matrix(0.05,0,0,0.05,15.949999999999998,0)" xlink:href="#Z"/><use transform="matrix(0.05,0,0,0.05,25.950000000000003,0)" xlink:href="#ac"/></g><path d="M127-220V0H93v-220H8v-28h204v28h-85" id="ap"/><g id="r"><use transform="matrix(0.05,0,0,0.05,0,0)" xlink:href="#ap"/><use transform="matrix(0.05,0,0,0.05,10.3,0)" xlink:href="#V"/><use transform="matrix(0.05,0,0,0.05,20.3,0)" xlink:href="#O"/><use transform="matrix(0.05,0,0,0.05,26.25,0)" xlink:href="#S"/></g><path d="M137 0h-34L2-248h35l83 218 83-218h36" id="aq"/><path d="M206 0h-36l-40-164L89 0H53L-1-190h32L70-26l43-164h34l41 164 42-164h31" id="ar"/><g id="s"><use transform="matrix(0.05,0,0,0.05,0,0)" xlink:href="#aq"/><use transform="matrix(0.05,0,0,0.05,11.65,0)" xlink:href="#L"/><use transform="matrix(0.05,0,0,0.05,15.600000000000001,0)" xlink:href="#J"/><use transform="matrix(0.05,0,0,0.05,25.6,0)" xlink:href="#ar"/></g><path d="M160-131c35 5 61 23 61 61C221 17 115-2 30 0v-248c76 3 177-17 177 60 0 33-19 50-47 57zm-97-11c50-1 110 9 110-42 0-47-63-36-110-37v79zm0 115c55-2 124 14 124-45 0-56-70-42-124-44v89" id="as"/><g id="t"><use transform="matrix(0.05,0,0,0.05,0,0)" xlink:href="#as"/><use transform="matrix(0.05,0,0,0.05,12,0)" xlink:href="#af"/><use transform="matrix(0.05,0,0,0.05,22,0)" xlink:href="#Z"/><use transform="matrix(0.05,0,0,0.05,32,0)" xlink:href="#O"/><use transform="matrix(0.05,0,0,0.05,37.95,0)" xlink:href="#P"/></g><g id="u"><use transform="matrix(0.05,0,0,0.05,0,0)" xlink:href="#ab"/><use transform="matrix(0.05,0,0,0.05,12,0)" xlink:href="#J"/><use transform="matrix(0.05,0,0,0.05,22,0)" xlink:href="#S"/><use transform="matrix(0.05,0,0,0.05,32,0)" xlink:href="#P"/></g><g id="v"><use transform="matrix(0.05,0,0,0.05,0,0)" xlink:href="#ah"/><use transform="matrix(0.05,0,0,0.05,5,0)" xlink:href="#S"/><use transform="matrix(0.05,0,0,0.05,15,0)" xlink:href="#am"/><use transform="matrix(0.05,0,0,0.05,24,0)" xlink:href="#L"/><use transform="matrix(0.05,0,0,0.05,27.950000000000003,0)" xlink:href="#N"/><use transform="matrix(0.05,0,0,0.05,32.95,0)" xlink:href="#Z"/><use transform="matrix(0.05,0,0,0.05,42.95,0)" xlink:href="#N"/><use transform="matrix(0.05,0,0,0.05,47.95,0)" xlink:href="#L"/><use transform="matrix(0.05,0,0,0.05,51.900000000000006,0)" xlink:href="#af"/><use transform="matrix(0.05,0,0,0.05,61.900000000000006,0)" xlink:href="#S"/></g><path d="M115-194c55 1 70 41 70 98S169 2 115 4C84 4 66-9 55-30l1 105H24l-1-265h31l2 30c10-21 28-34 59-34zm-8 174c40 0 45-34 45-75s-6-73-45-74c-42 0-51 32-51 76 0 43 10 73 51 73" id="at"/><g id="w"><use transform="matrix(0.05,0,0,0.05,0,0)" xlink:href="#ae"/><use transform="matrix(0.05,0,0,0.05,12,0)" xlink:href="#T"/><use transform="matrix(0.05,0,0,0.05,21,0)" xlink:href="#T"/><use transform="matrix(0.05,0,0,0.05,30,0)" xlink:href="#J"/><use transform="matrix(0.05,0,0,0.05,40,0)" xlink:href="#at"/><use transform="matrix(0.05,0,0,0.05,50,0)" xlink:href="#N"/></g><g id="x"><use transform="matrix(0.05,0,0,0.05,0,0)" xlink:href="#ah"/><use transform="matrix(0.05,0,0,0.05,5,0)" xlink:href="#S"/><use transform="matrix(0.05,0,0,0.05,15,0)" xlink:href="#am"/><use transform="matrix(0.05,0,0,0.05,24,0)" xlink:href="#L"/><use transform="matrix(0.05,0,0,0.05,27.950000000000003,0)" xlink:href="#N"/><use transform="matrix(0.05,0,0,0.05,32.95,0)" xlink:href="#J"/></g><g id="y"><use transform="matrix(0.05,0,0,0.05,0,0)" xlink:href="#ad"/><use transform="matrix(0.05,0,0,0.05,12.950000000000001,0)" xlink:href="#J"/><use transform="matrix(0.05,0,0,0.05,22.950000000000003,0)" xlink:href="#T"/><use transform="matrix(0.05,0,0,0.05,31.950000000000003,0)" xlink:href="#U"/><use transform="matrix(0.05,0,0,0.05,35.900000000000006,0)" xlink:href="#L"/><use transform="matrix(0.05,0,0,0.05,39.85000000000001,0)" xlink:href="#S"/><use transform="matrix(0.05,0,0,0.05,49.85000000000001,0)" xlink:href="#J"/></g><path d="M63-220v92h138v28H63V0H30v-248h175v28H63" id="au"/><g id="z"><use transform="matrix(0.05,0,0,0.05,0,0)" xlink:href="#au"/><use transform="matrix(0.05,0,0,0.05,10.950000000000001,0)" xlink:href="#L"/><use transform="matrix(0.05,0,0,0.05,14.9,0)" xlink:href="#S"/><use transform="matrix(0.05,0,0,0.05,24.900000000000002,0)" xlink:href="#P"/></g><g id="A"><use transform="matrix(0.05,0,0,0.05,0,0)" xlink:href="#ai"/><use transform="matrix(0.05,0,0,0.05,14,0)" xlink:href="#N"/><use transform="matrix(0.05,0,0,0.05,19,0)" xlink:href="#al"/><use transform="matrix(0.05,0,0,0.05,29,0)" xlink:href="#J"/><use transform="matrix(0.05,0,0,0.05,39,0)" xlink:href="#O"/></g><g id="B"><use transform="matrix(0.05,0,0,0.05,0,0)" xlink:href="#Q"/><use transform="matrix(0.05,0,0,0.05,12.950000000000001,0)" xlink:href="#M"/><use transform="matrix(0.05,0,0,0.05,21.950000000000003,0)" xlink:href="#J"/><use transform="matrix(0.05,0,0,0.05,31.950000000000003,0)" xlink:href="#O"/></g><g id="C"><use transform="matrix(0.05,0,0,0.05,0,0)" xlink:href="#ak"/><use transform="matrix(0.05,0,0,0.05,14.950000000000001,0)" xlink:href="#Z"/><use transform="matrix(0.05,0,0,0.05,24.950000000000003,0)" xlink:href="#N"/><use transform="matrix(0.05,0,0,0.05,29.950000000000003,0)" xlink:href="#T"/><use transform="matrix(0.05,0,0,0.05,38.95,0)" xlink:href="#al"/></g><path d="M197 0v-115H63V0H30v-248h33v105h134v-105h34V0h-34" id="av"/><g id="D"><use transform="matrix(0.05,0,0,0.05,0,0)" xlink:href="#av"/><use transform="matrix(0.05,0,0,0.05,12.950000000000001,0)" xlink:href="#L"/><use transform="matrix(0.05,0,0,0.05,16.900000000000002,0)" xlink:href="#M"/><use transform="matrix(0.05,0,0,0.05,25.900000000000002,0)" xlink:href="#N"/><use transform="matrix(0.05,0,0,0.05,30.900000000000002,0)" xlink:href="#af"/><use transform="matrix(0.05,0,0,0.05,40.900000000000006,0)" xlink:href="#O"/><use transform="matrix(0.05,0,0,0.05,46.85000000000001,0)" xlink:href="#ac"/></g><g id="E"><use transform="matrix(0.05,0,0,0.05,0,0)" xlink:href="#Q"/><use transform="matrix(0.05,0,0,0.05,12.950000000000001,0)" xlink:href="#M"/><use transform="matrix(0.05,0,0,0.05,21.950000000000003,0)" xlink:href="#J"/><use transform="matrix(0.05,0,0,0.05,31.950000000000003,0)" xlink:href="#O"/></g><g id="F"><use transform="matrix(0.05,0,0,0.05,0,0)" xlink:href="#ak"/><use transform="matrix(0.05,0,0,0.05,14.950000000000001,0)" xlink:href="#af"/><use transform="matrix(0.05,0,0,0.05,24.950000000000003,0)" xlink:href="#am"/><use transform="matrix(0.05,0,0,0.05,33.95,0)" xlink:href="#J"/></g><g id="G"><use transform="matrix(0.05,0,0,0.05,0,0)" xlink:href="#ao"/><use transform="matrix(0.05,0,0,0.05,12,0)" xlink:href="#L"/><use transform="matrix(0.05,0,0,0.05,15.949999999999998,0)" xlink:href="#J"/><use transform="matrix(0.05,0,0,0.05,25.950000000000003,0)" xlink:href="#T"/><use transform="matrix(0.05,0,0,0.05,34.95,0)" xlink:href="#J"/></g><g id="H"><use transform="matrix(0.05,0,0,0.05,0,0)" xlink:href="#ab"/><use transform="matrix(0.05,0,0,0.05,12,0)" xlink:href="#N"/><use transform="matrix(0.05,0,0,0.05,17,0)" xlink:href="#Z"/><use transform="matrix(0.05,0,0,0.05,27,0)" xlink:href="#O"/><use transform="matrix(0.05,0,0,0.05,32.95,0)" xlink:href="#N"/></g></defs></g></svg>