<svg xmlns="http://www.w3.org/2000/svg" xmlns:xlink="http://www.w3.org/1999/xlink" xmlns:lucid="lucid" width="1790" height="1350.46"><g transform="translate(20 15)" lucid:page-tab-id="0_0"><path d="M0 0h1760v1360H0z" fill="#fff"/><path d="M320 680h1400v440H320z" stroke="#000" stroke-width="2" fill="#fff"/><path d="M660 330h240v60H660z" fill="none"/><use xlink:href="#a" transform="matrix(1,0,0,1,660,330) translate(72.1 33.6)"/><path d="M249.75 129.75c0 5.38-4.37 9.75-9.75 9.75s-9.75-4.37-9.75-9.75S234.62 120 240 120s9.75 4.37 9.75 9.75z" stroke="#000" stroke-width="2" fill="#fff"/><path d="M200 120h80v78h-80z" fill="none"/><path d="M240 139.5v27.3l40 31.2m-40-31.2L200 198m0-48.75h80" stroke="#000" stroke-width="2" fill="none"/><use xlink:href="#b" transform="matrix(1,0,0,1,120,198) translate(99.025 14.6)"/><path d="M540 135h150v65H540z" stroke="#000" stroke-width="2" fill="#fff"/><use xlink:href="#c" transform="matrix(1,0,0,1,545,140) translate(23.124999999999993 31.6)"/><path d="M900 135h150v65H900z" stroke="#000" stroke-width="2" fill="#fff"/><use xlink:href="#d" transform="matrix(1,0,0,1,905,140) translate(4.1499999999999915 31.6)"/><path d="M1260 135h150v65h-150z" stroke="#000" stroke-width="2" fill="#fff"/><use xlink:href="#e" transform="matrix(1,0,0,1,1265,140) translate(49.375 31.6)"/><path d="M480 5h800v65H480z" stroke="#000" stroke-width="2" fill="#fff"/><use xlink:href="#f" transform="matrix(1,0,0,1,485,10) translate(198.20000000000002 31.6)"/><use xlink:href="#g" transform="matrix(1,0,0,1,485,10) translate(222.15000000000003 31.6)"/><use xlink:href="#h" transform="matrix(1,0,0,1,485,10) translate(271.1 31.6)"/><use xlink:href="#i" transform="matrix(1,0,0,1,485,10) translate(286.1 31.6)"/><use xlink:href="#j" transform="matrix(1,0,0,1,485,10) translate(335.05000000000007 31.6)"/><use xlink:href="#k" transform="matrix(1,0,0,1,485,10) translate(354 31.6)"/><use xlink:href="#l" transform="matrix(1,0,0,1,485,10) translate(384 31.6)"/><use xlink:href="#m" transform="matrix(1,0,0,1,485,10) translate(433.95000000000005 31.6)"/><use xlink:href="#h" transform="matrix(1,0,0,1,485,10) translate(474.85 31.6)"/><use xlink:href="#n" transform="matrix(1,0,0,1,485,10) translate(489.85 31.6)"/><use xlink:href="#o" transform="matrix(1,0,0,1,485,10) translate(542.85 31.6)"/><path d="M240 220v1100" stroke="#000" stroke-width="2" fill="none"/><path d="M241 220h-2v-3h2z"/><path d="M615 201v1119" stroke="#000" stroke-width="2" fill="none"/><path d="M616 201h-2v-1h2z"/><path d="M975 201v1119" stroke="#000" stroke-width="2" fill="none"/><path d="M976 201h-2v-1h2z"/><path d="M1335 201v1119" stroke="#000" stroke-width="2" fill="none"/><path d="M1336 201h-2v-1h2z"/><path d="M161 285.7h60.76" stroke="#000" stroke-width="2" fill="none"/><path d="M161 286.7h-1v-2h1z"/><path d="M236.76 285.7l-14.26 4.63v-9.27z" stroke="#000" stroke-width="2"/><path d="M0 260h160v40H0z" stroke="#000" stroke-width="2" fill="#fff"/><use xlink:href="#p" transform="matrix(1,0,0,1,5,265) translate(6.049999999999997 18.6)"/><use xlink:href="#q" transform="matrix(1,0,0,1,5,265) translate(62.05 18.6)"/><use xlink:href="#r" transform="matrix(1,0,0,1,5,265) translate(116 18.6)"/><path d="M1600 135h150v65h-150z" stroke="#000" stroke-width="2" fill="#fff"/><use xlink:href="#s" transform="matrix(1,0,0,1,1605,140) translate(7.124999999999993 31.6)"/><path d="M1675 201v1119" stroke="#000" stroke-width="2" fill="none"/><path d="M1676 201h-2v-1h2z"/><path d="M340 280h180v40H340z" stroke="#000" stroke-width="2" fill="#fff"/><use xlink:href="#t" transform="matrix(1,0,0,1,345,285) translate(2.6500000000000057 18.6)"/><path d="M258.24 330H427.5v2H615" stroke="#000" stroke-width="2" fill="none"/><path d="M243.24 330l14.26-4.64v9.28z" stroke="#000" stroke-width="2"/><path d="M615 407.3h180v.7h161.76" stroke="#000" stroke-width="2" fill="none"/><path d="M971.76 408l-14.26 4.64v-9.27z" stroke="#000" stroke-width="2"/><path d="M240 400.44h187.5v-.2h169.26" stroke="#000" stroke-width="2" fill="none"/><path d="M611.76 400.25l-14.26 4.64v-9.28z" stroke="#000" stroke-width="2"/><path d="M320 330h240v60H320z" fill="none"/><use xlink:href="#a" transform="matrix(1,0,0,1,320,330) translate(72.1 33.6)"/><path d="M633.24 490.17H795v.27h180" stroke="#000" stroke-width="2" fill="none"/><path d="M618.24 490.17l14.26-4.64v9.27z" stroke="#000" stroke-width="2"/><use xlink:href="#u" transform="matrix(1,0,0,1,755.9339262552772,464.5679458568869) translate(0 14.4)"/><path d="M258.24 518.58H427.5v1.86H615" stroke="#000" stroke-width="2" fill="none"/><path d="M243.24 518.58l14.26-4.64v9.27z" stroke="#000" stroke-width="2"/><use xlink:href="#v" transform="matrix(1,0,0,1,346.5931745974666,492.97576686378704) translate(0 14.4)"/><path d="M240 567h716.76" stroke="#000" stroke-width="2" fill="none"/><path d="M971.76 567l-14.26 4.65v-9.27z" stroke="#000" stroke-width="2"/><use xlink:href="#w" transform="matrix(1,0,0,1,630.2075219494105,541.4144900594148) translate(0 14.4)"/><path d="M975 623.85h341.76" fill="none"/><path d="M975 623.85h3.02m4.02 0h6.03m4.02 0h6.02m4.02 0h6.03m4.02 0h6.02m4.02 0h6.03m4.03 0h6.03m4.02 0h6.03m4.02 0h6.03m4.02 0h6.03m4.02 0h6.03m4.03 0h6.03m4 0h6.04m4.02 0h6.03m4 0h6.04m4.02 0h6.03m4 0h6.05m4.02 0h6.03m4.02 0h6.03m4.02 0h6.03m4.02 0h6.03m4.02 0h6.04m4.03 0h6.03m4.02 0h6.03m4.03 0h6.03m4.02 0h6.03m4.03 0h6.03m4.03 0h6.02m4.02 0h6.03m4.02 0h6.02m4.02 0h6.03m4.02 0h6.02m4.02 0h6.04m4.02 0h6.03m4.02 0h3" stroke="#000" stroke-width="2" fill="none"/><path d="M1331.76 623.85l-14.26 4.63v-9.27z" stroke="#000" stroke-width="2"/><use xlink:href="#x" transform="matrix(1,0,0,1,1105.075,598.2450995414517) translate(0 14.4)"/><path d="M320 680h60v40h-60z" stroke="#000" stroke-width="2" fill="#fff"/><use xlink:href="#y" transform="matrix(1,0,0,1,325,685) translate(14.525 19.1)"/><path d="M1335 776.25h170v-.37h151.76" stroke="#000" stroke-width="2" fill="none"/><path d="M1671.76 775.88l-14.26 4.63v-9.26z" stroke="#000" stroke-width="2"/><path d="M1360 740h240v20h-240z" stroke="#000" stroke-opacity="0" stroke-width="2" fill="#fff" fill-opacity="0"/><use xlink:href="#z" transform="matrix(1,0,0,1,1365,745) translate(56.125 14.4)"/><path d="M1353.24 859.2H1505v.3h170" stroke="#000" stroke-width="2" fill="none"/><path d="M1338.24 859.2l14.26-4.63v9.27z" stroke="#000" stroke-width="2"/><use xlink:href="#A" transform="matrix(1,0,0,1,1453.6076249687196,833.6049762483518) translate(0 14.4)"/><path d="M1340 790h140v60h-140z" stroke="#000" stroke-opacity="0" stroke-width="2" fill="#fff" fill-opacity="0"/><use xlink:href="#B" transform="matrix(1,0,0,1,1345,795) translate(26.549999999999997 17.799999999999997)"/><use xlink:href="#C" transform="matrix(1,0,0,1,1345,795) translate(41.55 17.799999999999997)"/><use xlink:href="#D" transform="matrix(1,0,0,1,1345,795) translate(90.5 17.799999999999997)"/><use xlink:href="#E" transform="matrix(1,0,0,1,1345,795) translate(29.049999999999997 39.4)"/><path d="M993.24 906.44H1325v-1.14h350" stroke="#000" stroke-width="2" fill="none"/><path d="M978.24 906.44l14.26-4.63v9.28z" stroke="#000" stroke-width="2"/><use xlink:href="#F" transform="matrix(1,0,0,1,1401.0585794666683,879.6974495848162) translate(0 14.4)"/><path d="M258.24 1078.5H981.8" stroke="#000" stroke-width="2" fill="none"/><path d="M243.24 1078.5l14.26-4.65v9.28z" stroke="#000" stroke-width="2"/><use xlink:href="#G" transform="matrix(1,0,0,1,504.9897096882587,1052.8899753977478) translate(0 14.4)"/><path d="M633.24 940.44H795v.57h180" stroke="#000" stroke-width="2" fill="none"/><path d="M618.24 940.44l14.26-4.63v9.28z" stroke="#000" stroke-width="2"/><g><use xlink:href="#H" transform="matrix(1,0,0,1,740.9887704543747,914.8458054739107) translate(0 14.4)"/></g><path d="M258.24 969.42H427.5v1.02H615" stroke="#000" stroke-width="2" fill="none"/><path d="M243.24 969.42l14.26-4.63v9.26z" stroke="#000" stroke-width="2"/><g><use xlink:href="#I" transform="matrix(1,0,0,1,326.0648004429882,944.8273556009235) translate(0 14.4)"/><use xlink:href="#J" transform="matrix(1,0,0,1,326.0648004429882,944.8273556009235) translate(64.9 14.4)"/><use xlink:href="#m" transform="matrix(1,0,0,1,326.0648004429882,944.8273556009235) translate(100.85000000000001 14.4)"/><use xlink:href="#K" transform="matrix(1,0,0,1,326.0648004429882,944.8273556009235) translate(141.75 14.4)"/></g><path d="M986.22 1078.5h335.27v-.58H1675" stroke="#000" stroke-width="2" fill="none"/><path d="M971.22 1078.5l14.27-4.65v9.28z" stroke="#000" stroke-width="2"/><g><use xlink:href="#L" transform="matrix(1,0,0,1,1373.1658833888735,1052.3159288373233) translate(0 14.4)"/></g><path d="M1320 1000h180v40h-180z" stroke="#000" stroke-opacity="0" stroke-width="2" fill="#fff" fill-opacity="0"/><g><use xlink:href="#B" transform="matrix(1,0,0,1,1325,1005) translate(18.625 18.6)"/><use xlink:href="#C" transform="matrix(1,0,0,1,1325,1005) translate(33.625 18.6)"/><use xlink:href="#M" transform="matrix(1,0,0,1,1325,1005) translate(82.575 18.6)"/><use xlink:href="#N" transform="matrix(1,0,0,1,1325,1005) translate(100.525 18.6)"/></g><path d="M965 1180h20v100h-20z" stroke="#000" stroke-width="2" fill="#fff"/><path d="M993.24 1304.46H1060" stroke="#000" stroke-width="2" fill="none"/><path d="M978.24 1304.46l14.26-4.63v9.27z" stroke="#000" stroke-width="2"/><path d="M975 1157.7h85v146.76" stroke="#000" stroke-width="2" fill="none"/><defs><path d="M135-143c-3-34-86-38-87 0 15 53 115 12 119 90S17 21 10-45l28-5c4 36 97 45 98 0-10-56-113-15-118-90-4-57 82-63 122-42 12 7 21 19 24 35" id="O"/><path d="M59-47c-2 24 18 29 38 22v24C64 9 27 4 27-40v-127H5v-23h24l9-43h21v43h35v23H59v120" id="P"/><path d="M141-36C126-15 110 5 73 4 37 3 15-17 15-53c-1-64 63-63 125-63 3-35-9-54-41-54-24 1-41 7-42 31l-33-3c5-37 33-52 76-52 45 0 72 20 72 64v82c-1 20 7 32 28 27v20c-31 9-61-2-59-35zM48-53c0 20 12 33 32 33 41-3 63-29 60-74-43 2-92-5-92 41" id="Q"/><path d="M114-163C36-179 61-72 57 0H25l-1-190h30c1 12-1 29 2 39 6-27 23-49 58-41v29" id="R"/><path d="M240 0l2-218c-23 76-54 145-80 218h-23L58-218 59 0H30v-248h44l77 211c21-75 51-140 76-211h43V0h-30" id="S"/><path d="M96-169c-40 0-48 33-48 73s9 75 48 75c24 0 41-14 43-38l32 2c-6 37-31 61-74 61-59 0-76-41-82-99-10-93 101-131 147-64 4 7 5 14 7 22l-32 3c-4-21-16-35-41-35" id="T"/><path d="M106-169C34-169 62-67 57 0H25v-261h32l-1 103c12-21 28-36 61-36 89 0 53 116 60 194h-32v-121c2-32-8-49-39-48" id="U"/><path d="M87 75C49 33 22-17 22-94c0-76 28-126 65-167h31c-38 41-64 92-64 168S80 34 118 75H87" id="V"/><path d="M33-261c38 41 65 92 65 168S71 34 33 75H2C39 34 66-17 66-93S39-220 2-261h31" id="W"/><g id="a"><use transform="matrix(0.05,0,0,0.05,0,0)" xlink:href="#O"/><use transform="matrix(0.05,0,0,0.05,9,0)" xlink:href="#P"/><use transform="matrix(0.05,0,0,0.05,14,0)" xlink:href="#Q"/><use transform="matrix(0.05,0,0,0.05,24,0)" xlink:href="#R"/><use transform="matrix(0.05,0,0,0.05,29.950000000000003,0)" xlink:href="#P"/><use transform="matrix(0.05,0,0,0.05,34.95,0)" xlink:href="#S"/><use transform="matrix(0.05,0,0,0.05,49.900000000000006,0)" xlink:href="#Q"/><use transform="matrix(0.05,0,0,0.05,59.900000000000006,0)" xlink:href="#P"/><use transform="matrix(0.05,0,0,0.05,64.9,0)" xlink:href="#T"/><use transform="matrix(0.05,0,0,0.05,73.9,0)" xlink:href="#U"/><use transform="matrix(0.05,0,0,0.05,83.9,0)" xlink:href="#V"/><use transform="matrix(0.05,0,0,0.05,89.85000000000001,0)" xlink:href="#W"/></g><path d="M205 0l-28-72H64L36 0H1l101-248h38L239 0h-34zm-38-99l-47-123c-12 45-31 82-46 123h93" id="X"/><path d="M100-194c62-1 85 37 85 99 1 63-27 99-86 99S16-35 15-95c0-66 28-99 85-99zM99-20c44 1 53-31 53-75 0-43-8-75-51-75s-53 32-53 75 10 74 51 75" id="Y"/><g id="b"><use transform="matrix(0.05,0,0,0.05,0,0)" xlink:href="#X"/><use transform="matrix(0.05,0,0,0.05,12,0)" xlink:href="#T"/><use transform="matrix(0.05,0,0,0.05,21,0)" xlink:href="#P"/><use transform="matrix(0.05,0,0,0.05,26,0)" xlink:href="#Y"/><use transform="matrix(0.05,0,0,0.05,36,0)" xlink:href="#R"/></g><path d="M33-154v-36h34v36H33zM33 0v-36h34V0H33" id="Z"/><path d="M232-93c-1 65-40 97-104 97C67 4 28-28 28-90v-158h33c8 89-33 224 67 224 102 0 64-133 71-224h33v155" id="aa"/><path d="M100-194c63 0 86 42 84 106H49c0 40 14 67 53 68 26 1 43-12 49-29l28 8c-11 28-37 45-77 45C44 4 14-33 15-96c1-61 26-98 85-98zm52 81c6-60-76-77-97-28-3 7-6 17-6 28h103" id="ab"/><path d="M30-248c87 1 191-15 191 75 0 78-77 80-158 76V0H30v-248zm33 125c57 0 124 11 124-50 0-59-68-47-124-48v98" id="ac"/><path d="M101-234c-31-9-42 10-38 44h38v23H63V0H32v-167H5v-23h27c-7-52 17-82 69-68v24" id="ad"/><path d="M24-231v-30h32v30H24zM24 0v-190h32V0H24" id="ae"/><path d="M24 0v-261h32V0H24" id="af"/><g id="c"><use transform="matrix(0.05,0,0,0.05,0,0)" xlink:href="#Z"/><use transform="matrix(0.05,0,0,0.05,5,0)" xlink:href="#aa"/><use transform="matrix(0.05,0,0,0.05,17.950000000000003,0)" xlink:href="#O"/><use transform="matrix(0.05,0,0,0.05,26.950000000000003,0)" xlink:href="#ab"/><use transform="matrix(0.05,0,0,0.05,36.95,0)" xlink:href="#R"/><use transform="matrix(0.05,0,0,0.05,42.900000000000006,0)" xlink:href="#ac"/><use transform="matrix(0.05,0,0,0.05,54.900000000000006,0)" xlink:href="#R"/><use transform="matrix(0.05,0,0,0.05,60.85,0)" xlink:href="#Y"/><use transform="matrix(0.05,0,0,0.05,70.85000000000001,0)" xlink:href="#ad"/><use transform="matrix(0.05,0,0,0.05,75.85000000000001,0)" xlink:href="#ae"/><use transform="matrix(0.05,0,0,0.05,79.80000000000001,0)" xlink:href="#af"/><use transform="matrix(0.05,0,0,0.05,83.75000000000001,0)" xlink:href="#ab"/></g><path d="M212-179c-10-28-35-45-73-45-59 0-87 40-87 99 0 60 29 101 89 101 43 0 62-24 78-52l27 14C228-24 195 4 139 4 59 4 22-46 18-125c-6-104 99-153 187-111 19 9 31 26 39 46" id="ag"/><path d="M117-194c89-4 53 116 60 194h-32v-121c0-31-8-49-39-48C34-167 62-67 57 0H25l-1-190h30c1 10-1 24 2 32 11-22 29-35 61-36" id="ah"/><g id="d"><use transform="matrix(0.05,0,0,0.05,0,0)" xlink:href="#Z"/><use transform="matrix(0.05,0,0,0.05,5,0)" xlink:href="#S"/><use transform="matrix(0.05,0,0,0.05,19.950000000000003,0)" xlink:href="#Q"/><use transform="matrix(0.05,0,0,0.05,29.950000000000003,0)" xlink:href="#P"/><use transform="matrix(0.05,0,0,0.05,34.95,0)" xlink:href="#T"/><use transform="matrix(0.05,0,0,0.05,43.95,0)" xlink:href="#U"/><use transform="matrix(0.05,0,0,0.05,53.95,0)" xlink:href="#ag"/><use transform="matrix(0.05,0,0,0.05,66.9,0)" xlink:href="#Y"/><use transform="matrix(0.05,0,0,0.05,76.9,0)" xlink:href="#ah"/><use transform="matrix(0.05,0,0,0.05,86.9,0)" xlink:href="#P"/><use transform="matrix(0.05,0,0,0.05,91.9,0)" xlink:href="#R"/><use transform="matrix(0.05,0,0,0.05,97.85000000000001,0)" xlink:href="#Y"/><use transform="matrix(0.05,0,0,0.05,107.85000000000001,0)" xlink:href="#af"/><use transform="matrix(0.05,0,0,0.05,111.80000000000001,0)" xlink:href="#af"/><use transform="matrix(0.05,0,0,0.05,115.75,0)" xlink:href="#ab"/><use transform="matrix(0.05,0,0,0.05,125.75,0)" xlink:href="#R"/></g><path d="M127-220V0H93v-220H8v-28h204v28h-85" id="ai"/><path d="M84 4C-5 8 30-112 23-190h32v120c0 31 7 50 39 49 72-2 45-101 50-169h31l1 190h-30c-1-10 1-25-2-33-11 22-28 36-60 37" id="aj"/><g id="e"><use transform="matrix(0.05,0,0,0.05,0,0)" xlink:href="#Z"/><use transform="matrix(0.05,0,0,0.05,5,0)" xlink:href="#ai"/><use transform="matrix(0.05,0,0,0.05,15.3,0)" xlink:href="#aj"/><use transform="matrix(0.05,0,0,0.05,25.3,0)" xlink:href="#R"/><use transform="matrix(0.05,0,0,0.05,31.25,0)" xlink:href="#ah"/></g><g id="f"><use transform="matrix(0.05,0,0,0.05,0,0)" xlink:href="#ai"/><use transform="matrix(0.05,0,0,0.05,8.950000000000001,0)" xlink:href="#Y"/></g><path d="M143 0L79-87 56-68V0H24v-261h32v163l83-92h37l-77 82L181 0h-38" id="ak"/><g id="g"><use transform="matrix(0.05,0,0,0.05,0,0)" xlink:href="#S"/><use transform="matrix(0.05,0,0,0.05,14.950000000000001,0)" xlink:href="#Q"/><use transform="matrix(0.05,0,0,0.05,24.950000000000003,0)" xlink:href="#ak"/><use transform="matrix(0.05,0,0,0.05,33.95,0)" xlink:href="#ab"/></g><use transform="matrix(0.05,0,0,0.05,0,0)" xlink:href="#Q" id="h"/><path d="M108 0H70L1-190h34L89-25l56-165h34" id="al"/><g id="i"><use transform="matrix(0.05,0,0,0.05,0,0)" xlink:href="#S"/><use transform="matrix(0.05,0,0,0.05,14.950000000000001,0)" xlink:href="#Y"/><use transform="matrix(0.05,0,0,0.05,24.950000000000003,0)" xlink:href="#al"/><use transform="matrix(0.05,0,0,0.05,33.95,0)" xlink:href="#ab"/></g><g id="j"><use transform="matrix(0.05,0,0,0.05,0,0)" xlink:href="#ae"/><use transform="matrix(0.05,0,0,0.05,3.95,0)" xlink:href="#ah"/></g><g id="k"><use transform="matrix(0.05,0,0,0.05,0,0)" xlink:href="#P"/><use transform="matrix(0.05,0,0,0.05,5,0)" xlink:href="#U"/><use transform="matrix(0.05,0,0,0.05,15,0)" xlink:href="#ab"/></g><path d="M177-190C167-65 218 103 67 71c-23-6-38-20-44-43l32-5c15 47 100 32 89-28v-30C133-14 115 1 83 1 29 1 15-40 15-95c0-56 16-97 71-98 29-1 48 16 59 35 1-10 0-23 2-32h30zM94-22c36 0 50-32 50-73 0-42-14-75-50-75-39 0-46 34-46 75s6 73 46 73" id="am"/><path d="M210-169c-67 3-38 105-44 169h-31v-121c0-29-5-50-35-48C34-165 62-65 56 0H25l-1-190h30c1 10-1 24 2 32 10-44 99-50 107 0 11-21 27-35 58-36 85-2 47 119 55 194h-31v-121c0-29-5-49-35-48" id="an"/><g id="l"><use transform="matrix(0.05,0,0,0.05,0,0)" xlink:href="#am"/><use transform="matrix(0.05,0,0,0.05,10,0)" xlink:href="#Q"/><use transform="matrix(0.05,0,0,0.05,20,0)" xlink:href="#an"/><use transform="matrix(0.05,0,0,0.05,34.95,0)" xlink:href="#ab"/></g><g id="m"><use transform="matrix(0.05,0,0,0.05,0,0)" xlink:href="#ad"/><use transform="matrix(0.05,0,0,0.05,5,0)" xlink:href="#R"/><use transform="matrix(0.05,0,0,0.05,10.95,0)" xlink:href="#Y"/><use transform="matrix(0.05,0,0,0.05,20.95,0)" xlink:href="#an"/></g><path d="M85-194c31 0 48 13 60 33l-1-100h32l1 261h-30c-2-10 0-23-3-31C134-8 116 4 85 4 32 4 16-35 15-94c0-66 23-100 70-100zm9 24c-40 0-46 34-46 75 0 40 6 74 45 74 42 0 51-32 51-76 0-42-9-74-50-73" id="ao"/><g id="n"><use transform="matrix(0.05,0,0,0.05,0,0)" xlink:href="#O"/><use transform="matrix(0.05,0,0,0.05,9,0)" xlink:href="#Q"/><use transform="matrix(0.05,0,0,0.05,19,0)" xlink:href="#al"/><use transform="matrix(0.05,0,0,0.05,28,0)" xlink:href="#ab"/><use transform="matrix(0.05,0,0,0.05,38,0)" xlink:href="#ao"/></g><g id="o"><use transform="matrix(0.05,0,0,0.05,0,0)" xlink:href="#an"/><use transform="matrix(0.05,0,0,0.05,14.950000000000001,0)" xlink:href="#Q"/><use transform="matrix(0.05,0,0,0.05,24.950000000000003,0)" xlink:href="#P"/><use transform="matrix(0.05,0,0,0.05,29.950000000000003,0)" xlink:href="#T"/><use transform="matrix(0.05,0,0,0.05,38.95,0)" xlink:href="#U"/></g><path d="M185-189c-5-48-123-54-124 2 14 75 158 14 163 119 3 78-121 87-175 55-17-10-28-26-33-46l33-7c5 56 141 63 141-1 0-78-155-14-162-118-5-82 145-84 179-34 5 7 8 16 11 25" id="ap"/><g id="p"><use transform="matrix(0.05,0,0,0.05,0,0)" xlink:href="#ap"/><use transform="matrix(0.05,0,0,0.05,12,0)" xlink:href="#Q"/><use transform="matrix(0.05,0,0,0.05,22,0)" xlink:href="#al"/><use transform="matrix(0.05,0,0,0.05,31,0)" xlink:href="#ab"/><use transform="matrix(0.05,0,0,0.05,41,0)" xlink:href="#ao"/></g><g id="q"><use transform="matrix(0.05,0,0,0.05,0,0)" xlink:href="#S"/><use transform="matrix(0.05,0,0,0.05,14.950000000000001,0)" xlink:href="#Q"/><use transform="matrix(0.05,0,0,0.05,24.950000000000003,0)" xlink:href="#P"/><use transform="matrix(0.05,0,0,0.05,29.950000000000003,0)" xlink:href="#T"/><use transform="matrix(0.05,0,0,0.05,38.95,0)" xlink:href="#U"/></g><path d="M30 0v-248h33v221h125V0H30" id="aq"/><g id="r"><use transform="matrix(0.05,0,0,0.05,0,0)" xlink:href="#aq"/><use transform="matrix(0.05,0,0,0.05,10,0)" xlink:href="#ae"/><use transform="matrix(0.05,0,0,0.05,13.949999999999998,0)" xlink:href="#O"/><use transform="matrix(0.05,0,0,0.05,22.95,0)" xlink:href="#P"/></g><g id="s"><use transform="matrix(0.05,0,0,0.05,0,0)" xlink:href="#Z"/><use transform="matrix(0.05,0,0,0.05,5,0)" xlink:href="#S"/><use transform="matrix(0.05,0,0,0.05,19.950000000000003,0)" xlink:href="#Q"/><use transform="matrix(0.05,0,0,0.05,29.950000000000003,0)" xlink:href="#P"/><use transform="matrix(0.05,0,0,0.05,34.95,0)" xlink:href="#T"/><use transform="matrix(0.05,0,0,0.05,43.95,0)" xlink:href="#U"/><use transform="matrix(0.05,0,0,0.05,53.95,0)" xlink:href="#ag"/><use transform="matrix(0.05,0,0,0.05,66.9,0)" xlink:href="#Y"/><use transform="matrix(0.05,0,0,0.05,76.9,0)" xlink:href="#ah"/><use transform="matrix(0.05,0,0,0.05,86.9,0)" xlink:href="#P"/><use transform="matrix(0.05,0,0,0.05,91.9,0)" xlink:href="#Y"/><use transform="matrix(0.05,0,0,0.05,101.9,0)" xlink:href="#af"/><use transform="matrix(0.05,0,0,0.05,105.85000000000001,0)" xlink:href="#af"/><use transform="matrix(0.05,0,0,0.05,109.80000000000001,0)" xlink:href="#ab"/><use transform="matrix(0.05,0,0,0.05,119.80000000000001,0)" xlink:href="#R"/></g><g id="t"><use transform="matrix(0.05,0,0,0.05,0,0)" xlink:href="#am"/><use transform="matrix(0.05,0,0,0.05,10,0)" xlink:href="#ab"/><use transform="matrix(0.05,0,0,0.05,20,0)" xlink:href="#P"/><use transform="matrix(0.05,0,0,0.05,25,0)" xlink:href="#ag"/><use transform="matrix(0.05,0,0,0.05,37.95,0)" xlink:href="#aj"/><use transform="matrix(0.05,0,0,0.05,47.95,0)" xlink:href="#R"/><use transform="matrix(0.05,0,0,0.05,53.900000000000006,0)" xlink:href="#R"/><use transform="matrix(0.05,0,0,0.05,59.85,0)" xlink:href="#ab"/><use transform="matrix(0.05,0,0,0.05,69.85000000000001,0)" xlink:href="#ah"/><use transform="matrix(0.05,0,0,0.05,79.85000000000001,0)" xlink:href="#P"/><use transform="matrix(0.05,0,0,0.05,84.85000000000001,0)" xlink:href="#S"/><use transform="matrix(0.05,0,0,0.05,99.80000000000001,0)" xlink:href="#Q"/><use transform="matrix(0.05,0,0,0.05,109.80000000000001,0)" xlink:href="#P"/><use transform="matrix(0.05,0,0,0.05,114.80000000000001,0)" xlink:href="#T"/><use transform="matrix(0.05,0,0,0.05,123.80000000000001,0)" xlink:href="#U"/><use transform="matrix(0.05,0,0,0.05,133.8,0)" xlink:href="#ab"/><use transform="matrix(0.05,0,0,0.05,143.8,0)" xlink:href="#O"/><use transform="matrix(0.05,0,0,0.05,152.8,0)" xlink:href="#V"/><use transform="matrix(0.05,0,0,0.05,158.75,0)" xlink:href="#W"/></g><g id="u"><use transform="matrix(0.05,0,0,0.05,0,0)" xlink:href="#Q"/><use transform="matrix(0.05,0,0,0.05,10,0)" xlink:href="#ao"/><use transform="matrix(0.05,0,0,0.05,20,0)" xlink:href="#ao"/><use transform="matrix(0.05,0,0,0.05,30,0)" xlink:href="#ai"/><use transform="matrix(0.05,0,0,0.05,40.300000000000004,0)" xlink:href="#aj"/><use transform="matrix(0.05,0,0,0.05,50.300000000000004,0)" xlink:href="#R"/><use transform="matrix(0.05,0,0,0.05,56.25,0)" xlink:href="#ah"/><use transform="matrix(0.05,0,0,0.05,66.25,0)" xlink:href="#V"/><use transform="matrix(0.05,0,0,0.05,72.2,0)" xlink:href="#W"/></g><g id="v"><use transform="matrix(0.05,0,0,0.05,0,0)" xlink:href="#Q"/><use transform="matrix(0.05,0,0,0.05,10,0)" xlink:href="#T"/><use transform="matrix(0.05,0,0,0.05,19,0)" xlink:href="#P"/><use transform="matrix(0.05,0,0,0.05,24,0)" xlink:href="#ae"/><use transform="matrix(0.05,0,0,0.05,27.950000000000003,0)" xlink:href="#al"/><use transform="matrix(0.05,0,0,0.05,36.95,0)" xlink:href="#ab"/><use transform="matrix(0.05,0,0,0.05,46.95,0)" xlink:href="#ai"/><use transform="matrix(0.05,0,0,0.05,57.25,0)" xlink:href="#aj"/><use transform="matrix(0.05,0,0,0.05,67.25,0)" xlink:href="#R"/><use transform="matrix(0.05,0,0,0.05,73.2,0)" xlink:href="#ah"/><use transform="matrix(0.05,0,0,0.05,83.2,0)" xlink:href="#O"/><use transform="matrix(0.05,0,0,0.05,92.2,0)" xlink:href="#V"/><use transform="matrix(0.05,0,0,0.05,98.15,0)" xlink:href="#W"/></g><path d="M115-194c53 0 69 39 70 98 0 66-23 100-70 100C84 3 66-7 56-30L54 0H23l1-261h32v101c10-23 28-34 59-34zm-8 174c40 0 45-34 45-75 0-40-5-75-45-74-42 0-51 32-51 76 0 43 10 73 51 73" id="ar"/><g id="w"><use transform="matrix(0.05,0,0,0.05,0,0)" xlink:href="#O"/><use transform="matrix(0.05,0,0,0.05,9,0)" xlink:href="#aj"/><use transform="matrix(0.05,0,0,0.05,19,0)" xlink:href="#ar"/><use transform="matrix(0.05,0,0,0.05,29,0)" xlink:href="#an"/><use transform="matrix(0.05,0,0,0.05,43.95,0)" xlink:href="#ae"/><use transform="matrix(0.05,0,0,0.05,47.900000000000006,0)" xlink:href="#P"/><use transform="matrix(0.05,0,0,0.05,52.900000000000006,0)" xlink:href="#ai"/><use transform="matrix(0.05,0,0,0.05,63.20000000000002,0)" xlink:href="#aj"/><use transform="matrix(0.05,0,0,0.05,73.20000000000002,0)" xlink:href="#R"/><use transform="matrix(0.05,0,0,0.05,79.15000000000002,0)" xlink:href="#ah"/><use transform="matrix(0.05,0,0,0.05,89.15000000000002,0)" xlink:href="#V"/><use transform="matrix(0.05,0,0,0.05,95.10000000000002,0)" xlink:href="#W"/></g><path d="M141 0L90-78 38 0H4l68-98-65-92h35l48 74 47-74h35l-64 92 68 98h-35" id="as"/><path d="M68-38c1 34 0 65-14 84H32c9-13 17-26 17-46H33v-38h35" id="at"/><path d="M179-190L93 31C79 59 56 82 12 73V49c39 6 53-20 64-50L1-190h34L92-34l54-156h33" id="au"/><g id="x"><use transform="matrix(0.05,0,0,0.05,0,0)" xlink:href="#ah"/><use transform="matrix(0.05,0,0,0.05,10,0)" xlink:href="#ab"/><use transform="matrix(0.05,0,0,0.05,20,0)" xlink:href="#as"/><use transform="matrix(0.05,0,0,0.05,29,0)" xlink:href="#P"/><use transform="matrix(0.05,0,0,0.05,34,0)" xlink:href="#P"/><use transform="matrix(0.05,0,0,0.05,39,0)" xlink:href="#R"/><use transform="matrix(0.05,0,0,0.05,44.95,0)" xlink:href="#aj"/><use transform="matrix(0.05,0,0,0.05,54.95,0)" xlink:href="#ah"/><use transform="matrix(0.05,0,0,0.05,64.95,0)" xlink:href="#V"/><use transform="matrix(0.05,0,0,0.05,70.9,0)" xlink:href="#as"/><use transform="matrix(0.05,0,0,0.05,79.9,0)" xlink:href="#at"/><use transform="matrix(0.05,0,0,0.05,84.9,0)" xlink:href="#au"/><use transform="matrix(0.05,0,0,0.05,93.9,0)" xlink:href="#W"/></g><g id="y"><use transform="matrix(0.05,0,0,0.05,0,0)" xlink:href="#X"/><use transform="matrix(0.05,0,0,0.05,12,0)" xlink:href="#af"/><use transform="matrix(0.05,0,0,0.05,15.949999999999998,0)" xlink:href="#P"/></g><g id="z"><use transform="matrix(0.05,0,0,0.05,0,0)" xlink:href="#al"/><use transform="matrix(0.05,0,0,0.05,9,0)" xlink:href="#Q"/><use transform="matrix(0.05,0,0,0.05,19,0)" xlink:href="#af"/><use transform="matrix(0.05,0,0,0.05,22.95,0)" xlink:href="#ae"/><use transform="matrix(0.05,0,0,0.05,26.899999999999995,0)" xlink:href="#ao"/><use transform="matrix(0.05,0,0,0.05,36.9,0)" xlink:href="#Q"/><use transform="matrix(0.05,0,0,0.05,46.9,0)" xlink:href="#P"/><use transform="matrix(0.05,0,0,0.05,51.900000000000006,0)" xlink:href="#ab"/><use transform="matrix(0.05,0,0,0.05,61.900000000000006,0)" xlink:href="#S"/><use transform="matrix(0.05,0,0,0.05,76.85,0)" xlink:href="#Y"/><use transform="matrix(0.05,0,0,0.05,86.85,0)" xlink:href="#al"/><use transform="matrix(0.05,0,0,0.05,95.85,0)" xlink:href="#ab"/><use transform="matrix(0.05,0,0,0.05,105.84999999999998,0)" xlink:href="#V"/><use transform="matrix(0.05,0,0,0.05,111.80000000000001,0)" xlink:href="#W"/></g><g id="A"><use transform="matrix(0.05,0,0,0.05,0,0)" xlink:href="#an"/><use transform="matrix(0.05,0,0,0.05,14.950000000000001,0)" xlink:href="#Y"/><use transform="matrix(0.05,0,0,0.05,24.950000000000003,0)" xlink:href="#al"/><use transform="matrix(0.05,0,0,0.05,33.95,0)" xlink:href="#ab"/><use transform="matrix(0.05,0,0,0.05,43.95,0)" xlink:href="#ai"/><use transform="matrix(0.05,0,0,0.05,52.900000000000006,0)" xlink:href="#Y"/><use transform="matrix(0.05,0,0,0.05,62.900000000000006,0)" xlink:href="#V"/><use transform="matrix(0.05,0,0,0.05,68.85000000000001,0)" xlink:href="#as"/><use transform="matrix(0.05,0,0,0.05,77.85000000000001,0)" xlink:href="#at"/><use transform="matrix(0.05,0,0,0.05,82.85000000000001,0)" xlink:href="#at"/><use transform="matrix(0.05,0,0,0.05,87.85000000000001,0)" xlink:href="#au"/><use transform="matrix(0.05,0,0,0.05,96.85000000000001,0)" xlink:href="#W"/></g><path d="M33 0v-248h34V0H33" id="av"/><g id="B"><use transform="matrix(0.05,0,0,0.05,0,0)" xlink:href="#av"/><use transform="matrix(0.05,0,0,0.05,5,0)" xlink:href="#ad"/></g><g id="C"><use transform="matrix(0.05,0,0,0.05,0,0)" xlink:href="#an"/><use transform="matrix(0.05,0,0,0.05,14.950000000000001,0)" xlink:href="#Y"/><use transform="matrix(0.05,0,0,0.05,24.950000000000003,0)" xlink:href="#al"/><use transform="matrix(0.05,0,0,0.05,33.95,0)" xlink:href="#ab"/></g><g id="D"><use transform="matrix(0.05,0,0,0.05,0,0)" xlink:href="#ae"/><use transform="matrix(0.05,0,0,0.05,3.95,0)" xlink:href="#O"/></g><g id="E"><use transform="matrix(0.05,0,0,0.05,0,0)" xlink:href="#al"/><use transform="matrix(0.05,0,0,0.05,9,0)" xlink:href="#Q"/><use transform="matrix(0.05,0,0,0.05,19,0)" xlink:href="#af"/><use transform="matrix(0.05,0,0,0.05,22.95,0)" xlink:href="#ae"/><use transform="matrix(0.05,0,0,0.05,26.899999999999995,0)" xlink:href="#ao"/><use transform="matrix(0.05,0,0,0.05,36.9,0)" xlink:href="#Q"/><use transform="matrix(0.05,0,0,0.05,46.9,0)" xlink:href="#P"/><use transform="matrix(0.05,0,0,0.05,51.900000000000006,0)" xlink:href="#ab"/><use transform="matrix(0.05,0,0,0.05,61.900000000000006,0)" xlink:href="#ao"/></g><path d="M115-194c55 1 70 41 70 98S169 2 115 4C84 4 66-9 55-30l1 105H24l-1-265h31l2 30c10-21 28-34 59-34zm-8 174c40 0 45-34 45-75s-6-73-45-74c-42 0-51 32-51 76 0 43 10 73 51 73" id="aw"/><g id="F"><use transform="matrix(0.05,0,0,0.05,0,0)" xlink:href="#aj"/><use transform="matrix(0.05,0,0,0.05,10,0)" xlink:href="#aw"/><use transform="matrix(0.05,0,0,0.05,20,0)" xlink:href="#ao"/><use transform="matrix(0.05,0,0,0.05,30,0)" xlink:href="#Q"/><use transform="matrix(0.05,0,0,0.05,40,0)" xlink:href="#P"/><use transform="matrix(0.05,0,0,0.05,45,0)" xlink:href="#ab"/><use transform="matrix(0.05,0,0,0.05,55,0)" xlink:href="#S"/><use transform="matrix(0.05,0,0,0.05,69.95,0)" xlink:href="#Q"/><use transform="matrix(0.05,0,0,0.05,79.95,0)" xlink:href="#P"/><use transform="matrix(0.05,0,0,0.05,84.95,0)" xlink:href="#T"/><use transform="matrix(0.05,0,0,0.05,93.95,0)" xlink:href="#U"/><use transform="matrix(0.05,0,0,0.05,103.95,0)" xlink:href="#V"/><use transform="matrix(0.05,0,0,0.05,109.9,0)" xlink:href="#W"/></g><g id="G"><use transform="matrix(0.05,0,0,0.05,0,0)" xlink:href="#ah"/><use transform="matrix(0.05,0,0,0.05,10,0)" xlink:href="#Y"/><use transform="matrix(0.05,0,0,0.05,20,0)" xlink:href="#P"/><use transform="matrix(0.05,0,0,0.05,25,0)" xlink:href="#ae"/><use transform="matrix(0.05,0,0,0.05,28.950000000000003,0)" xlink:href="#ad"/><use transform="matrix(0.05,0,0,0.05,33.95,0)" xlink:href="#au"/><use transform="matrix(0.05,0,0,0.05,42.95,0)" xlink:href="#ac"/><use transform="matrix(0.05,0,0,0.05,54.95,0)" xlink:href="#af"/><use transform="matrix(0.05,0,0,0.05,58.900000000000006,0)" xlink:href="#Q"/><use transform="matrix(0.05,0,0,0.05,68.9,0)" xlink:href="#au"/><use transform="matrix(0.05,0,0,0.05,77.9,0)" xlink:href="#ab"/><use transform="matrix(0.05,0,0,0.05,87.9,0)" xlink:href="#R"/><use transform="matrix(0.05,0,0,0.05,93.85000000000001,0)" xlink:href="#V"/><use transform="matrix(0.05,0,0,0.05,99.80000000000001,0)" xlink:href="#W"/></g><g id="H"><use transform="matrix(0.05,0,0,0.05,0,0)" xlink:href="#R"/><use transform="matrix(0.05,0,0,0.05,5.95,0)" xlink:href="#ab"/><use transform="matrix(0.05,0,0,0.05,15.949999999999998,0)" xlink:href="#an"/><use transform="matrix(0.05,0,0,0.05,30.899999999999995,0)" xlink:href="#Y"/><use transform="matrix(0.05,0,0,0.05,40.9,0)" xlink:href="#al"/><use transform="matrix(0.05,0,0,0.05,49.9,0)" xlink:href="#ab"/><use transform="matrix(0.05,0,0,0.05,59.900000000000006,0)" xlink:href="#ai"/><use transform="matrix(0.05,0,0,0.05,70.2,0)" xlink:href="#aj"/><use transform="matrix(0.05,0,0,0.05,80.2,0)" xlink:href="#R"/><use transform="matrix(0.05,0,0,0.05,86.15,0)" xlink:href="#ah"/><use transform="matrix(0.05,0,0,0.05,96.15,0)" xlink:href="#V"/><use transform="matrix(0.05,0,0,0.05,102.10000000000001,0)" xlink:href="#W"/></g><g id="I"><use transform="matrix(0.05,0,0,0.05,0,0)" xlink:href="#R"/><use transform="matrix(0.05,0,0,0.05,5.95,0)" xlink:href="#ab"/><use transform="matrix(0.05,0,0,0.05,15.949999999999998,0)" xlink:href="#an"/><use transform="matrix(0.05,0,0,0.05,30.899999999999995,0)" xlink:href="#Y"/><use transform="matrix(0.05,0,0,0.05,40.9,0)" xlink:href="#al"/><use transform="matrix(0.05,0,0,0.05,49.9,0)" xlink:href="#ab"/></g><g id="J"><use transform="matrix(0.05,0,0,0.05,0,0)" xlink:href="#P"/><use transform="matrix(0.05,0,0,0.05,5,0)" xlink:href="#aj"/><use transform="matrix(0.05,0,0,0.05,15,0)" xlink:href="#R"/><use transform="matrix(0.05,0,0,0.05,20.95,0)" xlink:href="#ah"/></g><g id="K"><use transform="matrix(0.05,0,0,0.05,0,0)" xlink:href="#Q"/><use transform="matrix(0.05,0,0,0.05,10,0)" xlink:href="#T"/><use transform="matrix(0.05,0,0,0.05,19,0)" xlink:href="#P"/><use transform="matrix(0.05,0,0,0.05,24,0)" xlink:href="#ae"/><use transform="matrix(0.05,0,0,0.05,27.950000000000003,0)" xlink:href="#al"/><use transform="matrix(0.05,0,0,0.05,36.95,0)" xlink:href="#ab"/><use transform="matrix(0.05,0,0,0.05,46.95,0)" xlink:href="#ai"/><use transform="matrix(0.05,0,0,0.05,57.25,0)" xlink:href="#aj"/><use transform="matrix(0.05,0,0,0.05,67.25,0)" xlink:href="#R"/><use transform="matrix(0.05,0,0,0.05,73.2,0)" xlink:href="#ah"/><use transform="matrix(0.05,0,0,0.05,83.2,0)" xlink:href="#O"/><use transform="matrix(0.05,0,0,0.05,92.2,0)" xlink:href="#V"/><use transform="matrix(0.05,0,0,0.05,98.15,0)" xlink:href="#W"/></g><g id="L"><use transform="matrix(0.05,0,0,0.05,0,0)" xlink:href="#ah"/><use transform="matrix(0.05,0,0,0.05,10,0)" xlink:href="#Y"/><use transform="matrix(0.05,0,0,0.05,20,0)" xlink:href="#P"/><use transform="matrix(0.05,0,0,0.05,25,0)" xlink:href="#ae"/><use transform="matrix(0.05,0,0,0.05,28.950000000000003,0)" xlink:href="#ad"/><use transform="matrix(0.05,0,0,0.05,33.95,0)" xlink:href="#au"/><use transform="matrix(0.05,0,0,0.05,42.95,0)" xlink:href="#ap"/><use transform="matrix(0.05,0,0,0.05,54.95,0)" xlink:href="#au"/><use transform="matrix(0.05,0,0,0.05,63.95,0)" xlink:href="#O"/><use transform="matrix(0.05,0,0,0.05,72.95,0)" xlink:href="#P"/><use transform="matrix(0.05,0,0,0.05,77.95,0)" xlink:href="#ab"/><use transform="matrix(0.05,0,0,0.05,87.95,0)" xlink:href="#an"/><use transform="matrix(0.05,0,0,0.05,102.9,0)" xlink:href="#V"/><use transform="matrix(0.05,0,0,0.05,108.85000000000001,0)" xlink:href="#W"/></g><g id="M"><use transform="matrix(0.05,0,0,0.05,0,0)" xlink:href="#ae"/><use transform="matrix(0.05,0,0,0.05,3.95,0)" xlink:href="#O"/></g><g id="N"><use transform="matrix(0.05,0,0,0.05,0,0)" xlink:href="#ae"/><use transform="matrix(0.05,0,0,0.05,3.95,0)" xlink:href="#ah"/><use transform="matrix(0.05,0,0,0.05,13.949999999999998,0)" xlink:href="#al"/><use transform="matrix(0.05,0,0,0.05,22.95,0)" xlink:href="#Q"/><use transform="matrix(0.05,0,0,0.05,32.95,0)" xlink:href="#af"/><use transform="matrix(0.05,0,0,0.05,36.900000000000006,0)" xlink:href="#ae"/><use transform="matrix(0.05,0,0,0.05,40.85000000000001,0)" xlink:href="#ao"/></g></defs></g></svg>