<svg xmlns="http://www.w3.org/2000/svg" xmlns:xlink="http://www.w3.org/1999/xlink" xmlns:lucid="lucid" width="1220" height="1420"><g transform="translate(-260 -60)" lucid:page-tab-id="0_0"><path d="M0 0h1760v2656H0z" fill="#fff"/><path d="M300 85c0-2.76 2.24-5 5-5h1150c2.76 0 5 2.24 5 5v70c0 2.76-2.24 5-5 5H305c-2.76 0-5-2.24-5-5z" stroke="#000" stroke-opacity="0" stroke-width="2" fill="#fff" fill-opacity="0"/><use xlink:href="#a" transform="matrix(1,0,0,1,300,80) translate(456.5975925925926 47.38888888888889)"/><use xlink:href="#b" transform="matrix(1,0,0,1,300,80) translate(586.2272222222223 47.38888888888889)"/><path d="M998 326h417c2.76 0 5 2.24 5 5v244c0 2.76-2.24 5-5 5H285c-2.76 0-5-2.24-5-5V305c0-2.76 2.24-5 5-5h674c2.76 0 6.78 1.36 8.97 3.04zm-718 0h718" stroke="#000" stroke-width="2" fill="#fff"/><use xlink:href="#c" transform="matrix(1,0,0,1,288,300) translate(0 16.6)"/><path d="M720 405c0-2.76 2.24-5 5-5h150c2.76 0 5 2.24 5 5v110c0 2.76-2.24 5-5 5H725c-2.76 0-5-2.24-5-5z" stroke="#000" stroke-width="2" fill="#fff"/><use xlink:href="#d" transform="matrix(1,0,0,1,720,400) translate(56.208703703703705 62.77777777777778)"/><path d="M998 766h417c2.76 0 5 2.24 5 5v244c0 2.76-2.24 5-5 5H285c-2.76 0-5-2.24-5-5V745c0-2.76 2.24-5 5-5h674c2.76 0 6.78 1.36 8.97 3.04zm-718 0h718" stroke="#000" stroke-width="2" fill="#fff"/><use xlink:href="#e" transform="matrix(1,0,0,1,288,740) translate(0 16.6)"/><path d="M400 845c0-2.76 2.24-5 5-5h150c2.76 0 5 2.24 5 5v110c0 2.76-2.24 5-5 5H405c-2.76 0-5-2.24-5-5z" stroke="#000" stroke-width="2" fill="#fff"/><use xlink:href="#f" transform="matrix(1,0,0,1,400,840) translate(24.980308641975306 62.77777777777778)"/><use xlink:href="#g" transform="matrix(1,0,0,1,400,840) translate(91.58524691358025 62.77777777777778)"/><path d="M720 845c0-2.76 2.24-5 5-5h150c2.76 0 5 2.24 5 5v110c0 2.76-2.24 5-5 5H725c-2.76 0-5-2.24-5-5z" stroke="#000" stroke-width="2" fill="#fff"/><use xlink:href="#h" transform="matrix(1,0,0,1,720,840) translate(51.702530864197534 62.77777777777778)"/><path d="M998 1206h417c2.76 0 5 2.24 5 5v244c0 2.76-2.24 5-5 5H285c-2.76 0-5-2.24-5-5v-270c0-2.76 2.24-5 5-5h674c2.76 0 6.78 1.36 8.97 3.04zm-718 0h718" stroke="#000" stroke-width="2" fill="#fff"/><use xlink:href="#i" transform="matrix(1,0,0,1,288,1180) translate(0 16.6)"/><path d="M400 1285c0-2.76 2.24-5 5-5h150c2.76 0 5 2.24 5 5v110c0 2.76-2.24 5-5 5H405c-2.76 0-5-2.24-5-5z" stroke="#000" stroke-width="2" fill="#fff"/><use xlink:href="#j" transform="matrix(1,0,0,1,400,1280) translate(47.35067901234568 62.77777777777778)"/><path d="M720 1285c0-2.76 2.24-5 5-5h150c2.76 0 5 2.24 5 5v110c0 2.76-2.24 5-5 5H725c-2.76 0-5-2.24-5-5z" stroke="#000" stroke-width="2" fill="#fff"/><use xlink:href="#k" transform="matrix(1,0,0,1,720,1280) translate(56.60993827160494 62.77777777777778)"/><path d="M1040 1285c0-2.76 2.24-5 5-5h150c2.76 0 5 2.24 5 5v110c0 2.76-2.24 5-5 5h-150c-2.76 0-5-2.24-5-5z" stroke="#000" stroke-width="2" fill="#fff"/><use xlink:href="#l" transform="matrix(1,0,0,1,1040,1280) translate(32.504999999999995 62.77777777777778)"/><path d="M786.43 1021l.03 1.68.1 1.64.18 1.6.23 1.6.3 1.58.37 1.57.44 1.57.5 1.57.6 1.6.67 1.58.76 1.6.86 1.66.97 1.67 1.1 1.73 1.23 1.78 1.4 1.84 1.57 1.9 1.8 2 2.05 2.1 2.35 2.2 2.73 2.36 3.2 2.52 3.74 2.72 4.48 2.97 5.42 3.3 6.7 3.67 8.5 4.2 11.2 4.98 15.68 6.2 25.38 8.76 130.1 40.56 15.7 6.2 11.2 4.96 8.5 4.2 6.7 3.7 5.42 3.27 4.48 2.96 3.75 2.72 3.2 2.52 2.73 2.36 2.35 2.2 2.06 2.1 1.8 2 1.57 1.9 1.4 1.83 1.23 1.77 1.1 1.72.96 1.66.85 1.65v.02" fill="none"/><path d="M786.43 1021l.03 1.68.08 1.28m.5 3.9l.23 1.24.37 1.57.44 1.57.44 1.36m1.46 3.67l.63 1.32.86 1.64.97 1.67.36.57m2.2 3.27l1.15 1.5 1.58 1.9 1.04 1.16m2.73 2.85l.08.08 2.35 2.2 1.96 1.7m3.05 2.48l.9.72 3.75 2.72.12.08m3.3 2.18l1.06.7 3.97 2.4m3.42 1.97l4.74 2.6.47.23m3.54 1.75l4.5 2.23.83.37m3.6 1.6l5.42 2.4m3.65 1.5l5.5 2.18m3.68 1.45l4.2 1.66 1.33.45m3.74 1.28l5.6 1.94m3.73 1.3l5.6 1.93m3.72 1.3l1.66.56 3.97 1.25m3.77 1.17l5.65 1.77m3.77 1.16l5.65 1.76m3.77 1.18l5.65 1.76m3.76 1.17l5.65 1.76m3.78 1.17l5.65 1.76m3.77 1.17l5.65 1.77m3.77 1.17l5.66 1.76m3.76 1.18l5.66 1.76m3.77 1.17l5.65 1.77m3.77 1.18l5.64 1.76m3.77 1.2l5.66 1.75m3.77 1.17l5.65 1.76m3.77 1.18l5.65 1.76m3.77 1.18l5.5 2.17m3.68 1.45l5.5 2.17m3.63 1.56l5.4 2.4m3.6 1.62l5.3 2.63m3.53 1.8l5.2 2.85m3.4 2l2.68 1.64 2.32 1.53m3.26 2.23l2.65 1.92 2.08 1.64m3.03 2.53l.83.7 2.35 2.22 1.13 1.15m2.7 2.9l.03.03 1.58 1.9 1.4 1.84.62.9m2.13 3.3l.54.96.85 1.65v.02" stroke="#000" stroke-width="2" fill="none"/><path d="M787.4 1020.8l-1.95.4-.24-1.2h2.05zM1099.48 1201.85l-7.8-12.8 9.02-2.15z"/><path d="M1100.23 1205l-10.12-16.6 11.7-2.8zm-6.98-15.3l5.5 9 .84-10.5z"/><path d="M850 581l.04 2.12.13 2.06.22 2.02.28 1.98.37 1.94.45 1.93.54 1.9.62 1.92.7 1.9.8 1.92.92 1.92 1.02 1.96 1.15 2 1.3 2.02 1.44 2.1 1.62 2.14 1.85 2.22 2.1 2.32 2.37 2.43 2.73 2.58 3.17 2.73 3.7 2.93 4.36 3.17 5.26 3.5 6.45 3.9 8.2 4.48 10.9 5.4 16.07 7.13 105.9 41.92 10.9 5.4 8.17 4.5 6.45 3.9 5.25 3.48 4.37 3.17 3.7 2.92 3.16 2.72 2.73 2.57 2.4 2.42 2.08 2.32 1.85 2.22 1.63 2.15 1.45 2.1 1.3 2.03 1.15 2 1.02 1.95.9 1.93.8 1.9" fill="none"/><path d="M850 581l.04 2.12.06.86m.4 3.95l.18 1.25.37 1.94.45 1.93.2.72m1.2 3.78l.46 1.23.8 1.9.92 1.94.2.4m1.93 3.47l.05.07 1.3 2.03 1.44 2.1.55.72m2.47 3.1l.45.54 2.1 2.32 1.5 1.53m2.85 2.77l.75.7 3.17 2.74.58.47m3.12 2.47l4.36 3.16.48.32m3.3 2.2l1.48.97 3.6 2.16m3.4 2.03l5.23 2.86m3.5 1.87l5.34 2.64m3.56 1.76l.9.45 4.53 2m3.63 1.62l5.45 2.4m3.66 1.58l5.55 2.2m3.7 1.45l5.54 2.2m3.7 1.46l5.54 2.18m3.7 1.47l5.54 2.2m3.7 1.45l5.53 2.2m3.7 1.46l5.54 2.2m3.68 1.46l5.55 2.2m3.7 1.45l5.53 2.2m3.7 1.46l5.54 2.2m3.7 1.46l5.53 2.18m3.7 1.46l5.54 2.2m3.7 1.46l3.1 1.22 2.35 1.17m3.56 1.75l4.98 2.47.35.2m3.5 1.9l4.34 2.4.86.5m3.4 2.07l2.2 1.3 2.83 1.9m3.28 2.22l3.52 2.55 1.28 1m3.1 2.5l2.48 2.15 1.95 1.83m2.8 2.8l.36.37 2.08 2.32 1.5 1.8m2.4 3.16l1.03 1.5 1.3 2.03.86 1.5m1.82 3.53l.4.85.8 1.9" stroke="#000" stroke-width="2" fill="none"/><path d="M851 580.85l-2 .3-.17-1.15h2.03zM1096.75 761.82l-7.2-13.15 9.1-1.73z"/><path d="M1097.35 765l-9.35-17.06 11.8-2.24zm-6.28-15.6l5.08 9.24 1.33-10.46z"/><defs><path d="M30-248c87 1 191-15 191 75 0 78-77 80-158 76V0H30v-248zm33 125c57 0 124 11 124-50 0-59-68-47-124-48v98" id="m"/><path d="M141-36C126-15 110 5 73 4 37 3 15-17 15-53c-1-64 63-63 125-63 3-35-9-54-41-54-24 1-41 7-42 31l-33-3c5-37 33-52 76-52 45 0 72 20 72 64v82c-1 20 7 32 28 27v20c-31 9-61-2-59-35zM48-53c0 20 12 33 32 33 41-3 63-29 60-74-43 2-92-5-92 41" id="n"/><path d="M96-169c-40 0-48 33-48 73s9 75 48 75c24 0 41-14 43-38l32 2c-6 37-31 61-74 61-59 0-76-41-82-99-10-93 101-131 147-64 4 7 5 14 7 22l-32 3c-4-21-16-35-41-35" id="o"/><path d="M143 0L79-87 56-68V0H24v-261h32v163l83-92h37l-77 82L181 0h-38" id="p"/><path d="M177-190C167-65 218 103 67 71c-23-6-38-20-44-43l32-5c15 47 100 32 89-28v-30C133-14 115 1 83 1 29 1 15-40 15-95c0-56 16-97 71-98 29-1 48 16 59 35 1-10 0-23 2-32h30zM94-22c36 0 50-32 50-73 0-42-14-75-50-75-39 0-46 34-46 75s6 73 46 73" id="q"/><path d="M100-194c63 0 86 42 84 106H49c0 40 14 67 53 68 26 1 43-12 49-29l28 8c-11 28-37 45-77 45C44 4 14-33 15-96c1-61 26-98 85-98zm52 81c6-60-76-77-97-28-3 7-6 17-6 28h103" id="r"/><g id="a"><use transform="matrix(0.08641975308641976,0,0,0.08641975308641976,0,0)" xlink:href="#m"/><use transform="matrix(0.08641975308641976,0,0,0.08641975308641976,20.740740740740744,0)" xlink:href="#n"/><use transform="matrix(0.08641975308641976,0,0,0.08641975308641976,38.0246913580247,0)" xlink:href="#o"/><use transform="matrix(0.08641975308641976,0,0,0.08641975308641976,53.580246913580254,0)" xlink:href="#p"/><use transform="matrix(0.08641975308641976,0,0,0.08641975308641976,69.13580246913581,0)" xlink:href="#n"/><use transform="matrix(0.08641975308641976,0,0,0.08641975308641976,86.41975308641976,0)" xlink:href="#q"/><use transform="matrix(0.08641975308641976,0,0,0.08641975308641976,103.70370370370371,0)" xlink:href="#r"/></g><path d="M30-248c118-7 216 8 213 122C240-48 200 0 122 0H30v-248zM63-27c89 8 146-16 146-99s-60-101-146-95v194" id="s"/><path d="M24-231v-30h32v30H24zM24 0v-190h32V0H24" id="t"/><path d="M114-163C36-179 61-72 57 0H25l-1-190h30c1 12-1 29 2 39 6-27 23-49 58-41v29" id="u"/><path d="M210-169c-67 3-38 105-44 169h-31v-121c0-29-5-50-35-48C34-165 62-65 56 0H25l-1-190h30c1 10-1 24 2 32 10-44 99-50 107 0 11-21 27-35 58-36 85-2 47 119 55 194h-31v-121c0-29-5-49-35-48" id="v"/><g id="b"><use transform="matrix(0.08641975308641976,0,0,0.08641975308641976,0,0)" xlink:href="#s"/><use transform="matrix(0.08641975308641976,0,0,0.08641975308641976,22.38271604938272,0)" xlink:href="#t"/><use transform="matrix(0.08641975308641976,0,0,0.08641975308641976,29.20987654320988,0)" xlink:href="#n"/><use transform="matrix(0.08641975308641976,0,0,0.08641975308641976,46.49382716049383,0)" xlink:href="#q"/><use transform="matrix(0.08641975308641976,0,0,0.08641975308641976,63.777777777777786,0)" xlink:href="#u"/><use transform="matrix(0.08641975308641976,0,0,0.08641975308641976,74.06172839506173,0)" xlink:href="#n"/><use transform="matrix(0.08641975308641976,0,0,0.08641975308641976,91.34567901234568,0)" xlink:href="#v"/></g><path d="M232-93c-1 65-40 97-104 97C67 4 28-28 28-90v-158h33c8 89-33 224 67 224 102 0 64-133 71-224h33v155" id="w"/><path d="M33 0v-248h34V0H33" id="x"/><g id="c"><use transform="matrix(0.05,0,0,0.05,0,0)" xlink:href="#w"/><use transform="matrix(0.05,0,0,0.05,12.950000000000001,0)" xlink:href="#x"/></g><path d="M137 0h-34L2-248h35l83 218 83-218h36" id="y"/><path d="M206 0h-36l-40-164L89 0H53L-1-190h32L70-26l43-164h34l41 164 42-164h31" id="z"/><g id="d"><use transform="matrix(0.06172839506172839,0,0,0.06172839506172839,0,0)" xlink:href="#y"/><use transform="matrix(0.06172839506172839,0,0,0.06172839506172839,14.382716049382715,0)" xlink:href="#t"/><use transform="matrix(0.06172839506172839,0,0,0.06172839506172839,19.25925925925926,0)" xlink:href="#r"/><use transform="matrix(0.06172839506172839,0,0,0.06172839506172839,31.604938271604937,0)" xlink:href="#z"/></g><path d="M205 0l-28-72H64L36 0H1l101-248h38L239 0h-34zm-38-99l-47-123c-12 45-31 82-46 123h93" id="A"/><path d="M115-194c55 1 70 41 70 98S169 2 115 4C84 4 66-9 55-30l1 105H24l-1-265h31l2 30c10-21 28-34 59-34zm-8 174c40 0 45-34 45-75s-6-73-45-74c-42 0-51 32-51 76 0 43 10 73 51 73" id="B"/><path d="M24 0v-261h32V0H24" id="C"/><path d="M59-47c-2 24 18 29 38 22v24C64 9 27 4 27-40v-127H5v-23h24l9-43h21v43h35v23H59v120" id="D"/><path d="M100-194c62-1 85 37 85 99 1 63-27 99-86 99S16-35 15-95c0-66 28-99 85-99zM99-20c44 1 53-31 53-75 0-43-8-75-51-75s-53 32-53 75 10 74 51 75" id="E"/><path d="M117-194c89-4 53 116 60 194h-32v-121c0-31-8-49-39-48C34-167 62-67 57 0H25l-1-190h30c1 10-1 24 2 32 11-22 29-35 61-36" id="F"/><g id="e"><use transform="matrix(0.05,0,0,0.05,0,0)" xlink:href="#A"/><use transform="matrix(0.05,0,0,0.05,12,0)" xlink:href="#B"/><use transform="matrix(0.05,0,0,0.05,22,0)" xlink:href="#B"/><use transform="matrix(0.05,0,0,0.05,32,0)" xlink:href="#C"/><use transform="matrix(0.05,0,0,0.05,35.95,0)" xlink:href="#t"/><use transform="matrix(0.05,0,0,0.05,39.900000000000006,0)" xlink:href="#o"/><use transform="matrix(0.05,0,0,0.05,48.900000000000006,0)" xlink:href="#n"/><use transform="matrix(0.05,0,0,0.05,58.900000000000006,0)" xlink:href="#D"/><use transform="matrix(0.05,0,0,0.05,63.900000000000006,0)" xlink:href="#t"/><use transform="matrix(0.05,0,0,0.05,67.85000000000001,0)" xlink:href="#E"/><use transform="matrix(0.05,0,0,0.05,77.85000000000001,0)" xlink:href="#F"/></g><path d="M143 4C61 4 22-44 18-125c-5-107 100-154 193-111 17 8 29 25 37 43l-32 9c-13-25-37-40-76-40-61 0-88 39-88 99 0 61 29 100 91 101 35 0 62-11 79-27v-45h-74v-28h105v86C228-13 192 4 143 4" id="G"/><g id="f"><use transform="matrix(0.06172839506172839,0,0,0.06172839506172839,0,0)" xlink:href="#G"/><use transform="matrix(0.06172839506172839,0,0,0.06172839506172839,17.28395061728395,0)" xlink:href="#n"/><use transform="matrix(0.06172839506172839,0,0,0.06172839506172839,29.629629629629626,0)" xlink:href="#v"/><use transform="matrix(0.06172839506172839,0,0,0.06172839506172839,48.08641975308642,0)" xlink:href="#r"/></g><g id="g"><use transform="matrix(0.06172839506172839,0,0,0.06172839506172839,0,0)" xlink:href="#C"/><use transform="matrix(0.06172839506172839,0,0,0.06172839506172839,4.876543209876543,0)" xlink:href="#E"/><use transform="matrix(0.06172839506172839,0,0,0.06172839506172839,17.22222222222222,0)" xlink:href="#q"/><use transform="matrix(0.06172839506172839,0,0,0.06172839506172839,29.5679012345679,0)" xlink:href="#t"/><use transform="matrix(0.05,0,0,0.05,34.44444444444444,0)" xlink:href="#o"/></g><path d="M212-179c-10-28-35-45-73-45-59 0-87 40-87 99 0 60 29 101 89 101 43 0 62-24 78-52l27 14C228-24 195 4 139 4 59 4 22-46 18-125c-6-104 99-153 187-111 19 9 31 26 39 46" id="H"/><g id="h"><use transform="matrix(0.06172839506172839,0,0,0.06172839506172839,0,0)" xlink:href="#H"/><use transform="matrix(0.06172839506172839,0,0,0.06172839506172839,15.987654320987653,0)" xlink:href="#C"/><use transform="matrix(0.06172839506172839,0,0,0.06172839506172839,20.864197530864196,0)" xlink:href="#t"/><use transform="matrix(0.06172839506172839,0,0,0.06172839506172839,25.74074074074074,0)" xlink:href="#r"/><use transform="matrix(0.06172839506172839,0,0,0.06172839506172839,38.08641975308642,0)" xlink:href="#F"/><use transform="matrix(0.06172839506172839,0,0,0.06172839506172839,50.432098765432094,0)" xlink:href="#D"/></g><g id="i"><use transform="matrix(0.05,0,0,0.05,0,0)" xlink:href="#s"/><use transform="matrix(0.05,0,0,0.05,12.950000000000001,0)" xlink:href="#E"/><use transform="matrix(0.05,0,0,0.05,22.950000000000003,0)" xlink:href="#v"/><use transform="matrix(0.05,0,0,0.05,37.900000000000006,0)" xlink:href="#n"/><use transform="matrix(0.05,0,0,0.05,47.900000000000006,0)" xlink:href="#t"/><use transform="matrix(0.05,0,0,0.05,51.85,0)" xlink:href="#F"/></g><path d="M185-189c-5-48-123-54-124 2 14 75 158 14 163 119 3 78-121 87-175 55-17-10-28-26-33-46l33-7c5 56 141 63 141-1 0-78-155-14-162-118-5-82 145-84 179-34 5 7 8 16 11 25" id="I"/><path d="M108 0H70L1-190h34L89-25l56-165h34" id="J"/><g id="j"><use transform="matrix(0.06172839506172839,0,0,0.06172839506172839,0,0)" xlink:href="#I"/><use transform="matrix(0.06172839506172839,0,0,0.06172839506172839,14.814814814814813,0)" xlink:href="#r"/><use transform="matrix(0.06172839506172839,0,0,0.06172839506172839,27.160493827160494,0)" xlink:href="#u"/><use transform="matrix(0.06172839506172839,0,0,0.06172839506172839,34.50617283950617,0)" xlink:href="#J"/><use transform="matrix(0.06172839506172839,0,0,0.06172839506172839,45.61728395061728,0)" xlink:href="#r"/><use transform="matrix(0.06172839506172839,0,0,0.06172839506172839,57.962962962962955,0)" xlink:href="#u"/></g><path d="M135-143c-3-34-86-38-87 0 15 53 115 12 119 90S17 21 10-45l28-5c4 36 97 45 98 0-10-56-113-15-118-90-4-57 82-63 122-42 12 7 21 19 24 35" id="K"/><g id="k"><use transform="matrix(0.06172839506172839,0,0,0.06172839506172839,0,0)" xlink:href="#w"/><use transform="matrix(0.06172839506172839,0,0,0.06172839506172839,15.987654320987653,0)" xlink:href="#K"/><use transform="matrix(0.06172839506172839,0,0,0.06172839506172839,27.098765432098766,0)" xlink:href="#r"/><use transform="matrix(0.06172839506172839,0,0,0.06172839506172839,39.44444444444444,0)" xlink:href="#u"/></g><path d="M115-194c53 0 69 39 70 98 0 66-23 100-70 100C84 3 66-7 56-30L54 0H23l1-261h32v101c10-23 28-34 59-34zm-8 174c40 0 45-34 45-75 0-40-5-75-45-74-42 0-51 32-51 76 0 43 10 73 51 73" id="L"/><g id="l"><use transform="matrix(0.06172839506172839,0,0,0.06172839506172839,0,0)" xlink:href="#s"/><use transform="matrix(0.06172839506172839,0,0,0.06172839506172839,15.987654320987653,0)" xlink:href="#n"/><use transform="matrix(0.06172839506172839,0,0,0.06172839506172839,28.333333333333332,0)" xlink:href="#D"/><use transform="matrix(0.06172839506172839,0,0,0.06172839506172839,34.50617283950617,0)" xlink:href="#n"/><use transform="matrix(0.06172839506172839,0,0,0.06172839506172839,46.85185185185185,0)" xlink:href="#L"/><use transform="matrix(0.06172839506172839,0,0,0.06172839506172839,59.197530864197525,0)" xlink:href="#n"/><use transform="matrix(0.06172839506172839,0,0,0.06172839506172839,71.5432098765432,0)" xlink:href="#K"/><use transform="matrix(0.06172839506172839,0,0,0.06172839506172839,82.65432098765432,0)" xlink:href="#r"/></g></defs></g></svg>